<svg width="197" height="192" viewBox="0 0 197 192" fill="none" xmlns="http://www.w3.org/2000/svg">
<g clip-path="url(#clip0_619_7206)">
<path d="M165.995 41.774C165.108 41.774 164.387 41.0526 164.387 40.1664C164.387 39.2801 165.108 38.5588 165.995 38.5588C166.882 38.5588 167.603 39.2801 167.603 40.1664C167.603 41.0526 166.882 41.774 165.995 41.774ZM165.995 39.4176C165.582 39.4176 165.246 39.7534 165.246 40.1664C165.246 40.5794 165.582 40.9152 165.995 40.9152C166.408 40.9152 166.744 40.5794 166.744 40.1664C166.744 39.7534 166.408 39.4176 165.995 39.4176ZM135.391 87.331C135.367 87.2891 135.334 87.2526 135.296 87.2235C135.257 87.1944 135.213 87.1733 135.166 87.1614C135.119 87.1491 135.07 87.1463 135.022 87.1532C134.974 87.16 134.928 87.1764 134.886 87.2014L133.661 87.9253L132.938 86.7006C132.913 86.6588 132.88 86.6222 132.842 86.5931C132.803 86.564 132.759 86.5429 132.712 86.5311C132.665 86.5188 132.616 86.516 132.568 86.5228C132.52 86.5297 132.474 86.5461 132.432 86.571C132.347 86.6214 132.287 86.7013 132.263 86.7969C132.238 86.8924 132.252 86.9919 132.303 87.0763L133.027 88.301L131.802 89.0249C131.717 89.0753 131.657 89.1552 131.632 89.2507C131.608 89.3463 131.622 89.4458 131.672 89.5302C131.723 89.6153 131.803 89.6755 131.898 89.6998C131.994 89.724 132.093 89.7102 132.178 89.6598L133.402 88.9359L134.126 90.1612C134.165 90.2269 134.224 90.2789 134.293 90.3101C134.363 90.3412 134.441 90.3501 134.516 90.3353C134.556 90.3275 134.595 90.3131 134.632 90.2908C134.807 90.1874 134.865 89.9603 134.762 89.7855L134.038 88.5609L135.262 87.8369C135.437 87.7329 135.495 87.5057 135.391 87.331ZM138.497 95.4401C137.61 95.4401 136.889 94.7188 136.889 93.8326C136.889 92.9463 137.61 92.225 138.497 92.225C139.384 92.225 140.104 92.9463 140.104 93.8326C140.104 94.7188 139.383 95.4401 138.497 95.4401ZM138.497 93.0838C138.084 93.0838 137.748 93.4195 137.748 93.8326C137.748 94.2456 138.084 94.5814 138.497 94.5814C138.91 94.5814 139.245 94.2456 139.245 93.8326C139.245 93.4195 138.909 93.0838 138.497 93.0838ZM188.791 146.367C188.747 146.388 188.708 146.418 188.676 146.454C188.644 146.49 188.619 146.533 188.603 146.578C188.587 146.624 188.581 146.673 188.584 146.721C188.587 146.77 188.599 146.817 188.62 146.861L189.244 148.14L187.965 148.763C187.921 148.784 187.882 148.813 187.85 148.85C187.818 148.886 187.793 148.928 187.777 148.974C187.761 149.02 187.755 149.068 187.758 149.117C187.761 149.165 187.773 149.213 187.794 149.256C187.816 149.3 187.845 149.339 187.881 149.371C187.918 149.403 187.96 149.428 188.006 149.443C188.099 149.475 188.199 149.47 188.288 149.426L189.567 148.803L190.19 150.082C190.211 150.126 190.241 150.165 190.277 150.197C190.313 150.229 190.356 150.254 190.401 150.269C190.494 150.301 190.594 150.296 190.684 150.252C190.727 150.231 190.766 150.202 190.798 150.165C190.83 150.129 190.855 150.087 190.871 150.041C190.903 149.947 190.897 149.848 190.854 149.759L190.231 148.48L191.51 147.857C191.598 147.814 191.665 147.738 191.697 147.645C191.729 147.553 191.723 147.451 191.68 147.363C191.591 147.18 191.369 147.104 191.186 147.193L189.907 147.816L189.284 146.537C189.195 146.354 188.974 146.278 188.791 146.367ZM155.365 177.931C154.478 177.931 153.757 177.209 153.757 176.323C153.757 175.436 154.479 174.715 155.365 174.715C156.251 174.715 156.972 175.437 156.972 176.323C156.973 177.209 156.252 177.931 155.365 177.931ZM155.365 175.574C154.952 175.574 154.616 175.91 154.616 176.323C154.616 176.736 154.952 177.072 155.365 177.072C155.778 177.072 156.114 176.736 156.114 176.323C156.114 175.91 155.778 175.574 155.365 175.574ZM0.779597 165.285C0.706756 165.35 0.662751 165.442 0.657197 165.539C0.651961 165.638 0.685346 165.732 0.750801 165.806L1.70055 166.865L0.641489 167.815C0.568648 167.88 0.524643 167.971 0.519089 168.069C0.513853 168.168 0.547238 168.262 0.612693 168.336C0.644992 168.372 0.684097 168.401 0.727774 168.422C0.77145 168.443 0.818841 168.455 0.867232 168.458C0.915623 168.461 0.964065 168.454 1.00979 168.438C1.05552 168.422 1.09762 168.397 1.13371 168.364L2.19277 167.415L3.14251 168.474C3.17481 168.51 3.21392 168.539 3.25759 168.56C3.30127 168.581 3.34866 168.593 3.39705 168.596C3.44544 168.599 3.49389 168.592 3.53961 168.576C3.58534 168.56 3.62744 168.535 3.66353 168.502C3.73637 168.437 3.78037 168.346 3.78593 168.248C3.79116 168.149 3.75778 168.055 3.69232 167.981L2.74259 166.922L3.80164 165.973C3.87436 165.907 3.91817 165.816 3.92344 165.718C3.92872 165.62 3.89504 165.524 3.82979 165.452C3.79744 165.416 3.75829 165.386 3.71459 165.365C3.67089 165.344 3.6235 165.332 3.57511 165.33C3.52672 165.327 3.47829 165.334 3.43259 165.35C3.38689 165.366 3.34481 165.391 3.30876 165.423L2.24971 166.373L1.29997 165.314C1.26781 165.278 1.22881 165.248 1.18521 165.227C1.14161 165.206 1.09427 165.194 1.04591 165.191C0.997545 165.188 0.949122 165.195 0.903419 165.211C0.857716 165.227 0.815633 165.252 0.779597 165.285ZM32.0826 191.456C31.1957 191.456 30.475 190.735 30.475 189.848C30.475 188.962 31.1963 188.241 32.0826 188.241C32.9695 188.241 33.6901 188.962 33.6901 189.848C33.6901 190.735 32.9688 191.456 32.0826 191.456ZM32.0826 189.1C31.6696 189.1 31.3338 189.435 31.3338 189.848C31.3338 190.262 31.6696 190.597 32.0826 190.597C32.4956 190.597 32.8314 190.262 32.8314 189.848C32.8314 189.435 32.4949 189.1 32.0826 189.1ZM2.97626 67.7967C2.94082 67.8298 2.91228 67.8695 2.89229 67.9137C2.87229 67.9578 2.86123 68.0055 2.85974 68.054C2.85647 68.1528 2.89182 68.2464 2.95924 68.3184L3.93255 69.3558L2.89509 70.3292C2.85966 70.3622 2.83111 70.402 2.81112 70.4461C2.79112 70.4903 2.78006 70.5379 2.77858 70.5864C2.77531 70.6852 2.81066 70.7788 2.87807 70.8508C2.91114 70.8863 2.95089 70.9148 2.99504 70.9348C3.03919 70.9548 3.08687 70.9659 3.13531 70.9673C3.23415 70.9706 3.32774 70.9353 3.39974 70.8678L4.4372 69.8945L5.41051 70.932C5.44357 70.9674 5.48333 70.996 5.52748 71.016C5.57163 71.036 5.6193 71.047 5.66775 71.0485C5.76658 71.0518 5.86018 71.0164 5.93218 70.949C5.96762 70.9159 5.99616 70.8762 6.01615 70.832C6.03615 70.7879 6.0472 70.7402 6.04869 70.6918C6.05196 70.5929 6.01662 70.4993 5.9492 70.4273L4.97589 69.3899L6.01335 68.4166C6.06906 68.3642 6.10716 68.2959 6.1224 68.221C6.13764 68.1461 6.12927 68.0683 6.09843 67.9983C6.08207 67.961 6.05917 67.9263 6.02971 67.8949C5.96269 67.8236 5.87009 67.7818 5.77226 67.7787C5.67444 67.7756 5.5794 67.8116 5.50804 67.8785L4.47058 68.8518L3.49727 67.8144C3.46428 67.7789 3.4246 67.7503 3.38053 67.7302C3.33645 67.7102 3.28885 67.699 3.24044 67.6973C3.19203 67.6957 3.14377 67.7036 3.09843 67.7207C3.0531 67.7377 3.01158 67.7636 2.97626 67.7967ZM13.7272 79.0215C12.8403 79.0215 12.1196 78.3002 12.1196 77.414C12.1196 76.5277 12.8409 75.8064 13.7272 75.8064C14.6141 75.8064 15.3347 76.5277 15.3347 77.414C15.3347 78.3002 14.6134 79.0215 13.7272 79.0215ZM13.7272 76.6651C13.3141 76.6651 12.9784 77.0009 12.9784 77.414C12.9784 77.827 13.3141 78.1628 13.7272 78.1628C14.1402 78.1628 14.476 77.827 14.476 77.414C14.4753 77.0009 14.1395 76.6651 13.7272 76.6651ZM193.555 81.2967C193.457 81.3111 193.371 81.3622 193.312 81.4407C193.283 81.4794 193.262 81.5236 193.25 81.5705C193.238 81.6175 193.236 81.6664 193.243 81.7143L193.446 83.1222L192.038 83.3251C191.94 83.3389 191.854 83.3906 191.795 83.4691C191.751 83.5275 191.726 83.5976 191.722 83.6705C191.718 83.7433 191.736 83.8158 191.773 83.8785C191.81 83.9413 191.865 83.9917 191.931 84.0232C191.997 84.0547 192.07 84.066 192.143 84.0556L193.55 83.8527L193.753 85.2606C193.768 85.3582 193.819 85.4446 193.897 85.5035C193.977 85.5624 194.073 85.5873 194.171 85.5729C194.268 85.5591 194.355 85.5074 194.414 85.4289C194.473 85.3497 194.498 85.2528 194.483 85.1553L194.28 83.7473L195.689 83.5444C195.848 83.5215 195.968 83.3998 195.998 83.2505C196.006 83.2106 196.008 83.1687 196.002 83.1262C195.973 82.9246 195.785 82.7845 195.583 82.8133L194.176 83.0162L193.973 81.6083C193.944 81.408 193.757 81.2673 193.555 81.2967ZM79.2557 16.2493C79.2075 16.2439 79.1587 16.2483 79.1121 16.262C79.0656 16.2757 79.0223 16.2985 78.9847 16.3292C78.9468 16.3595 78.9154 16.397 78.8923 16.4396C78.8691 16.4822 78.8547 16.529 78.8498 16.5772L78.6993 17.9917L77.2848 17.8412C77.2366 17.8358 77.1878 17.8401 77.1413 17.8538C77.0948 17.8675 77.0514 17.8904 77.0138 17.921C76.976 17.9514 76.9446 17.9889 76.9213 18.0315C76.8981 18.0741 76.8835 18.1208 76.8784 18.1691C76.873 18.2173 76.8773 18.2661 76.891 18.3126C76.9047 18.3591 76.9276 18.4025 76.9582 18.4401C76.9885 18.4779 77.0261 18.5093 77.0687 18.5325C77.1113 18.5556 77.1581 18.57 77.2063 18.5749L78.6214 18.7254L78.4709 20.1399C78.4655 20.1881 78.4698 20.2369 78.4835 20.2834C78.4972 20.33 78.5201 20.3733 78.5507 20.4109C78.6129 20.4875 78.7006 20.5353 78.7988 20.5457C78.897 20.5562 78.9932 20.5281 79.0698 20.4659C79.1076 20.4356 79.139 20.398 79.1622 20.3554C79.1853 20.3128 79.1998 20.266 79.2046 20.2178L79.3552 18.8033L80.7703 18.9539C80.93 18.9709 81.0773 18.8825 81.1427 18.7451C81.1609 18.7077 81.1722 18.6673 81.1761 18.626C81.1977 18.4237 81.0504 18.2411 80.8482 18.2201L79.4337 18.0696L79.5842 16.6551C79.6052 16.4535 79.4579 16.2709 79.2557 16.2493Z" fill="#6B7280"/>
<path d="M157.612 0.952637C153.924 0.952637 150.933 3.94195 150.933 7.63097V69.3297C150.933 74.1701 147.008 78.0954 142.167 78.0954H98.6367V9.23264C98.6367 4.65933 102.345 0.952637 106.918 0.952637H157.612Z" fill="#E5E7EB"/>
<path d="M142.168 78.0949H120.046V40.9246C120.046 37.2362 123.036 34.2456 126.725 34.2456C128.569 34.2456 130.239 34.9931 131.447 36.2014C132.656 37.4103 133.403 39.0801 133.403 40.9239V69.3286C133.403 74.1696 137.327 78.0949 142.168 78.0949Z" fill="#6B7280"/>
<path d="M126.724 34.2456C123.036 34.2456 120.045 37.2356 120.045 40.9246V165.276C120.045 167.563 119.117 169.633 117.619 171.131C116.121 172.63 114.051 173.557 111.764 173.557H47.4984C42.9258 173.557 39.2178 169.85 39.2178 165.276V42.5263C39.2178 37.953 42.9251 34.2456 47.4984 34.2456H126.724Z" fill="#E5E7EB"/>
<path d="M111.765 173.556H28.7567C24.1834 173.556 20.4761 169.849 20.4761 165.276V160.198H103.484V165.276C103.484 169.85 107.191 173.556 111.765 173.556Z" fill="#6B7280"/>
<path d="M98.6377 34.4868H126.724" stroke="#6B7280" stroke-width="0.327273" stroke-miterlimit="10"/>
<path d="M60.4403 143.554C63.2262 140.768 63.2232 136.248 60.4336 133.458C57.644 130.669 53.1242 130.666 50.3383 133.452C47.5524 136.238 47.5553 140.758 50.3449 143.547C53.1345 146.337 57.6544 146.34 60.4403 143.554Z" fill="#10B981"/>
<path d="M54.3359 142.245L51.3604 139.026L52.7316 137.758L54.2371 139.387L57.9634 134.76L59.4198 135.934L54.3359 142.245Z" fill="white"/>
<path d="M92.4686 136.623L68.1942 136.622C67.5088 136.622 66.9518 136.066 66.9512 135.381C66.9505 134.696 67.5056 134.14 68.1909 134.14L92.4654 134.141C93.1507 134.141 93.7077 134.696 93.7083 135.382C93.7096 136.067 93.1546 136.623 92.4686 136.623Z" fill="#047857"/>
<path d="M96.9514 142.866L68.2025 142.865C67.5171 142.865 66.9601 142.31 66.9595 141.624C66.9588 140.939 67.5139 140.383 68.1992 140.383L96.9481 140.384C97.6334 140.384 98.1904 140.94 98.1911 141.625C98.1924 142.31 97.6374 142.866 96.9514 142.866Z" fill="#10B981"/>
<path d="M60.4119 122.472C63.1978 119.686 63.1949 115.166 60.4053 112.377C57.6157 109.587 53.0959 109.585 50.31 112.371C47.524 115.157 47.527 119.676 50.3166 122.466C53.1062 125.255 57.626 125.258 60.4119 122.472Z" fill="#10B981"/>
<path d="M54.3076 121.164L51.332 117.945L52.7033 116.677L54.2088 118.306L57.9351 113.679L59.3914 114.853L54.3076 121.164Z" fill="white"/>
<path d="M68.1709 119.302L92.4453 119.303C93.1306 119.303 93.6876 119.859 93.6883 120.544C93.689 121.229 93.1339 121.785 92.4486 121.785L68.1741 121.784C67.4888 121.784 66.9318 121.229 66.9312 120.543C66.9305 119.858 67.4855 119.302 68.1709 119.302Z" fill="#10B981"/>
<path d="M68.1627 113.059L96.9117 113.059C97.597 113.059 98.154 113.615 98.1547 114.3C98.1553 114.986 97.6003 115.541 96.9149 115.541L68.166 115.541C67.4807 115.541 66.9237 114.985 66.923 114.3C66.9224 113.614 67.4774 113.059 68.1627 113.059ZM55.3749 126.079C50.6013 126.079 46.712 122.195 46.7054 117.421C46.6989 112.648 50.5777 108.763 55.3513 108.763C60.1249 108.763 64.0142 112.648 64.0208 117.421C64.0273 122.195 60.1491 126.079 55.3749 126.079ZM55.3526 109.336C50.8939 109.336 47.2716 112.963 47.2775 117.421C47.2834 121.88 50.9155 125.507 55.3742 125.507C59.833 125.507 63.4552 121.88 63.4494 117.422C63.4435 112.963 59.8114 109.336 55.3526 109.336ZM109.326 153.94H97.2861C96.7075 153.94 96.2375 153.47 96.2369 152.892C96.2362 152.313 96.7048 151.844 97.2835 151.844H109.324C109.902 151.844 110.372 152.313 110.373 152.892C110.374 153.47 109.906 153.94 109.326 153.94ZM52.995 64.5581C50.1647 61.7317 50.1588 57.1493 52.9812 54.3229C55.8036 51.4966 60.3861 51.4966 63.2163 54.3229C66.0466 57.1493 66.0525 61.7317 63.2301 64.5581L66.3411 67.6652C70.8771 63.1233 70.8673 55.7584 66.3189 51.2165C61.7704 46.6746 54.4062 46.6746 49.8702 51.2165C45.3342 55.7584 45.344 63.1233 49.8924 67.6652L52.995 64.5581ZM53.0342 94.0133C50.204 91.1869 50.1981 86.6045 53.0205 83.7781C55.8429 80.9518 60.4254 80.9518 63.2556 83.7781C66.0859 86.6045 66.0918 91.1869 63.2694 94.0133L66.3804 97.1204C70.9164 92.5785 70.9066 85.2136 66.3582 80.6717C61.8097 76.1298 54.4454 76.1298 49.9094 80.6717C45.3734 85.2136 45.3833 92.5785 49.9317 97.1204L53.0342 94.0133Z" fill="#047857"/>
<path d="M65.3821 88.896C65.3874 92.8927 62.152 96.1333 58.1547 96.1333C54.1573 96.1333 50.9134 92.8933 50.9075 88.896C50.9023 84.8994 54.1377 81.6587 58.135 81.6587L58.1291 77.2648C51.7054 77.2648 46.5051 82.4723 46.5136 88.896C46.5221 95.3197 51.7368 100.527 58.1606 100.527C64.5843 100.527 69.7846 95.3197 69.7761 88.896H65.3821ZM66.3188 51.2165L63.2156 54.3236C64.5273 55.6327 65.3396 57.4425 65.3422 59.4408C65.3475 63.4375 62.112 66.6782 58.1147 66.6782C54.1181 66.6782 50.8735 63.4381 50.8676 59.4408C50.8624 55.4442 54.0978 52.2035 58.0951 52.2035L58.0892 47.8096C51.6655 47.8096 46.4651 53.0165 46.4736 59.4408C46.4822 65.8645 51.6969 71.0721 58.1206 71.0721C64.5443 71.0721 69.7447 65.8645 69.7362 59.4408C69.7316 56.229 68.4258 53.3208 66.3188 51.2165Z" fill="#10B981"/>
<path d="M93.155 54.0108H77.7169C77.2365 54.0108 76.8464 53.6213 76.8457 53.1409C76.845 52.6604 77.2339 52.271 77.7149 52.271H93.153C93.6335 52.271 94.0236 52.6604 94.0242 53.1409C94.0242 53.6207 93.6354 54.0108 93.155 54.0108Z" fill="#6B7280"/>
<path d="M104.161 58.211H77.7228C77.2423 58.211 76.8522 57.8215 76.8516 57.3411C76.8509 56.8606 77.2397 56.4712 77.7201 56.4712H104.159C104.639 56.4712 105.029 56.8606 105.03 57.3411C105.03 57.8215 104.642 58.211 104.161 58.211ZM100.35 62.4112H77.728C77.2476 62.4112 76.8575 62.0217 76.8568 61.5413C76.8562 61.0609 77.245 60.6714 77.7254 60.6714H100.348C100.828 60.6714 101.218 61.0609 101.219 61.5413C101.22 62.0217 100.831 62.4112 100.35 62.4112ZM109.696 66.6114H77.7339C77.2535 66.6114 76.8634 66.222 76.8627 65.7415C76.862 65.2611 77.2508 64.8716 77.7313 64.8716H109.693C110.174 64.8716 110.564 65.2611 110.565 65.7415C110.565 66.222 110.176 66.6114 109.696 66.6114Z" fill="#E5E7EB"/>
<path d="M93.1941 83.4654H77.756C77.2755 83.4654 76.8854 83.0759 76.8848 82.5955C76.8841 82.115 77.2729 81.7256 77.7533 81.7256H93.1915C93.6719 81.7256 94.062 82.115 94.0627 82.5955C94.064 83.0759 93.6752 83.4654 93.1941 83.4654Z" fill="#6B7280"/>
<path d="M104.201 87.6661H77.7623C77.2819 87.6661 76.8918 87.2766 76.8911 86.7962C76.8905 86.3157 77.2793 85.9263 77.7597 85.9263H104.198C104.679 85.9263 105.069 86.3157 105.069 86.7962C105.071 87.2759 104.682 87.6661 104.201 87.6661ZM100.391 91.8663H77.7682C77.2878 91.8663 76.8977 91.4768 76.897 90.9964C76.8964 90.5159 77.2852 90.1265 77.7662 90.1265H100.389C100.869 90.1265 101.259 90.5159 101.26 90.9964C101.26 91.4768 100.871 91.8663 100.391 91.8663ZM109.736 96.0665H77.7741C77.2937 96.0665 76.9035 95.677 76.9029 95.1966C76.9022 94.7162 77.291 94.3267 77.7715 94.3267H109.734C110.214 94.3267 110.604 94.7162 110.605 95.1966C110.605 95.677 110.217 96.0665 109.736 96.0665ZM157.438 157.507C156.208 158.737 154.214 158.737 152.984 157.507L133.863 138.385L131.433 135.956C133.203 134.787 134.718 133.272 135.887 131.502L157.438 153.053C158.668 154.284 158.668 156.277 157.438 157.507Z" fill="#E5E7EB"/>
<path d="M136.855 132.471L141.837 137.454C140.669 139.224 139.154 140.739 137.384 141.908H137.384L134.831 139.355L132.401 136.925C134.172 135.756 135.687 134.241 136.855 132.471Z" fill="#374151"/>
<path d="M141.82 122.093C141.786 121.287 141.702 120.494 141.57 119.716C140.821 115.296 138.545 111.395 135.304 108.576C131.968 105.673 127.611 103.917 122.843 103.917C112.352 103.917 103.848 112.421 103.848 122.912C103.848 123.63 103.888 124.347 103.968 125.06C104.217 127.271 104.845 129.365 105.786 131.279V131.28C107.137 134.03 109.134 136.406 111.58 138.209C111.977 138.502 112.387 138.78 112.807 139.043C115.719 140.858 119.159 141.907 122.843 141.907C126.95 141.907 130.755 140.603 133.862 138.386C133.862 138.386 133.862 138.386 133.862 138.385C135.583 137.157 137.088 135.653 138.316 133.932V133.931H138.317C139.549 132.203 140.5 130.259 141.101 128.169C141.58 126.5 141.837 124.736 141.837 122.912C141.837 122.638 141.832 122.365 141.82 122.093ZM122.843 138.528C119.426 138.528 116.266 137.43 113.695 135.568C111.199 133.762 109.259 131.235 108.178 128.292C107.563 126.615 107.227 124.802 107.227 122.912C107.227 122.201 107.275 121.501 107.367 120.815C108.144 115.024 112.096 110.239 117.412 108.267C119.103 107.64 120.933 107.297 122.843 107.297C123.533 107.297 124.213 107.341 124.88 107.429C128.046 107.84 130.914 109.201 133.19 111.217C136.422 114.078 138.459 118.257 138.459 122.913C138.459 123.15 138.453 123.387 138.442 123.622C138.392 124.768 138.217 125.882 137.931 126.952C137.499 128.569 136.809 130.106 135.886 131.502C134.717 133.272 133.203 134.787 131.433 135.957C130.999 136.243 130.55 136.508 130.086 136.75C129.088 137.275 128.035 137.688 126.946 137.983C125.639 138.338 124.263 138.528 122.843 138.528Z" fill="#6B7280"/>
<path d="M111.018 124.63C110.213 124.63 109.56 123.977 109.56 123.171C109.56 119.554 110.969 116.153 113.527 113.595C116.085 111.037 119.485 109.629 123.103 109.629C123.908 109.629 124.561 110.282 124.561 111.087C124.561 111.892 123.908 112.546 123.103 112.546C120.264 112.546 117.596 113.651 115.589 115.658C113.582 117.665 112.477 120.333 112.477 123.171C112.477 123.977 111.823 124.63 111.018 124.63Z" fill="white"/>
</g>
<defs>
<clipPath id="clip0_619_7206">
<rect width="196" height="192" fill="white" transform="translate(0.5)"/>
</clipPath>
</defs>
</svg>
