<svg width="324" height="324" viewBox="0 0 324 324" fill="none" xmlns="http://www.w3.org/2000/svg">
<g clip-path="url(#clip0_372_6993)">
<g clip-path="url(#clip1_372_6993)">
<path opacity="0.54" d="M248.097 93.9089H312.88V172.286H248.097V93.9089ZM11.085 256.371H76.8327V322.119H11.085V256.371Z" fill="white"/>
<path d="M93.1898 64.4274C92.4816 63.4786 91.7106 62.5783 90.8821 61.7325C90.0843 60.9103 89.1479 60.0315 88.0471 59.0992V59.13C88.0477 59.5437 87.9551 59.9522 87.7762 60.3252C87.5973 60.6982 87.3366 61.0261 87.0136 61.2846C87.7336 61.8382 88.25 62.6148 88.4819 63.493C88.7138 64.3711 88.6482 65.3014 88.2954 66.1384C87.9426 66.9753 87.3224 67.6718 86.5317 68.1189C85.7411 68.5661 84.8246 68.7386 83.9255 68.6097C83.0265 68.4807 82.1954 68.0575 81.5624 67.4062C80.9293 66.7548 80.5299 65.9121 80.4265 65.0097C80.3232 64.1073 80.5217 63.1961 80.9912 62.4185C81.4606 61.6409 82.1744 61.0408 83.0211 60.7119C82.7637 60.3434 82.6001 59.9177 82.5445 59.4718C82.4888 59.0258 82.5427 58.5729 82.7016 58.1525C82.8605 57.7321 83.1195 57.3568 83.4562 57.059C83.7929 56.7613 84.1971 56.5502 84.6338 56.444C81.8879 54.4644 78.4446 52.313 74.1289 50.0215C73.9078 50.4384 73.6033 50.8055 73.2344 51.0998C72.8655 51.3942 72.4401 51.6096 71.9845 51.7326C71.5289 51.8557 71.0528 51.8839 70.5859 51.8153C70.119 51.7467 69.6711 51.5829 69.2701 51.3341C68.8691 51.0852 68.5236 50.7566 68.2549 50.3686C67.9862 49.9806 67.8001 49.5416 67.7081 49.0787C67.6162 48.6158 67.6203 48.1389 67.7204 47.6777C67.8204 47.2165 68.0142 46.7808 68.2896 46.3976C53.0324 35.2236 53.8781 20.1536 53.8781 20.1536C44.1079 44.1571 45.8737 64.1098 50.1626 78.156C50.9543 77.2986 51.9471 76.652 53.0514 76.2745C54.1557 75.8971 55.3366 75.8007 56.4874 75.9941C57.6383 76.1875 58.7229 76.6646 59.6431 77.3822C60.5634 78.0999 61.2903 79.0355 61.7582 80.1046C62.2262 81.1737 62.4204 82.3425 62.3234 83.5055C62.2263 84.6684 61.841 85.7889 61.2023 86.7656C60.5637 87.7423 59.6917 88.5445 58.6652 89.0997C57.6387 89.6549 56.4901 89.9456 55.3231 89.9456C55.1611 89.9456 54.9991 89.9391 54.8371 89.9286C55.9202 92.1139 57.1179 94.2404 58.4254 96.2992C60.273 99.1982 64.9151 106.019 64.9151 106.019L86.76 100.673C86.9771 100.349 87.4218 98.2189 87.6777 86.7477C87.8746 77.9349 95.0909 74.0113 99.0007 70.9025C99.004 70.9065 95.3987 67.4179 93.1898 64.4274Z" fill="url(#paint0_linear_372_6993)"/>
<path d="M49.6871 65.1855C49.7098 65.0722 49.7766 64.9725 49.8727 64.9084C49.9689 64.8443 50.0865 64.821 50.1999 64.8437L62.7767 67.3547C59.4849 62.2938 56.9804 56.9429 55.3134 51.409C53.4885 45.3486 53.0259 40.1776 52.9587 36.91C52.8858 33.3541 53.2422 31.2595 53.2576 31.172C53.2665 31.1148 53.2868 31.0601 53.3171 31.0108C53.3474 30.9616 53.3873 30.9189 53.4343 30.8852C53.4813 30.8515 53.5345 30.8275 53.5909 30.8146C53.6473 30.8017 53.7057 30.8001 53.7627 30.81C53.8197 30.8199 53.8741 30.841 53.9228 30.8722C53.9716 30.9033 54.0136 30.9439 54.0465 30.9914C54.0794 31.039 54.1025 31.0926 54.1145 31.1492C54.1265 31.2058 54.127 31.2642 54.1162 31.321C54.1122 31.3413 53.7558 33.4465 53.8311 36.9351C53.8999 40.1533 54.3705 45.2417 56.1728 51.2081C58.4951 58.8975 63.3972 69.1529 73.8519 79.3062V62.1707C73.8493 62.1119 73.8587 62.0533 73.8794 61.9982C73.9002 61.9432 73.9318 61.8929 73.9725 61.8505C74.0132 61.808 74.062 61.7742 74.1161 61.7511C74.1702 61.728 74.2284 61.7161 74.2872 61.7161C74.346 61.7161 74.4042 61.728 74.4583 61.7511C74.5124 61.7742 74.5613 61.808 74.6019 61.8505C74.6426 61.8929 74.6743 61.9432 74.695 61.9982C74.7158 62.0533 74.7251 62.1119 74.7226 62.1707V80.1405C78.3814 83.6195 82.7197 87.0782 87.8219 90.4081C87.8996 90.4604 87.9584 90.5362 87.9898 90.6244C88.0212 90.7126 88.0234 90.8085 87.9963 90.8981C87.9691 90.9876 87.9138 91.0661 87.8387 91.122C87.7636 91.1778 87.6725 91.2081 87.5789 91.2084C87.4928 91.2091 87.4083 91.1847 87.3359 91.1379C82.4597 87.9552 78.0666 84.5234 74.1564 80.8428C74.0852 80.8243 74.0199 80.7881 73.9665 80.7375C73.9131 80.6869 73.8734 80.6237 73.851 80.5536C70.6808 77.5565 67.7753 74.2912 65.167 70.7939C64.5768 69.9974 64.0071 69.1931 63.4579 68.381L50.0298 65.6974C49.9736 65.6864 49.9202 65.6644 49.8726 65.6327C49.8249 65.6009 49.784 65.5601 49.7522 65.5126C49.7204 65.465 49.6982 65.4116 49.6871 65.3555C49.6759 65.2994 49.6759 65.2416 49.6871 65.1855Z" fill="url(#paint1_linear_372_6993)"/>
<path opacity="0.11" d="M98.2959 70.1703C84.6844 79.5394 73.2913 91.7774 64.9183 106.023L62.6235 102.627C76.0088 74.963 95.8659 67.6406 95.8659 67.6406L98.2959 70.1703Z" fill="black"/>
<path d="M299.451 312.769C299.451 312.769 300.77 289.303 277.008 271.91C277.436 271.314 277.738 270.636 277.893 269.918C278.049 269.2 278.055 268.457 277.912 267.737C277.768 267.016 277.479 266.333 277.06 265.729C276.642 265.125 276.104 264.614 275.48 264.227C274.856 263.839 274.159 263.584 273.432 263.477C272.705 263.371 271.964 263.414 271.255 263.606C270.546 263.797 269.884 264.132 269.309 264.59C268.735 265.048 268.261 265.619 267.916 266.268C261.193 262.704 255.834 259.349 251.554 256.265C252.234 256.1 252.863 255.772 253.387 255.309C253.912 254.845 254.315 254.261 254.562 253.607C254.81 252.952 254.894 252.248 254.807 251.554C254.72 250.859 254.466 250.197 254.065 249.623C255.464 249.088 256.63 248.078 257.361 246.771C258.092 245.464 258.341 243.942 258.066 242.47C257.79 240.998 257.007 239.669 255.852 238.715C254.698 237.761 253.246 237.242 251.748 237.249H251.577C249.91 237.295 248.327 237.989 247.163 239.184C246 240.379 245.348 241.98 245.347 243.648V243.828C245.382 245.168 245.839 246.462 246.654 247.526C246.897 247.846 247.17 248.141 247.468 248.41C247.59 248.521 247.718 248.626 247.849 248.727C247.346 249.129 246.94 249.64 246.662 250.221C246.383 250.802 246.239 251.438 246.239 252.083V252.125C245.478 251.477 244.768 250.851 244.103 250.238C243.111 249.323 242.223 248.446 241.43 247.608L241.425 247.6C240.534 246.66 239.761 245.771 239.09 244.934C239.088 244.933 239.087 244.931 239.086 244.929C234.813 239.6 234.695 236.458 234.695 236.458C240.783 231.619 241.317 224.291 241.624 210.57C242.023 192.705 240.322 188.052 240.66 187.549L238.141 168.18L246.293 161.58C246.627 161.681 246.96 161.785 247.291 161.89C247.292 161.889 247.293 161.889 247.295 161.889C247.296 161.889 247.297 161.889 247.299 161.89C258.072 165.314 267.106 170.606 273.856 175.476C276.271 177.218 278.392 178.907 280.201 180.436C284.883 184.4 287.437 187.295 287.437 187.295C287.437 187.295 292.536 193.23 297.948 204.112C297.7 204.095 297.448 204.086 297.196 204.086C295.38 204.087 293.593 204.541 291.996 205.406C290.399 206.27 289.043 207.519 288.049 209.04C287.056 210.56 286.457 212.304 286.306 214.114C286.155 215.924 286.458 217.743 287.186 219.406C287.915 221.07 289.046 222.526 290.478 223.643C291.91 224.76 293.598 225.503 295.388 225.804C297.179 226.106 299.017 225.956 300.736 225.37C302.455 224.783 304 223.777 305.233 222.444C311.916 244.323 314.666 275.392 299.451 312.769Z" fill="url(#paint2_linear_372_6993)"/>
<path d="M305.445 241.851L284.536 237.677C283.681 236.413 282.793 235.161 281.874 233.921C277.944 228.618 273.436 223.551 268.352 218.717C268.317 218.608 268.255 218.51 268.172 218.431C268.088 218.353 267.987 218.296 267.876 218.267C261.804 212.552 254.963 207.208 247.354 202.237C247.202 202.138 247.018 202.104 246.84 202.141C246.663 202.178 246.508 202.284 246.409 202.434C246.359 202.508 246.325 202.591 246.308 202.678C246.291 202.766 246.291 202.855 246.308 202.943C246.326 203.03 246.36 203.113 246.41 203.186C246.459 203.26 246.523 203.323 246.597 203.372C254.543 208.556 261.297 213.944 266.994 219.361V247.343C267 247.519 267.074 247.686 267.201 247.808C267.327 247.93 267.496 247.999 267.672 247.999C267.848 247.999 268.017 247.93 268.144 247.808C268.27 247.686 268.345 247.519 268.351 247.343V220.664C284.632 236.475 292.263 252.444 295.879 264.417C298.685 273.707 299.419 281.631 299.524 286.642C299.641 292.075 299.085 295.352 299.08 295.384C299.064 295.472 299.066 295.562 299.086 295.649C299.105 295.736 299.142 295.818 299.193 295.891C299.244 295.964 299.309 296.026 299.385 296.073C299.46 296.121 299.544 296.154 299.632 296.169C299.719 296.184 299.809 296.182 299.896 296.162C299.983 296.143 300.065 296.107 300.138 296.055C300.211 296.004 300.273 295.939 300.321 295.864C300.368 295.788 300.401 295.705 300.416 295.617C300.44 295.481 300.995 292.215 300.882 286.682C300.778 281.588 300.057 273.537 297.216 264.101C294.624 255.479 290.72 247.152 285.594 239.272L305.178 243.181C305.354 243.216 305.538 243.18 305.687 243.08C305.837 242.98 305.941 242.825 305.976 242.648C306.011 242.472 305.975 242.289 305.875 242.139C305.775 241.99 305.62 241.886 305.444 241.851H305.445Z" fill="url(#paint3_linear_372_6993)"/>
<path opacity="0.11" d="M271.666 221.985C271.45 222.429 271.229 222.874 271.003 223.32C270.193 224.92 269.309 226.524 268.351 228.131C267.915 228.863 267.463 229.593 266.995 230.324C264.337 234.466 261.298 238.351 257.917 241.928C257.541 240.581 256.734 239.394 255.62 238.549C254.506 237.705 253.146 237.248 251.748 237.249H251.577C249.91 237.294 248.326 237.988 247.163 239.183C245.999 240.378 245.348 241.98 245.347 243.648V243.828C245.382 245.168 245.839 246.462 246.654 247.526C246.897 247.846 247.17 248.142 247.468 248.41C247.59 248.521 247.718 248.626 247.85 248.727C247.347 249.129 246.941 249.64 246.662 250.221C246.383 250.802 246.239 251.438 246.239 252.083V252.125L239.089 244.934L239.084 244.929C248.333 236.236 256.051 226.046 261.913 214.787C262.129 214.367 262.345 213.946 262.561 213.524C268.567 201.619 272.394 188.736 273.861 175.483L282.834 182.499C282.834 182.499 282.091 200.488 271.666 221.985Z" fill="black"/>
<path d="M274.693 162.933C274.693 205.097 251.533 241.851 217.242 261.169C214.694 262.605 212.085 263.943 209.416 265.184L209.375 265.202C194.978 271.88 178.934 275.607 162.019 275.607C145.119 275.607 129.087 271.887 114.7 265.22L114.639 265.192C111.966 263.95 109.352 262.609 106.796 261.169C72.504 241.851 49.3445 205.097 49.3445 162.933C49.3445 121.419 71.7953 85.1488 105.218 65.6027C121.895 55.8487 141.305 50.2589 162.019 50.2589C183.066 50.2589 202.762 56.0302 219.621 66.0758C252.6 85.7312 274.693 121.752 274.693 162.933Z" fill="url(#paint4_linear_372_6993)"/>
<path d="M98.5619 39.6106C98.7419 38.5014 97.9887 37.4562 96.8795 37.2762C95.7702 37.0961 94.7251 37.8494 94.545 38.9586C94.365 40.0678 95.1182 41.113 96.2274 41.2931C97.3367 41.4731 98.3818 40.7199 98.5619 39.6106Z" fill="url(#paint5_linear_372_6993)"/>
<path d="M309.605 216.265C313.559 216.265 316.765 213.059 316.765 209.105C316.765 205.15 313.559 201.944 309.605 201.944C305.65 201.944 302.444 205.15 302.444 209.105C302.444 213.059 305.65 216.265 309.605 216.265Z" fill="url(#paint6_linear_372_6993)"/>
<path d="M246.589 315.503C248.599 313.493 248.599 310.234 246.589 308.224C244.579 306.214 241.321 306.214 239.311 308.224C237.301 310.234 237.301 313.493 239.311 315.503C241.321 317.513 244.579 317.513 246.589 315.503Z" fill="url(#paint7_linear_372_6993)"/>
<path d="M271.637 281.311C272.175 279.032 270.763 276.748 268.484 276.21C266.204 275.672 263.921 277.084 263.383 279.363C262.845 281.642 264.256 283.926 266.536 284.464C268.815 285.002 271.099 283.591 271.637 281.311Z" fill="url(#paint8_linear_372_6993)"/>
<path d="M252.635 298.268C253.939 297.728 254.558 296.234 254.018 294.93C253.478 293.627 251.983 293.008 250.68 293.548C249.376 294.088 248.757 295.582 249.297 296.886C249.837 298.189 251.332 298.808 252.635 298.268Z" fill="url(#paint9_linear_372_6993)"/>
<path d="M100.646 32.5126C102.574 32.5126 104.137 30.9496 104.137 29.0215C104.137 27.0934 102.574 25.5304 100.646 25.5304C98.7176 25.5304 97.1545 27.0934 97.1545 29.0215C97.1545 30.9496 98.7176 32.5126 100.646 32.5126Z" fill="url(#paint10_linear_372_6993)"/>
<path d="M42.564 91.9107C42.8686 90.0068 41.5721 88.2165 39.6683 87.9119C37.7644 87.6073 35.9741 88.9038 35.6695 90.8076C35.3649 92.7115 36.6613 94.5018 38.5652 94.8064C40.469 95.111 42.2594 93.8146 42.564 91.9107Z" fill="url(#paint11_linear_372_6993)"/>
<path d="M94.5149 19.2513C97.9009 19.2513 100.646 16.5064 100.646 13.1204C100.646 9.73439 97.9009 6.9895 94.5149 6.9895C91.1289 6.9895 88.384 9.73439 88.384 13.1204C88.384 16.5064 91.1289 19.2513 94.5149 19.2513Z" fill="url(#paint12_linear_372_6993)"/>
<path d="M28.8069 106.251C30.0376 106.251 31.0352 105.253 31.0352 104.023C31.0352 102.792 30.0376 101.794 28.8069 101.794C27.5763 101.794 26.5786 102.792 26.5786 104.023C26.5786 105.253 27.5763 106.251 28.8069 106.251Z" fill="url(#paint13_linear_372_6993)"/>
<path d="M73.9626 41.5101C75.1928 41.5101 76.1901 40.5128 76.1901 39.2826C76.1901 38.0523 75.1928 37.0551 73.9626 37.0551C72.7324 37.0551 71.7351 38.0523 71.7351 39.2826C71.7351 40.5128 72.7324 41.5101 73.9626 41.5101Z" fill="url(#paint14_linear_372_6993)"/>
<path d="M15.6038 104.023C20.2258 104.023 23.9727 100.276 23.9727 95.6537C23.9727 91.0317 20.2258 87.2848 15.6038 87.2848C10.9818 87.2848 7.23486 91.0317 7.23486 95.6537C7.23486 100.276 10.9818 104.023 15.6038 104.023Z" fill="url(#paint15_linear_372_6993)"/>
<path d="M53.7791 232.697C58.4011 232.697 62.148 228.95 62.148 224.328C62.148 219.706 58.4011 215.959 53.7791 215.959C49.1571 215.959 45.4102 219.706 45.4102 224.328C45.4102 228.95 49.1571 232.697 53.7791 232.697Z" fill="url(#paint16_linear_372_6993)"/>
<path d="M68.8467 207.184C70.9161 207.184 72.5937 205.507 72.5937 203.437C72.5937 201.368 70.9161 199.69 68.8467 199.69C66.7772 199.69 65.0996 201.368 65.0996 203.437C65.0996 205.507 66.7772 207.184 68.8467 207.184Z" fill="url(#paint17_linear_372_6993)"/>
<path d="M102.119 139.557C101.69 139.419 101.253 139.284 100.809 139.152C99.6952 138.824 98.5724 138.527 97.4422 138.261C85.57 135.466 69.6592 135.386 53.0323 145.898C53.0323 145.898 52.0206 146.634 50.4403 148.097C49.8059 152.972 49.4888 157.884 49.491 162.8C49.491 165.318 49.572 167.816 49.734 170.294C49.7631 170.75 49.7958 171.204 49.832 171.658C50.328 178.053 51.3716 184.394 52.9513 190.612C68.4652 189.113 74.2632 183.534 74.2632 183.534C74.2632 183.534 79.593 182.422 86.3233 174.147C85.3919 173.807 84.5491 173.261 83.8576 172.55C83.1661 171.84 82.6438 170.982 82.3294 170.042C82.015 169.102 81.9167 168.102 82.0418 167.119C82.1669 166.135 82.5121 165.192 83.0518 164.361C83.5915 163.529 84.3118 162.829 85.1591 162.314C86.0064 161.799 86.9589 161.482 87.9458 161.386C88.9327 161.29 89.9285 161.418 90.8593 161.759C91.79 162.101 92.6317 162.649 93.3217 163.361C93.8142 162.429 94.3064 161.455 94.7983 160.437C104.799 139.73 117.392 146.774 117.648 146.919C117.474 146.795 111.542 142.545 102.119 139.557ZM76.788 174.625C76.6901 175.185 76.4286 175.702 76.0364 176.113C75.6443 176.523 75.1392 176.809 74.585 176.932C74.0308 177.055 73.4525 177.012 72.9232 176.806C72.3939 176.601 71.9374 176.243 71.6114 175.778C71.2854 175.314 71.1047 174.762 71.092 174.195C71.0793 173.627 71.2353 173.069 71.5401 172.59C71.845 172.111 72.2851 171.733 72.8047 171.504C73.3243 171.275 73.9001 171.206 74.4592 171.304C75.2082 171.436 75.8742 171.86 76.3108 172.483C76.7475 173.106 76.9191 173.876 76.788 174.625Z" fill="url(#paint18_linear_372_6993)"/>
<path d="M105.948 145.141C105.913 145.261 105.832 145.363 105.723 145.424C105.613 145.484 105.484 145.499 105.363 145.465C105.331 145.454 103.535 144.949 100.463 144.755C97.6179 144.575 93.0633 144.635 87.5278 145.939C86.6675 146.141 85.7701 146.379 84.8353 146.654C84.7823 146.703 84.7186 146.74 84.6493 146.76C84.5799 146.781 84.5066 146.786 84.4352 146.774C82.6056 147.333 80.8066 147.987 79.0454 148.735L96.2369 153.352C96.3518 153.389 96.448 153.469 96.5057 153.575C96.5635 153.681 96.5783 153.806 96.5471 153.922C96.516 154.039 96.4413 154.14 96.3384 154.203C96.2354 154.266 96.1122 154.288 95.9939 154.263L77.8053 149.382C77.7649 149.371 77.726 149.355 77.6895 149.334C74.2324 150.902 70.4943 152.999 66.582 155.799L67.4357 156.056C76.0671 158.655 76.404 158.757 83.0306 161.738C83.0896 161.761 83.1432 161.797 83.1881 161.842C83.2331 161.887 83.2685 161.94 83.2922 161.999C83.316 162.058 83.3276 162.121 83.3264 162.185C83.3251 162.248 83.3111 162.311 83.2851 162.369C83.259 162.427 83.2216 162.479 83.1749 162.522C83.1283 162.565 83.0734 162.599 83.0135 162.62C82.9537 162.642 82.8902 162.651 82.8267 162.647C82.7633 162.643 82.7012 162.627 82.6443 162.599L67.1635 156.959L65.772 156.536C65.7264 156.522 65.6832 156.502 65.644 156.475C60.5693 160.227 55.2209 165.164 49.8312 171.658C49.7955 171.204 49.7629 170.75 49.7332 170.295C51.5254 168.17 53.3528 166.166 55.2152 164.283L57.8882 149.099C57.8969 149.036 57.9182 148.976 57.9507 148.922C57.9833 148.867 58.0264 148.82 58.0777 148.782C58.1289 148.745 58.1871 148.718 58.2488 148.704C58.3106 148.69 58.3746 148.688 58.4371 148.699C58.4995 148.71 58.5591 148.733 58.6124 148.767C58.6656 148.802 58.7114 148.847 58.747 148.899C58.7825 148.952 58.8071 149.011 58.8194 149.073C58.8316 149.135 58.8312 149.199 58.8181 149.261L56.3881 163.076C60.3733 159.215 64.4622 155.895 68.6701 153.16C68.7317 153.122 68.8046 153.084 68.8662 153.045C68.811 152.954 68.7866 152.848 68.7965 152.743L70.3663 143.817C70.375 143.754 70.3962 143.694 70.4288 143.64C70.4613 143.585 70.5045 143.538 70.5557 143.5C70.6069 143.463 70.6651 143.436 70.7269 143.422C70.7886 143.408 70.8526 143.406 70.9151 143.417C70.9776 143.428 71.0372 143.451 71.0904 143.485C71.1437 143.52 71.1894 143.565 71.225 143.617C71.2606 143.67 71.2852 143.729 71.2974 143.791C71.3096 143.853 71.3092 143.917 71.2962 143.979L69.8098 152.424C74.541 149.508 79.3678 147.291 84.2521 145.826L88.2697 140.23C88.3424 140.129 88.4526 140.06 88.576 140.039C88.6995 140.019 88.826 140.048 88.9278 140.121C89.0297 140.193 89.0984 140.304 89.119 140.427C89.1396 140.55 89.1103 140.677 89.0376 140.779L85.7304 145.417C86.2779 145.269 86.8268 145.13 87.3771 145.001C93.0252 143.679 97.6746 143.624 100.58 143.812C103.745 144.016 105.553 144.532 105.628 144.553C105.688 144.571 105.743 144.6 105.792 144.639C105.84 144.678 105.88 144.726 105.91 144.781C105.94 144.835 105.958 144.895 105.965 144.957C105.971 145.019 105.966 145.081 105.948 145.141Z" fill="url(#paint19_linear_372_6993)"/>
<path opacity="0.11" d="M58.0706 189.922L52.9506 190.613C51.3709 184.395 50.3273 178.054 49.8313 171.659C49.7956 171.205 49.7629 170.75 49.7332 170.295C49.5712 167.818 49.4902 165.32 49.4902 162.801C49.4888 157.886 49.8065 152.977 50.4412 148.103L54.3794 145.076C54.3794 145.076 49.9608 168.133 58.0706 189.922Z" fill="black"/>
<path d="M217.242 116.022V261.169C214.694 262.605 212.085 263.943 209.416 265.183L209.375 265.202V118.964C209.375 118.833 209.368 118.701 209.354 118.571V115.453H186.795L182.402 119.848H142.168L137.241 115.453H114.642V265.194C111.969 263.952 109.354 262.611 106.799 261.171V116.022C106.799 114.909 107.018 113.807 107.444 112.778C107.87 111.75 108.494 110.816 109.281 110.029C110.068 109.242 111.003 108.618 112.031 108.192C113.059 107.766 114.161 107.547 115.274 107.547H208.765C209.879 107.547 210.981 107.766 212.009 108.192C213.038 108.617 213.972 109.242 214.759 110.029C215.546 110.816 216.171 111.75 216.597 112.778C217.023 113.807 217.242 114.909 217.242 116.022Z" fill="#5572FF"/>
<path d="M209.436 115.788L209.429 169.153V190.471L209.418 265.183L209.378 265.202C208.443 265.634 207.503 266.055 206.556 266.464C204.965 267.149 203.356 267.797 201.729 268.408C197.211 270.11 192.588 271.517 187.888 272.62C179.409 274.609 170.729 275.61 162.021 275.604C145.121 275.604 129.09 271.884 114.702 265.217V114.229H137.301L142.229 118.623H182.462L186.856 114.229H193.787L206.078 115.453L209.353 115.777L209.436 115.788Z" fill="url(#paint20_linear_372_6993)"/>
<path d="M155.708 222.393L201.726 268.411C197.209 270.113 192.585 271.52 187.885 272.623L146.681 231.417L114.7 263.397L114.685 263.412L114.534 234.09L114.696 233.928L128.797 219.827L114.7 205.724L114.538 205.562V199.498L114.7 199.66L131.833 216.793L151.45 197.177L114.7 160.16V134.722L128.037 148.68L158.54 118.179H166.77L166.325 118.624L132.152 152.798L163.991 184.636L209.375 139.252L209.429 169.155L166.186 211.915L155.708 222.393Z" fill="#D2C7FF"/>
<path d="M209.436 175.527L209.426 190.472L209.375 265.204C208.441 265.636 207.5 266.056 206.553 266.466L162.526 222.437L209.436 175.527ZM114.7 165.621L146.105 197.026L132.169 210.96L114.536 193.328L114.7 165.621Z" fill="#A1EA9D"/>
<path opacity="0.11" d="M217.242 254.347V261.169C214.694 262.605 212.085 263.943 209.416 265.183L209.375 265.202C194.978 271.88 178.934 275.607 162.019 275.607C145.119 275.607 129.087 271.887 114.7 265.22L114.639 265.192C111.966 263.95 109.352 262.609 106.796 261.169V254.347C106.796 254.347 162.878 288.742 217.242 254.347Z" fill="black"/>
<path d="M319.125 94.428C319.665 93.1245 319.046 91.6301 317.743 91.0901C316.439 90.5502 314.945 91.1692 314.405 92.4727C313.865 93.7763 314.484 95.2707 315.788 95.8107C317.091 96.3506 318.586 95.7316 319.125 94.428Z" fill="#FF0000"/>
<path d="M9.11096 258.86C10.483 258.531 11.3287 257.152 10.9998 255.78C10.6709 254.408 9.29198 253.562 7.91991 253.891C6.54783 254.22 5.70217 255.599 6.03107 256.971C6.35997 258.343 7.73888 259.189 9.11096 258.86Z" fill="#FF0000"/>
<mask id="mask0_372_6993" style="mask-type:luminance" maskUnits="userSpaceOnUse" x="248" y="93" width="65" height="80">
<path style="mix-blend-mode:multiply" d="M248.096 93.9089H312.88V172.286H248.096V93.9089Z" fill="url(#paint21_linear_372_6993)"/>
</mask>
<g mask="url(#mask0_372_6993)">
<path opacity="0.54" d="M248.096 93.9089H312.88V172.286H248.096V93.9089Z" fill="url(#paint22_linear_372_6993)"/>
</g>
<mask id="mask1_372_6993" style="mask-type:luminance" maskUnits="userSpaceOnUse" x="11" y="256" width="66" height="67">
<path style="mix-blend-mode:multiply" d="M11.085 256.371H76.8327V322.119H11.085V256.371Z" fill="url(#paint23_linear_372_6993)"/>
</mask>
<g mask="url(#mask1_372_6993)">
<path opacity="0.54" d="M11.085 256.371H76.8327V322.119H11.085V256.371Z" fill="url(#paint24_linear_372_6993)"/>
</g>
<path d="M81.6544 256.898H8.53003V255.845H81.2178L132.04 205.023L132.784 205.767L81.6544 256.898ZM182.283 152.908L181.539 152.163L240.779 92.924H316.765V93.977H241.215L182.283 152.908Z" fill="#FF0000"/>
<path opacity="0.1" d="M162.878 183.002C179.704 183.002 193.344 169.362 193.344 152.536C193.344 135.71 179.704 122.07 162.878 122.07C146.052 122.07 132.412 135.71 132.412 152.536C132.412 169.362 146.052 183.002 162.878 183.002Z" fill="#FFD41F"/>
<path opacity="0.2" d="M176.337 165.994C183.77 158.561 183.77 146.51 176.337 139.077C168.904 131.644 156.853 131.644 149.42 139.077C141.987 146.51 141.987 158.561 149.42 165.994C156.853 173.427 168.904 173.427 176.337 165.994Z" fill="#FFD41F"/>
<path opacity="0.54" d="M170.269 159.926C174.351 155.845 174.351 149.227 170.269 145.145C166.187 141.063 159.569 141.063 155.488 145.145C151.406 149.227 151.406 155.845 155.488 159.926C159.569 164.008 166.187 164.008 170.269 159.926Z" fill="#FFD41F"/>
<path d="M165.946 155.603C167.64 153.909 167.64 151.162 165.946 149.468C164.252 147.774 161.505 147.774 159.811 149.468C158.116 151.162 158.116 153.909 159.811 155.603C161.505 157.298 164.252 157.298 165.946 155.603Z" fill="#FFD41F"/>
<path opacity="0.11" d="M162.878 152.536L201.125 107.547H123.977L162.878 152.536Z" fill="black"/>
<path opacity="0.42" d="M21.2974 264.079H66.6209V265.051H21.2974V264.079ZM257.826 101.309H303.15V102.281H257.826V101.309ZM257.826 106.295H303.15V107.267H257.826V106.295ZM257.826 111.283H303.15V112.255H257.826V111.283ZM257.826 116.27H303.15V117.242H257.826V116.27ZM257.826 121.256H303.15V122.228H257.826V121.256ZM257.826 126.243H303.15V127.215H257.826V126.243ZM257.826 131.23H303.15V132.202H257.826V131.23ZM257.826 136.218H303.15V137.19H257.826V136.218ZM257.826 141.204H303.15V142.176H257.826V141.204ZM257.826 146.191H303.15V147.163H257.826V146.191ZM257.826 151.178H303.15V152.15H257.826V151.178ZM257.826 156.166H303.15V157.138H257.826V156.166ZM257.826 161.152H303.15V162.124H257.826V161.152ZM257.826 166.139H303.15V167.111H257.826V166.139ZM21.2974 268.823H66.6209V269.795H21.2974V268.823ZM21.2974 273.567H66.6209V274.539H21.2974V273.567ZM21.2974 278.31H66.6209V279.282H21.2974V278.31ZM21.2974 283.054H66.6209V284.026H21.2974V283.054ZM21.2974 287.799H66.6209V288.771H21.2974V287.799ZM21.2974 292.542H66.6209V293.514H21.2974V292.542ZM21.2974 297.286H66.6209V298.258H21.2974V297.286ZM21.2974 302.03H66.6209V303.002H21.2974V302.03ZM21.2974 306.774H66.6209V307.746H21.2974V306.774ZM21.2974 311.518H66.6209V312.49H21.2974V311.518Z" fill="white"/>
<path opacity="0.11" d="M201.123 107.547H123.976C123.976 107.547 105.237 91.2149 104.137 67.6439C104.137 67.6439 104.52 66.9149 105.218 65.6027C117.745 58.2711 131.578 53.4462 145.946 51.397C145.946 63.2967 152.383 75.974 161.984 75.974C171.586 75.974 178.017 63.2853 178.017 51.3856C192.723 53.474 206.866 58.4677 219.623 66.0758C223.236 84.773 201.123 107.547 201.123 107.547Z" fill="black"/>
<path d="M167.067 21.7128C165.396 21.5434 163.719 21.4585 162.04 21.4585C161.554 21.4585 161.071 21.4655 160.592 21.4796C126.59 22.4645 106.499 60.0761 124.207 89.1146L135.444 107.544L139.553 114.281L162.881 152.533L185.835 113.581L200.592 88.5411C216.999 60.703 199.216 24.9796 167.067 21.7128ZM154.621 45.4726C156.979 44.5239 159.498 44.038 162.04 44.0413C173.014 44.0413 181.912 52.9383 181.912 63.913C181.912 74.8877 173.016 83.7848 162.04 83.7848C159.43 83.7853 156.846 83.2717 154.435 82.2732C152.023 81.2747 149.833 79.811 147.987 77.9657C146.142 76.1203 144.678 73.9294 143.68 71.5182C142.681 69.1071 142.168 66.5228 142.168 63.913C142.168 55.5611 147.321 48.4121 154.621 45.4726Z" fill="#FF314F"/>
<mask id="mask2_372_6993" style="mask-type:luminance" maskUnits="userSpaceOnUse" x="117" y="21" width="46" height="87">
<path style="mix-blend-mode:multiply" d="M162.04 21.4585L154.621 45.4726C147.321 48.4121 142.168 55.5611 142.168 63.913C142.161 67.8434 143.326 71.6865 145.514 74.9517L135.444 107.547L124.207 89.1178C106.499 60.0761 126.59 22.4645 160.592 21.4828C161.073 21.4666 161.555 21.4585 162.04 21.4585Z" fill="url(#paint25_linear_372_6993)"/>
</mask>
<g mask="url(#mask2_372_6993)">
<path opacity="0.54" d="M162.04 21.4585L154.621 45.4726C147.321 48.4121 142.168 55.5611 142.168 63.913C142.161 67.8434 143.326 71.6865 145.514 74.9517L135.444 107.547L124.207 89.1178C106.499 60.0761 126.59 22.4645 160.592 21.4828C161.073 21.4666 161.555 21.4585 162.04 21.4585Z" fill="url(#paint26_linear_372_6993)"/>
</g>
<mask id="mask3_372_6993" style="mask-type:luminance" maskUnits="userSpaceOnUse" x="162" y="21" width="45" height="88">
<path style="mix-blend-mode:multiply" d="M162.4 21.4585L169.819 45.4726C177.119 48.4121 182.272 55.5611 182.272 63.913C182.279 67.843 181.116 71.6862 178.929 74.9517L188.649 108.802L200.232 89.1194C217.94 60.0777 197.849 22.4661 163.848 21.4844C163.367 21.4671 162.885 21.4585 162.4 21.4585Z" fill="url(#paint27_linear_372_6993)"/>
</mask>
<g mask="url(#mask3_372_6993)">
<path opacity="0.28" d="M162.4 21.4585L169.819 45.4726C177.119 48.4121 182.272 55.5611 182.272 63.913C182.279 67.843 181.116 71.6862 178.929 74.9517L188.649 108.802L200.232 89.1194C217.94 60.0777 197.849 22.4661 163.848 21.4844C163.367 21.4671 162.885 21.4585 162.4 21.4585Z" fill="url(#paint28_linear_372_6993)"/>
</g>
<mask id="mask4_372_6993" style="mask-type:luminance" maskUnits="userSpaceOnUse" x="142" y="119" width="41" height="34">
<path style="mix-blend-mode:multiply" d="M162.878 152.536L182.236 119.848H142.945L162.878 152.536Z" fill="url(#paint29_linear_372_6993)"/>
</mask>
<g mask="url(#mask4_372_6993)">
<path opacity="0.54" d="M162.878 152.536L182.236 119.848H142.945L162.878 152.536Z" fill="url(#paint30_linear_372_6993)"/>
</g>
</g>
</g>
<defs>
<linearGradient id="paint0_linear_372_6993" x1="90.448" y1="105.143" x2="59.0702" y2="47.9244" gradientUnits="userSpaceOnUse">
<stop stop-color="#36ABAE"/>
<stop offset="1" stop-color="#55FFC4"/>
</linearGradient>
<linearGradient id="paint1_linear_372_6993" x1="75.1932" y1="83.1959" x2="41.9694" y2="33.3606" gradientUnits="userSpaceOnUse">
<stop stop-color="#3695AE"/>
<stop offset="1" stop-color="#55FFC4"/>
</linearGradient>
<linearGradient id="paint2_linear_372_6993" x1="221.222" y1="134.369" x2="308.589" y2="302.026" gradientUnits="userSpaceOnUse">
<stop stop-color="#A789FF"/>
<stop offset="1" stop-color="#DAECD7"/>
</linearGradient>
<linearGradient id="paint3_linear_372_6993" x1="242.891" y1="188.494" x2="316.721" y2="288.164" gradientUnits="userSpaceOnUse">
<stop stop-color="#9870E6"/>
<stop offset="1" stop-color="#DAECD7"/>
</linearGradient>
<linearGradient id="paint4_linear_372_6993" x1="162.019" y1="50.2589" x2="162.019" y2="275.607" gradientUnits="userSpaceOnUse">
<stop stop-color="#F3F4F6"/>
<stop offset="1" stop-color="white"/>
</linearGradient>
<linearGradient id="paint5_linear_372_6993" x1="15.8323" y1="97.9875" x2="152.879" y2="-1.68377" gradientUnits="userSpaceOnUse">
<stop stop-color="#36ABAE"/>
<stop offset="1" stop-color="#55FFC4"/>
</linearGradient>
<linearGradient id="paint6_linear_372_6993" x1="321.967" y1="215.761" x2="296.676" y2="202.143" gradientUnits="userSpaceOnUse">
<stop stop-color="#A789FF"/>
<stop offset="1" stop-color="#DAECD7"/>
</linearGradient>
<linearGradient id="paint7_linear_372_6993" x1="251.083" y1="317.635" x2="233.721" y2="305.314" gradientUnits="userSpaceOnUse">
<stop stop-color="#A789FF"/>
<stop offset="1" stop-color="#DAECD7"/>
</linearGradient>
<linearGradient id="paint8_linear_372_6993" x1="274.199" y1="285.105" x2="259.894" y2="274.954" gradientUnits="userSpaceOnUse">
<stop stop-color="#A789FF"/>
<stop offset="1" stop-color="#DAECD7"/>
</linearGradient>
<linearGradient id="paint9_linear_372_6993" x1="255.694" y1="298.773" x2="247.078" y2="292.658" gradientUnits="userSpaceOnUse">
<stop stop-color="#A789FF"/>
<stop offset="1" stop-color="#DAECD7"/>
</linearGradient>
<linearGradient id="paint10_linear_372_6993" x1="29.6709" y1="80.6396" x2="166.718" y2="-19.031" gradientUnits="userSpaceOnUse">
<stop stop-color="#36ABAE"/>
<stop offset="1" stop-color="#55FFC4"/>
</linearGradient>
<linearGradient id="paint11_linear_372_6993" x1="-31.8645" y1="142.98" x2="105.182" y2="43.31" gradientUnits="userSpaceOnUse">
<stop stop-color="#36ABAE"/>
<stop offset="1" stop-color="#55FFC4"/>
</linearGradient>
<linearGradient id="paint12_linear_372_6993" x1="99.7232" y1="21.1191" x2="86.8029" y2="1.27738" gradientUnits="userSpaceOnUse">
<stop stop-color="#36ABAE"/>
<stop offset="1" stop-color="#55FFC4"/>
</linearGradient>
<linearGradient id="paint13_linear_372_6993" x1="26.5786" y1="104.023" x2="31.0344" y2="104.023" gradientUnits="userSpaceOnUse">
<stop stop-color="#36ABAE"/>
<stop offset="1" stop-color="#55FFC4"/>
</linearGradient>
<linearGradient id="paint14_linear_372_6993" x1="71.7343" y1="39.2826" x2="76.1901" y2="39.2826" gradientUnits="userSpaceOnUse">
<stop stop-color="#36ABAE"/>
<stop offset="1" stop-color="#55FFC4"/>
</linearGradient>
<linearGradient id="paint15_linear_372_6993" x1="7.23486" y1="95.6537" x2="23.9727" y2="95.6537" gradientUnits="userSpaceOnUse">
<stop stop-color="#36ABAE"/>
<stop offset="1" stop-color="#55FFC4"/>
</linearGradient>
<linearGradient id="paint16_linear_372_6993" x1="45.4102" y1="224.328" x2="62.148" y2="224.328" gradientUnits="userSpaceOnUse">
<stop stop-color="#36ABAE"/>
<stop offset="1" stop-color="#55FFC4"/>
</linearGradient>
<linearGradient id="paint17_linear_372_6993" x1="6.501" y1="248.779" x2="143.549" y2="149.108" gradientUnits="userSpaceOnUse">
<stop stop-color="#36ABAE"/>
<stop offset="1" stop-color="#55FFC4"/>
</linearGradient>
<linearGradient id="paint18_linear_372_6993" x1="20.3504" y1="178.745" x2="112.193" y2="148.621" gradientUnits="userSpaceOnUse">
<stop stop-color="#36ABAE"/>
<stop offset="1" stop-color="#55FFC4"/>
</linearGradient>
<linearGradient id="paint19_linear_372_6993" x1="84.2359" y1="166.383" x2="62.5441" y2="138.55" gradientUnits="userSpaceOnUse">
<stop stop-color="#9870E6"/>
<stop offset="1" stop-color="#DAECD7"/>
</linearGradient>
<linearGradient id="paint20_linear_372_6993" x1="114.7" y1="194.918" x2="209.436" y2="194.918" gradientUnits="userSpaceOnUse">
<stop offset="0.01" stop-color="#FBFAFA"/>
<stop offset="0.49" stop-color="#F9F8F8"/>
<stop offset="1" stop-color="white"/>
</linearGradient>
<linearGradient id="paint21_linear_372_6993" x1="280.488" y1="177.797" x2="280.488" y2="99.4194" gradientUnits="userSpaceOnUse">
<stop/>
<stop offset="0.17" stop-color="#2F2F2F"/>
<stop offset="0.58" stop-color="#9E9E9E"/>
<stop offset="0.87" stop-color="#E4E4E4"/>
<stop offset="1" stop-color="white"/>
</linearGradient>
<linearGradient id="paint22_linear_372_6993" x1="280.488" y1="177.797" x2="280.488" y2="99.4194" gradientUnits="userSpaceOnUse">
<stop stop-color="white"/>
<stop offset="0.41" stop-color="#FFB8B4"/>
<stop offset="0.81" stop-color="#FF766F"/>
<stop offset="1" stop-color="#FF5C54"/>
</linearGradient>
<linearGradient id="paint23_linear_372_6993" x1="43.9588" y1="332.459" x2="43.9588" y2="260.818" gradientUnits="userSpaceOnUse">
<stop/>
<stop offset="0.17" stop-color="#2F2F2F"/>
<stop offset="0.58" stop-color="#9E9E9E"/>
<stop offset="0.87" stop-color="#E4E4E4"/>
<stop offset="1" stop-color="white"/>
</linearGradient>
<linearGradient id="paint24_linear_372_6993" x1="43.9588" y1="332.459" x2="43.9588" y2="260.818" gradientUnits="userSpaceOnUse">
<stop stop-color="white"/>
<stop offset="0.41" stop-color="#FFB8B4"/>
<stop offset="0.81" stop-color="#FF766F"/>
<stop offset="1" stop-color="#FF5C54"/>
</linearGradient>
<linearGradient id="paint25_linear_372_6993" x1="157.429" y1="67.7581" x2="121.361" y2="54.2416" gradientUnits="userSpaceOnUse">
<stop/>
<stop offset="0.17" stop-color="#2F2F2F"/>
<stop offset="0.58" stop-color="#9E9E9E"/>
<stop offset="0.87" stop-color="#E4E4E4"/>
<stop offset="1" stop-color="white"/>
</linearGradient>
<linearGradient id="paint26_linear_372_6993" x1="157.429" y1="67.7581" x2="121.361" y2="54.2416" gradientUnits="userSpaceOnUse">
<stop stop-color="#FF0036"/>
<stop offset="0.17" stop-color="#FF2F5B"/>
<stop offset="0.58" stop-color="#FF9EB2"/>
<stop offset="0.87" stop-color="#FFE4E9"/>
<stop offset="1" stop-color="white"/>
</linearGradient>
<linearGradient id="paint27_linear_372_6993" x1="164.682" y1="68.4847" x2="202.304" y2="56.8466" gradientUnits="userSpaceOnUse">
<stop/>
<stop offset="0.09" stop-color="#070707"/>
<stop offset="0.22" stop-color="#191919"/>
<stop offset="0.36" stop-color="#373737"/>
<stop offset="0.53" stop-color="#616161"/>
<stop offset="0.71" stop-color="#979797"/>
<stop offset="0.89" stop-color="#D7D7D7"/>
<stop offset="1" stop-color="white"/>
</linearGradient>
<linearGradient id="paint28_linear_372_6993" x1="164.682" y1="68.4847" x2="202.304" y2="56.8466" gradientUnits="userSpaceOnUse">
<stop stop-color="#FF0036"/>
<stop offset="0.09" stop-color="#F80035"/>
<stop offset="0.22" stop-color="#E60031"/>
<stop offset="0.36" stop-color="#C8002A"/>
<stop offset="0.53" stop-color="#9E0022"/>
<stop offset="0.71" stop-color="#680016"/>
<stop offset="0.89" stop-color="#280008"/>
<stop offset="1"/>
</linearGradient>
<linearGradient id="paint29_linear_372_6993" x1="162.591" y1="115.803" x2="162.591" y2="149.358" gradientUnits="userSpaceOnUse">
<stop/>
<stop offset="0.17" stop-color="#2F2F2F"/>
<stop offset="0.58" stop-color="#9E9E9E"/>
<stop offset="0.87" stop-color="#E4E4E4"/>
<stop offset="1" stop-color="white"/>
</linearGradient>
<linearGradient id="paint30_linear_372_6993" x1="162.591" y1="115.803" x2="162.591" y2="149.358" gradientUnits="userSpaceOnUse">
<stop stop-color="#FF0036"/>
<stop offset="0.17" stop-color="#FF2F5B"/>
<stop offset="0.58" stop-color="#FF9EB2"/>
<stop offset="0.87" stop-color="#FFE4E9"/>
<stop offset="1" stop-color="white"/>
</linearGradient>
<clipPath id="clip0_372_6993">
<rect width="324" height="324" fill="white"/>
</clipPath>
<clipPath id="clip1_372_6993">
<rect width="324" height="324" fill="white"/>
</clipPath>
</defs>
</svg>
