<svg width="306" height="194" viewBox="0 0 306 194" fill="none" xmlns="http://www.w3.org/2000/svg">
<path d="M277.303 105.49L273.916 157.837C273.691 161.306 270.765 164.007 267.226 164.007H39.0078C35.1389 164.007 32.0734 160.794 32.3179 156.999L35.7054 104.656C35.8801 101.963 37.6845 99.7317 40.1408 98.8701C40.1136 99.0487 40.0942 99.2349 40.0826 99.4212L36.7532 151.764C36.5126 155.559 39.5277 158.772 43.3305 158.772H267.668C271.141 158.772 274.021 156.071 274.242 152.602L277.296 104.563C277.323 104.865 277.323 105.176 277.303 105.49Z" fill="#111827"/>
<path d="M277.571 100.256L277.296 104.563L274.242 152.602C274.021 156.071 271.141 158.772 267.668 158.772H43.3305C39.5277 158.772 36.5126 155.559 36.7532 151.764L40.0825 99.4214C40.0942 99.2351 40.1136 99.0489 40.1408 98.8703C40.6142 95.669 43.3692 93.2515 46.6598 93.2515H270.998C274.801 93.2515 277.812 96.4606 277.571 100.256Z" fill="white" stroke="#111827" stroke-width="0.776081" stroke-linecap="round" stroke-linejoin="round"/>
<path d="M249.729 113.198C249.856 112.318 250.098 111.242 250.562 110.073C250.823 109.416 251.111 108.837 251.395 108.336M252.576 115.768C253.655 114.947 255.112 114.001 256.952 113.198C258.363 112.583 259.669 112.197 260.772 111.948M256.188 119.727C256.725 119.627 257.561 119.541 258.549 119.727C259.952 119.991 260.922 120.664 261.397 121.047" stroke="#111827" stroke-width="0.776081" stroke-linecap="round" stroke-linejoin="round"/>
<path d="M71.3811 135.067L63.001 131.107L64.649 130.156L71.3811 135.067Z" fill="#111827"/>
<path d="M58.6838 125.746L58.3501 127.461L51.9387 120.848C55.2021 123.526 55.4203 123.068 58.6838 125.746Z" fill="#111827"/>
<path d="M65.2749 109.691L68.1437 118.52C68.2308 118.788 68.4805 118.97 68.7622 118.97H78.0459C78.6759 118.97 78.9379 119.776 78.4282 120.146L70.9175 125.603C70.6895 125.769 70.5942 126.062 70.6812 126.33L73.5501 135.16C73.7448 135.759 73.059 136.257 72.5493 135.887L65.0386 130.43C64.8107 130.264 64.502 130.264 64.2741 130.43L56.7634 135.887C56.2537 136.257 55.568 135.759 55.7626 135.16L58.6315 126.33C58.7185 126.062 58.6232 125.769 58.3952 125.603L50.8846 120.146C50.3749 119.776 50.6368 118.97 51.2668 118.97H60.5505C60.8323 118.97 61.082 118.788 61.169 118.52L64.0378 109.691C64.2325 109.092 65.0802 109.092 65.2749 109.691Z" fill="#10B981"/>
<path d="M115.341 135.067L106.961 131.107L108.61 130.157L115.341 135.067Z" fill="#111827"/>
<path d="M102.644 125.746L102.31 127.462L95.8989 120.849C99.1623 123.526 99.3805 123.069 102.644 125.746Z" fill="#111827"/>
<path d="M109.235 109.691L112.104 118.52C112.191 118.788 112.441 118.97 112.723 118.97H122.006C122.636 118.97 122.898 119.776 122.389 120.146L114.878 125.603C114.65 125.769 114.555 126.062 114.642 126.33L117.511 135.16C117.705 135.759 117.019 136.257 116.51 135.887L108.999 130.43C108.771 130.264 108.462 130.264 108.235 130.43L100.724 135.887C100.214 136.257 99.5284 135.759 99.7231 135.16L102.592 126.33C102.679 126.062 102.584 125.769 102.356 125.603L94.845 120.146C94.3353 119.776 94.5973 118.97 95.2273 118.97H104.511C104.793 118.97 105.042 118.788 105.129 118.52L107.998 109.691C108.193 109.092 109.041 109.092 109.235 109.691Z" fill="#10B981"/>
<path d="M157.559 135.02L149.179 131.133L150.827 130.182L157.559 135.02Z" fill="#111827"/>
<path d="M144.908 125.867L144.574 127.582L138.2 120.969C141.554 123.451 141.644 123.189 144.908 125.867Z" fill="#111827"/>
<path d="M151.395 109.691L154.264 118.52C154.351 118.788 154.601 118.97 154.883 118.97H164.166C164.796 118.97 165.058 119.776 164.549 120.146L157.038 125.603C156.81 125.769 156.715 126.062 156.802 126.33L159.67 135.16C159.865 135.759 159.179 136.257 158.67 135.887L151.159 130.43C150.931 130.264 150.622 130.264 150.394 130.43L142.884 135.887C142.374 136.257 141.688 135.759 141.883 135.16L144.752 126.33C144.839 126.062 144.744 125.769 144.516 125.603L137.005 120.146C136.495 119.776 136.757 118.97 137.387 118.97H146.671C146.953 118.97 147.202 118.788 147.289 118.52L150.158 109.691C150.353 109.092 151.201 109.092 151.395 109.691Z" fill="#10B981"/>
<path d="M200.55 134.98L192.17 131.021L193.818 130.07L200.55 134.98Z" fill="#111827"/>
<path d="M187.985 125.838L187.652 127.553L181.24 120.94C184.504 123.618 184.722 123.161 187.985 125.838Z" fill="#111827"/>
<path d="M194.456 109.691L197.324 118.52C197.411 118.788 197.661 118.97 197.943 118.97H207.227C207.857 118.97 208.119 119.776 207.609 120.146L200.098 125.603C199.87 125.769 199.775 126.062 199.862 126.33L202.731 135.16C202.925 135.759 202.24 136.257 201.73 135.887L194.219 130.43C193.991 130.264 193.683 130.264 193.455 130.43L185.944 135.887C185.434 136.257 184.749 135.759 184.943 135.16L187.812 126.33C187.899 126.062 187.804 125.769 187.576 125.603L180.065 120.146C179.556 119.776 179.817 118.97 180.447 118.97H189.731C190.013 118.97 190.263 118.788 190.35 118.52L193.218 109.691C193.413 109.092 194.261 109.092 194.456 109.691Z" fill="#10B981"/>
<path d="M243.161 135.015L234.781 131.056L236.429 130.104L243.161 135.015Z" fill="#111827"/>
<path d="M230.449 125.824L230.116 127.539L223.798 120.926C227.061 123.604 227.186 123.147 230.449 125.824Z" fill="#111827"/>
<path d="M236.989 109.691L239.858 118.52C239.945 118.788 240.194 118.97 240.476 118.97H249.76C250.39 118.97 250.652 119.776 250.142 120.146L242.631 125.603C242.403 125.769 242.308 126.062 242.395 126.33L245.264 135.16C245.459 135.759 244.773 136.257 244.263 135.887L236.752 130.43C236.525 130.264 236.216 130.264 235.988 130.43L228.477 135.887C227.968 136.257 227.282 135.759 227.477 135.16L230.345 126.33C230.432 126.062 230.337 125.769 230.109 125.603L222.598 120.146C222.089 119.776 222.351 118.97 222.981 118.97H232.264C232.546 118.97 232.796 118.788 232.883 118.52L235.752 109.691C235.946 109.092 236.794 109.092 236.989 109.691Z" fill="#10B981"/>
<path d="M297.937 90.197C295.293 88.8807 293.757 89.103 292.843 89.5488C289.677 91.093 291.073 96.7342 287.476 99.8783C285.501 101.605 282.855 101.847 280.897 101.773M240.103 193.525C239.669 192.674 238.6 190.293 239.165 187.343C239.884 183.59 242.73 181.634 243.923 180.814C244.512 180.409 249.038 177.376 252.084 179.078C252.769 179.46 253.773 180.302 253.647 181.127C253.509 182.026 252.07 182.607 250.938 182.551C249.4 182.473 248.437 181.219 248.368 181.127C246.809 179.03 247.823 174.922 250.139 172.757C252.609 170.448 256.771 170.153 260.453 172.097M19.5448 157.859C19.0191 158.446 16.648 161.223 17.0096 165.082C17.0678 165.703 17.5096 170.419 21.0034 171.542C22.9334 172.162 25.1602 171.482 26.5251 170.083C27.7767 168.801 28.7508 166.456 27.8448 165.395C27.0286 164.439 24.9475 164.831 23.6774 165.464C21.0581 166.771 19.6838 170.208 19.9963 173.174C20.4315 177.307 24.1615 180.716 27.8448 180.884C28.9318 180.933 29.8624 180.694 30.5536 180.432M10.7586 104.135C10.1472 104.18 9.46532 104.112 8.84854 103.753C6.06973 102.132 7.74248 96.413 4.95898 94.8622C4.81262 94.7806 4.0346 94.3472 3.08368 94.5149C1.87143 94.7287 1.1831 95.7774 1 96.0777" stroke="#111827" stroke-width="0.776081" stroke-linecap="round" stroke-linejoin="round"/>
<path d="M127.445 170.917C128.341 169.74 132.445 170.276 133.939 172.584C135.377 174.805 133.833 177.789 131.925 181.474C130.591 184.052 129.492 184.93 128.383 185.294C128.059 185.4 127.006 185.73 125.813 185.329C125.494 185.222 124.213 184.793 123.972 183.87C123.733 182.954 124.712 182.319 125.882 180.606C126.524 179.666 127.931 177.606 128.07 175.258C128.219 172.744 126.804 171.759 127.445 170.917ZM12.935 119.322C13.6454 119.376 13.8599 119.979 15.2502 120.249C16.4213 120.476 17.101 120.209 17.4728 120.665C17.7957 121.061 17.6474 121.71 17.4728 122.24C16.651 124.73 15.0648 125.127 13.861 127.379C13.4418 128.164 12.1816 130.522 12.8424 132.936C13.0748 133.785 13.4532 134.306 13.1665 134.788C12.5604 135.807 9.84857 135.199 9.46215 135.112C8.28459 134.848 7.20922 134.607 6.54499 133.816C4.95194 131.919 6.83047 128.179 8.95281 123.953C11.0837 119.71 12.262 119.272 12.935 119.322ZM294.904 104.135C294.415 104.72 295.204 105.374 294.904 106.844C294.595 108.358 293.54 108.731 292.021 110.629C290.635 112.361 289.738 113.483 289.764 114.935C289.821 118.073 294.137 119.761 294.418 119.867C295.099 120.123 295.508 120.133 295.737 119.936C296.152 119.579 295.772 118.722 295.703 117.679C295.618 116.414 296.031 115.472 296.571 114.241C298.056 110.852 300.563 110.467 300.946 107.642C301.001 107.237 301.058 106.784 300.877 106.253C300.098 103.968 295.855 102.994 294.904 104.135Z" fill="#111827"/>
<path d="M188.101 67.8406C177.706 58.6352 157.764 40.8846 155.187 38.5912C155.034 38.4547 155.023 38.221 155.16 38.0685L172.657 18.6652C172.798 18.5091 173.04 18.5014 173.191 18.6483L225.089 69.3419C225.333 69.5809 225.151 69.9953 224.809 69.9762C212.648 69.2947 200.486 68.6133 188.324 67.9318C188.241 67.9271 188.163 67.8958 188.101 67.8406Z" fill="white" stroke="#111827" stroke-width="0.776081" stroke-linecap="round" stroke-linejoin="round"/>
<path d="M177.094 60.1867C188.469 58.8831 199.845 57.5795 211.221 56.2758C211.331 56.2633 211.44 56.3005 211.52 56.3773C213.349 58.1438 215.179 59.9102 217.008 61.6767C217.252 61.9123 217.077 62.3247 216.738 62.3128C203.533 61.85 190.328 61.3872 177.123 60.9243L177.094 60.1867Z" fill="#111827"/>
<path d="M154.532 38.0089L142.412 26.7067L142.4 26.1766L166.432 1.72769C166.668 1.48841 167.074 1.66047 167.066 1.9959L166.83 11.9843C166.828 12.084 166.866 12.1805 166.935 12.2518L172.633 18.0766C172.769 18.2166 172.774 18.4389 172.642 18.5839L155.059 37.9868C154.92 38.1398 154.683 38.1497 154.532 38.0089Z" fill="white" stroke="#111827" stroke-width="0.776081" stroke-linecap="round" stroke-linejoin="round"/>
<path d="M146.523 30.4379C146.939 30.2025 148.839 29.0691 149.491 26.7174C150.422 23.3579 147.918 20.7168 147.802 20.5986M168.239 12.8651C168.003 13.1054 167.596 12.9318 167.602 12.595C167.621 11.6243 167.692 10.6547 167.815 9.69166C167.96 8.5554 168.059 7.32451 168.876 6.44584C169.029 6.28098 169.207 6.12881 169.421 6.05879C169.772 5.94381 170.164 6.07189 170.466 6.28544C170.946 6.62554 171.263 7.18728 171.306 7.77463C171.346 8.33594 171.149 8.88793 170.902 9.3934C170.257 10.7099 169.271 11.8148 168.239 12.8651ZM168.196 13.1863C168.265 13.2485 168.437 13.2564 168.534 13.2772C168.669 13.3061 168.804 13.3343 168.94 13.3618C169.201 13.415 169.464 13.4657 169.726 13.5138C170.503 13.656 171.284 13.776 172.068 13.8734C172.775 13.9612 173.49 13.9923 174.2 13.9324C174.54 13.9037 174.883 13.846 175.186 13.69C175.509 13.5237 175.783 13.2288 175.845 12.8708C175.893 12.591 175.807 12.2979 175.644 12.0654C175.391 11.7049 174.97 11.4886 174.537 11.4068C174.105 11.3249 173.658 11.3647 173.223 11.4316C172.359 11.5645 171.514 11.8032 170.693 12.1016C170.28 12.2515 169.874 12.4164 169.472 12.5912C169.27 12.6787 169.07 12.7687 168.871 12.8605C168.681 12.948 168.447 13.0214 168.276 13.1408C168.25 13.1586 168.22 13.1675 168.196 13.1863Z" stroke="#111827" stroke-width="0.776081" stroke-linecap="round" stroke-linejoin="round"/>
<path d="M142.112 26.9593C140.84 25.8123 140.779 23.836 141.979 22.6133L163.084 1.3051C164.188 0.19023 165.993 0.201238 167.084 1.32951C159.134 9.54877 150.062 18.74 142.112 26.9593Z" fill="#111827"/>
<path d="M154.897 38.2651L172.723 18.1685L152.581 36.0494L154.897 38.2651Z" fill="#111827"/>
<path d="M238.413 22.4721C240.918 38.9181 243.422 55.3641 245.927 71.81C247.638 83.0492 238.949 93.178 227.581 93.1964C196.994 93.2461 166.407 93.2957 135.82 93.3454C135.618 93.3457 135.453 93.1835 135.449 92.9813C135.268 81.8106 135.087 70.64 134.906 59.4693C134.903 59.2581 135.076 59.0869 135.287 59.0934C163.308 59.949 191.329 60.8046 219.349 61.6602C219.589 61.6675 219.773 61.4475 219.722 61.2125C217.175 49.3519 214.628 37.4914 212.081 25.6308C212.036 25.4176 212.183 25.2111 212.4 25.1855C220.935 24.1771 229.469 23.1687 238.004 22.1603C238.202 22.1369 238.383 22.2748 238.413 22.4721Z" fill="white" stroke="#111827" stroke-width="0.776081" stroke-linecap="round" stroke-linejoin="round"/>
<path d="M211.938 24.8951L209.306 9.57152C209.271 9.36286 209.417 9.16672 209.627 9.14141L243.656 5.04438C243.989 5.00427 244.199 5.39256 243.984 5.64965L237.564 13.3052C237.499 13.3817 237.469 13.4808 237.479 13.58C237.75 16.2743 238.02 18.9686 238.291 21.6629C238.312 21.8673 238.162 22.0481 237.957 22.0664C229.368 22.8353 220.927 24.4359 212.338 25.2029C212.145 25.2201 211.971 25.0857 211.938 24.8951Z" fill="white" stroke="#111827" stroke-width="0.776081" stroke-linecap="round" stroke-linejoin="round"/>
<path d="M210.192 15.2013C210.664 15.2772 212.856 15.5777 214.833 14.1473C217.657 12.1041 217.35 8.47778 217.333 8.31299M238.378 14.9038C238.044 14.9441 237.834 14.5541 238.049 14.2951C238.67 13.5486 239.331 12.8355 240.028 12.1598C240.85 11.3625 241.696 10.4629 242.883 10.2862C243.106 10.2532 243.339 10.2451 243.55 10.324C243.896 10.4536 244.122 10.7981 244.225 11.1533C244.388 11.7191 244.285 12.3558 243.952 12.8412C243.633 13.305 243.134 13.6132 242.626 13.8537C241.3 14.4799 239.84 14.7274 238.378 14.9038ZM237.704 14.9067C237.719 14.9986 237.849 15.112 237.912 15.1889C237.999 15.2958 238.087 15.4023 238.176 15.5083C238.347 15.7132 238.52 15.9165 238.695 16.1181C239.213 16.7142 239.749 17.2955 240.3 17.8608C240.798 18.3708 241.337 18.8412 241.929 19.2376C242.212 19.4277 242.516 19.5967 242.851 19.664C243.207 19.7358 243.605 19.6765 243.877 19.4353C244.089 19.2469 244.205 18.964 244.222 18.6807C244.25 18.2413 244.056 17.8092 243.769 17.4752C243.482 17.1412 243.109 16.8937 242.727 16.6744C241.969 16.2386 241.159 15.8974 240.332 15.618C239.916 15.4778 239.495 15.3528 239.072 15.2383C238.86 15.181 238.648 15.1263 238.435 15.0736C238.232 15.0234 238.003 14.9347 237.795 14.921C237.764 14.919 237.735 14.9074 237.704 14.9067Z" stroke="#111827" stroke-width="0.776081" stroke-linecap="round" stroke-linejoin="round"/>
<path d="M208.937 9.42857C208.659 7.73802 209.845 6.15632 211.546 5.95035L240.996 2.35837C242.679 2.15313 244.198 3.38011 244.351 5.06828C233.01 6.52688 220.279 7.96998 208.937 9.42857Z" fill="#111827"/>
<path d="M211.996 25.2332L238.158 21.832L211.601 22.4808L211.996 25.2332Z" fill="#111827"/>
<path d="M88.0335 43.8251C87.6843 43.0432 86.9119 41.0209 87.5019 38.6411C88.2797 35.5034 90.8809 33.9575 91.7806 33.4227C97.4044 30.0796 104.636 34.0864 105.768 34.7582C105.86 34.8125 105.968 34.826 106.07 34.7938C107.122 34.4603 108.192 34.1068 109.28 33.7319C110.289 33.3845 111.274 33.0319 112.236 32.6756C112.395 32.6167 112.574 32.6717 112.669 32.812C113.134 33.4952 113.228 34.5931 112.976 35.2014C112.342 36.7341 110.815 37.6162 106.998 38.4382C106.875 38.4647 106.743 38.429 106.656 38.338C106.399 38.07 106.02 37.7479 105.502 37.5138C105.206 37.3798 104.054 36.9084 101.867 37.6136C100.1 38.1833 99.6508 38.8781 98.1252 39.6975C97.1141 40.2406 95.358 40.8816 93.1333 41.0913" fill="white"/>
<path d="M88.0335 43.8251C87.6843 43.0432 86.9119 41.0209 87.5019 38.6411C88.2797 35.5034 90.8809 33.9575 91.7806 33.4227C97.4044 30.0796 104.636 34.0864 105.768 34.7582C105.86 34.8125 105.968 34.826 106.07 34.7938C107.122 34.4603 108.192 34.1068 109.28 33.7319C110.289 33.3845 111.274 33.0319 112.236 32.6756C112.395 32.6167 112.574 32.6717 112.669 32.812C113.134 33.4952 113.228 34.5931 112.976 35.2014C112.342 36.7341 110.815 37.6162 106.998 38.4382C106.875 38.4647 106.743 38.429 106.656 38.338C106.399 38.07 106.02 37.7479 105.502 37.5138C105.206 37.3798 104.054 36.9084 101.867 37.6136C100.1 38.1833 99.6508 38.8781 98.1252 39.6975C97.1141 40.2406 95.358 40.8816 93.1333 41.0913" stroke="#374151" stroke-width="0.776081" stroke-linecap="round" stroke-linejoin="round"/>
<path d="M88.8824 42.5882C88.8643 42.3665 88.65 42.2161 88.4334 42.2666C87.88 42.3957 87.0019 42.7148 86.3408 43.513C86.1529 43.7399 85.3121 44.8149 85.6315 46.3069C85.702 46.6363 86.1296 48.3899 87.8177 48.9751C88.9864 49.3802 90.3452 48.4161 91.2419 47.4238C91.3836 47.267 91.3675 47.0264 91.2059 46.8901C90.7106 46.4725 90.1752 45.9272 89.8995 45.2392C89.4348 44.0791 88.9406 43.3024 88.8824 42.5882Z" fill="#374151"/>
<path d="M108.694 54.3742C108.052 55.1365 106.813 55.215 104.379 55.3639C103.24 55.4366 102.269 55.3862 101.539 55.3166C101.37 55.3005 101.214 55.4038 101.158 55.5642C100.843 56.4727 100.527 57.3777 100.213 58.2869C99.7052 59.7525 99.1925 61.2204 98.6847 62.686C98.6811 62.6963 98.6787 62.7042 98.6761 62.7148C98.5178 63.3569 96.7848 69.6097 90.6253 68.6596C84.6708 67.7404 83.8696 62.9699 83.7778 62.1877C83.7696 62.1178 83.7826 62.0474 83.8137 61.9843C85.4434 58.6749 87.0745 55.362 88.7078 52.0541C89.4648 50.5104 90.224 48.9713 90.9844 47.4292C91.045 47.3064 91.0308 47.1598 90.9505 47.0489C88.9391 44.2684 88.1381 41.6022 89.1299 40.2865C89.1944 40.2029 89.6584 39.6059 90.3932 39.5249C91.2833 39.4274 91.8367 39.5196 93.1019 41.0459L92.7171 40.626C92.5386 40.4312 92.6157 40.1176 92.8642 40.0278L103.29 36.2624C103.49 36.1901 103.709 36.3008 103.77 36.5046L104.757 39.809C105.181 41.1986 105.858 43.3293 106.769 45.9083C108.638 51.2164 109.661 53.2199 108.694 54.3742Z" fill="#F59E0B"/>
<path d="M92.4453 39.8279C92.2502 39.9154 92.1698 40.1518 92.2701 40.3407C92.8594 41.4503 94.1904 42.2124 95.3694 42.3756C96.8535 42.5811 98.3632 41.7623 99.0929 40.3411C99.1925 40.1471 99.4242 40.083 99.6111 40.1955C100.12 40.502 100.854 40.8765 101.782 41.1424C102.349 41.3051 106.239 42.4211 108.042 40.3393C108.19 40.168 108.743 39.5261 108.805 38.6014C108.917 36.9475 108.487 35.5831 106.088 34.7101C105.997 34.6771 105.897 34.6812 105.809 34.7212C101.82 36.5422 96.4787 38.0182 92.4453 39.8279Z" fill="#111827"/>
<path d="M101.669 43.7294C101.822 44.5776 102.088 45.1802 102.312 45.5819C102.493 45.9071 102.704 46.2057 102.698 46.634C102.692 47.0397 102.494 47.3694 102.323 47.5878M96.9785 47.854C97.1723 48.1934 97.6123 48.8565 98.436 49.3618C99.1036 49.7713 99.7365 49.9014 100.107 49.9486M91.2461 42.0903C91.3657 42.4733 91.5297 42.9071 91.7575 43.3686C92.0714 44.0045 92.4213 44.5202 92.7354 44.9198M97.7219 43.9387C97.7308 44.0375 97.7627 44.2428 97.9045 44.4522C98.0305 44.6382 98.1841 44.7401 98.269 44.7882M103.552 42.6329C103.582 42.77 103.64 42.9614 103.76 43.1654C103.846 43.3109 103.941 43.423 104.021 43.505" stroke="#111827" stroke-width="0.776081" stroke-linecap="round" stroke-linejoin="round"/>
<path d="M99.4043 60.8084C99.2881 61.0552 98.954 61.0959 98.782 60.8841L95.1597 56.4221C94.6935 55.7776 95.1858 54.881 95.9798 54.9286C97.5343 55.0217 100.293 55.187 101.458 55.2567C101.719 55.2724 101.88 55.5468 101.768 55.7836L99.4043 60.8084Z" fill="#111827"/>
<path d="M158.982 70.0417C157.744 66.565 156.581 63.328 155.507 60.0843C155.505 60.0843 142.931 59.7437 142.598 59.6002C138.131 57.6678 131.501 56.3257 126.604 56.7098L106.911 58.2656C106.909 58.2658 106.907 58.2676 106.907 58.2697C106.983 59.6845 106.224 60.8818 105.821 61.4866C103.19 65.4641 97.2174 65.2389 95.6344 65.0993C95.5181 65.336 95.2309 65.5416 94.9826 65.6929H94.9786C88.7545 66.667 83.6207 66.5583 80.0313 66.2596C77.618 66.0578 66.8437 65.1537 62.5513 61.7359C62.5506 61.7353 62.5498 61.735 62.5489 61.735L61.6809 61.7117C58.5727 61.6263 55.5499 62.7516 53.2527 64.847L21.022 94.2372C15.2635 99.4874 15.3373 108.575 21.1811 113.728C23.6335 115.894 26.7301 117.004 29.8461 117.004C32.1394 117.004 34.4443 116.402 36.5165 115.176L46.5457 109.236C46.5467 109.235 46.5475 109.234 46.5476 109.233L48.7781 91.8748C48.7783 91.8734 48.7793 91.8722 48.7806 91.8716L64.5744 85.4845C64.5769 85.4835 64.5798 85.4852 64.5799 85.488L65.1187 94.474C65.1188 94.4762 65.1206 94.4778 65.1228 94.4778L147.938 93.4224L154.163 93.3448L154.368 93.4573L185.09 110.661C185.092 110.662 185.094 110.662 185.095 110.66L198.055 94.5551C198.056 94.5532 198.056 94.5504 198.054 94.5491L158.983 70.0437C158.983 70.0432 158.982 70.0425 158.982 70.0417Z" fill="#6366F1"/>
<path d="M64.5797 85.5197L59.865 87.3784L59.962 87.1883L64.0325 79.1636L64.5797 85.5197Z" fill="#111827"/>
<path d="M155.466 93.4224C155.102 93.4341 154.733 93.4456 154.368 93.4574C152.292 93.5272 150.216 93.597 148.14 93.6669C145.919 90.9739 143.698 88.2807 141.474 85.5918C146.138 88.1993 150.802 90.8109 155.466 93.4224Z" fill="#111827"/>
<path d="M140.889 58.9946L159.079 70.318" stroke="#111827" stroke-width="0.776081" stroke-linecap="round" stroke-linejoin="round"/>
<path d="M91.4204 74.4081C91.4359 74.3111 91.4515 74.2102 91.467 74.1093C91.6571 72.9219 92.0102 71.4396 92.6699 69.8215C93.38 68.0869 94.2376 66.7094 94.9787 65.6927M95.2154 65.3784C95.1378 65.4793 95.0602 65.5841 94.9826 65.6927" stroke="#111827" stroke-width="0.776081" stroke-linecap="round" stroke-linejoin="round"/>
<path d="M91.8861 79.5652C91.2731 79.6118 90.5746 78.1527 90.462 76.9266C90.3495 75.7158 90.7569 74.1986 91.3972 74.1133C91.4205 74.1094 91.4438 74.1094 91.4671 74.1094C91.9754 74.121 92.507 74.9941 92.7398 75.6033C93.384 77.3068 92.6118 79.5109 91.8861 79.5652Z" fill="#111827"/>
<path d="M95.3562 65.6558C95.7282 66.4828 96.6892 68.3201 98.7595 69.7537C100.602 71.0294 102.412 71.3549 103.309 71.4554" stroke="#111827" stroke-width="0.776081" stroke-linecap="round" stroke-linejoin="round"/>
<path d="M108.727 72.5648C108.595 73.24 107.058 73.5931 105.879 73.434C104.528 73.2516 103.062 72.3203 103.17 71.5947C103.178 71.5442 103.194 71.4899 103.221 71.4433C103.492 70.8574 104.8 70.4965 105.844 70.5858C107.346 70.7177 108.871 71.8314 108.727 72.5648Z" fill="#111827"/>
<path d="M106.769 58.5771C106.846 59.9935 106.086 61.1925 105.682 61.7978C103.051 65.7752 97.0793 65.5501 95.4962 65.4105C95.3759 65.4027 95.2789 65.3911 95.2129 65.3833C95.178 65.3794 95.1624 65.3368 95.1896 65.3135C95.2013 65.3057 95.2091 65.2941 95.2206 65.2863C95.3216 65.1971 95.4186 65.1078 95.5156 65.0108C95.6397 64.8983 95.7639 64.7818 95.8842 64.6577C98.3056 62.2906 100.122 59.3687 101.196 56.1402C101.274 55.9035 101.531 55.6399 101.531 55.6399L105.087 55.6221C105.087 55.6221 106.311 56.567 106.652 57.8243C106.722 58.0804 106.761 58.3326 106.769 58.5771Z" fill="white" stroke="#111827" stroke-width="0.776081" stroke-linecap="round" stroke-linejoin="round"/>
<path d="M95.6927 64.8548C95.6966 64.9402 95.6771 65.0216 95.6345 65.0993C95.5181 65.336 95.2309 65.5416 94.9826 65.6929H94.9787C88.7546 66.667 83.6207 66.5584 80.0313 66.2596C77.6178 66.0578 66.8419 65.1536 62.5502 61.735C61.6499 61.0171 61.0368 60.1944 60.8427 59.2399C60.6604 58.3512 60.8932 57.579 60.9864 57.257C62.0651 53.6405 67.455 52.4026 70.0277 51.8128C72.3753 51.2695 74.1525 51.2074 76.7912 51.1337C76.8688 51.1299 76.9425 51.1299 77.0163 51.126C76.2519 51.5062 74.3738 52.6083 74.1953 54.3894C74.106 55.2547 74.4591 55.9299 74.6105 56.2287C76.12 59.1469 82.6203 60.8698 84.1177 61.2345C86.7484 62.0532 88.9447 62.6004 90.5861 62.969C92.5302 63.4074 94.6178 63.8032 95.3861 64.3892C95.5142 64.4862 95.6073 64.5871 95.6539 64.6996C95.6771 64.75 95.6888 64.8005 95.6927 64.8548Z" fill="white" stroke="#111827" stroke-width="0.776081" stroke-linecap="round" stroke-linejoin="round"/>
<path d="M88.7497 50.8885C89.0146 50.8996 89.1814 51.1755 89.0677 51.4151C88.6452 52.3055 87.7469 54.1753 87.1085 55.3398C85.991 57.3693 84.3069 61.1139 84.3069 61.1139C84.3069 61.1139 84.1982 61.0906 83.9965 61.0441C82.4987 60.6793 75.999 58.9564 74.4895 56.0383C74.3381 55.7395 73.9851 55.0643 74.0743 54.199C74.2528 52.418 76.1309 51.3159 76.8954 50.9356C77.0234 50.8736 77.1204 50.827 77.1748 50.8037C79.1848 50.7144 81.319 50.6796 83.5658 50.7183C85.208 50.7448 87.6608 50.8427 88.7497 50.8885Z" fill="#111827"/>
<path d="M78.7161 97.0639C78.5157 97.5992 78.1394 97.834 78.1394 97.834C78.1394 97.834 77.7733 98.0619 77.2312 98.0239C77.0619 98.0101 76.8341 97.8616 76.5612 97.6095V97.6061L76.5474 97.5992C76.5543 97.6026 76.5578 97.6061 76.5612 97.6095C76.5923 97.7718 76.7304 98.7077 76.0882 99.5364C75.6531 100.099 75.0004 100.427 74.396 100.469C73.2736 100.545 72.3688 99.6192 71.578 98.7039C71.6346 98.7872 72.4733 100.025 71.9476 101.146C71.8786 101.287 71.6059 101.874 70.998 102.085C70.6389 102.209 70.3212 102.151 70.2038 102.13C69.3194 101.961 68.3451 100.941 67.6302 100.033C68.4874 101.197 68.7743 102.361 68.3322 102.941C68.1595 103.169 67.897 103.283 67.8383 103.307C67.2926 103.532 66.6642 103.335 65.8907 102.907C65.1347 102.489 63.8061 101.623 62.2772 99.8807C62.276 99.8793 62.2741 99.879 62.2725 99.8798C58.3369 102.024 54.8765 104.306 50.9407 106.45L53.2531 89.5908C58.3915 87.6777 62.8691 86.0929 65.5488 85.1363C66.4224 84.8221 68.0732 84.2282 69.9448 84.7461C70.4075 84.8739 71.0153 85.1087 71.9476 85.7545C72.7557 86.3138 74.2545 87.4915 77.1103 92.212C77.1103 92.212 79.2237 95.7068 78.7161 97.0639Z" fill="#F59E0B"/>
<path d="M76.6058 97.6484C74.8736 96.0867 71.341 90.1743 71.175 89.895M71.8196 98.941C70.7194 97.6689 69.1651 95.9092 67.4545 92.6658M68.2675 100.782C67.51 99.963 66.8872 99.0173 66.6629 98.6721C66.1098 97.8213 65.328 96.8243 64.5796 95.3996" stroke="#111827" stroke-width="0.776081" stroke-linecap="round" stroke-linejoin="round"/>
<path d="M66.0455 103.068L38.9094 113.574L62.2753 99.6938L66.0455 103.068Z" fill="#111827"/>
<path d="M45.7134 91.772L46.5465 109.234L48.6 90.7231L45.7134 91.772Z" fill="#111827"/>
<path d="M48.7509 87.4646C50.3484 86.7469 51.9459 86.0292 53.5434 85.3115C53.0828 92.0998 52.6222 98.8882 52.1616 105.677C50.2899 106.862 48.4181 108.048 46.5464 109.234C47.2812 101.978 48.0161 94.7211 48.7509 87.4646Z" fill="white" stroke="#111827" stroke-width="0.776081" stroke-linecap="round" stroke-linejoin="round"/>
<path d="M48.274 92.1748C49.8684 91.2183 51.6872 90.1273 53.2816 89.1709M47.5314 97.9468C49.1636 96.9397 51.2167 95.8343 52.8489 94.8272M46.8203 103.928C48.522 102.92 50.6957 101.634 52.3974 100.627" stroke="#111827" stroke-width="0.776081" stroke-linecap="round" stroke-linejoin="round"/>
<path d="M39.6948 93.959L48.4211 90.9272" stroke="#111827" stroke-width="0.776081" stroke-linecap="round" stroke-linejoin="round"/>
<path d="M217.398 124.997C217.32 125.532 216.998 125.851 216.998 125.851C216.637 126.208 216.141 126.262 215.702 126.266C214.158 126.293 212.835 125.711 212.691 125.664C211.148 125.169 209.96 124.482 209.134 123.913C209.128 123.908 209.122 123.905 209.115 123.901C202.459 119.99 195.803 116.075 189.147 112.163C188.96 112.053 188.907 111.807 189.033 111.63L199.536 96.8566C199.645 96.7037 199.853 96.6574 200.018 96.7473C205.638 99.8158 209.712 102.364 211.115 103.577C212.183 104.501 212.384 105.234 212.412 105.707C212.442 106.187 212.301 106.604 212.149 106.911C212.079 107.053 212.115 107.227 212.229 107.336C212.631 107.717 212.777 107.988 212.831 108.303C212.955 109.033 212.537 109.696 212.234 110.075C212.128 110.207 212.126 110.396 212.233 110.529C212.621 111.008 212.844 111.463 212.877 111.866C212.935 112.57 212.7 113.109 212.668 113.181C212.665 113.187 212.662 113.192 212.659 113.199C212.46 113.605 212.156 113.906 211.895 114.106C211.729 114.234 211.693 114.471 211.825 114.634C212.391 115.337 212.656 115.963 212.574 116.417C212.454 117.1 212.093 117.663 212.093 117.663C211.861 118.027 211.516 118.358 211.226 118.59C211.035 118.744 211.045 119.036 211.244 119.179C211.681 119.493 212.071 119.773 212.412 120.018C214.798 121.714 217.596 123.658 217.398 124.997Z" fill="#F59E0B"/>
<path d="M210.907 118.938C209.995 118.281 208.91 117.491 207.69 116.59M211.638 114.409C210.773 113.417 209.35 112.3 207.505 111.311M212.082 110.349C211.266 109.422 209.865 108.42 208.06 107.561M212.02 107.146C211.818 106.971 211.567 106.773 211.255 106.542C210.535 106.007 209.514 105.31 208.199 104.597" stroke="#111827" stroke-width="0.776081" stroke-linecap="round" stroke-linejoin="round"/>
<path d="M181.561 108.156L194.314 96.3511C194.644 96.0454 195.131 96.4828 194.862 96.8438L184.816 110.334C184.701 110.488 184.487 110.529 184.324 110.427L181.616 108.742C181.409 108.613 181.381 108.322 181.561 108.156Z" fill="#111827"/>
<path d="M182.715 114.021C184.94 113.956 187.164 113.892 189.389 113.827C189.502 113.824 189.606 113.771 189.674 113.679C193.655 108.293 200.712 99.0225 202.094 97.2094C202.224 97.039 202.181 96.7965 202.002 96.6784L197.67 93.8159C197.507 93.7083 197.29 93.7437 197.173 93.8994C195.733 95.802 187.164 107.125 182.407 113.43C182.22 113.678 182.405 114.03 182.715 114.021Z" fill="white" stroke="#111827" stroke-width="0.776081" stroke-linecap="round" stroke-linejoin="round"/>
<path d="M193.31 108.755C190.969 108.598 188.629 108.44 186.289 108.283M197.11 103.608C194.556 103.629 192.001 103.65 189.446 103.671M200.744 99.0409C198.362 98.8902 195.98 98.7395 193.598 98.5889" stroke="#111827" stroke-width="0.776081" stroke-linecap="round" stroke-linejoin="round"/>
</svg>
