<svg width="22" height="22" viewBox="0 0 22 22" fill="none" xmlns="http://www.w3.org/2000/svg">
<g clip-path="url(#clip0_495_10992)">
<path d="M17.4167 18.3337H4.58334V19.2503C4.58334 19.4934 4.48676 19.7266 4.31485 19.8985C4.14294 20.0704 3.90978 20.167 3.66667 20.167H2.75C2.50689 20.167 2.27373 20.0704 2.10182 19.8985C1.92991 19.7266 1.83334 19.4934 1.83334 19.2503V11.0003L4.13692 4.85683C4.26794 4.50729 4.50254 4.20609 4.80934 3.99347C5.11615 3.78085 5.48055 3.66695 5.85384 3.66699H16.1462C16.5195 3.66695 16.8839 3.78085 17.1907 3.99347C17.4975 4.20609 17.7321 4.50729 17.8631 4.85683L20.1667 11.0003V19.2503C20.1667 19.4934 20.0701 19.7266 19.8982 19.8985C19.7263 20.0704 19.4931 20.167 19.25 20.167H18.3333C18.0902 20.167 17.8571 20.0704 17.6852 19.8985C17.5132 19.7266 17.4167 19.4934 17.4167 19.2503V18.3337ZM3.79134 11.0003H18.2087L16.1462 5.50033H5.85384L3.79134 11.0003ZM5.95834 15.5837C6.32301 15.5837 6.67275 15.4388 6.93061 15.1809C7.18847 14.9231 7.33334 14.5733 7.33334 14.2087C7.33334 13.844 7.18847 13.4942 6.93061 13.2364C6.67275 12.9785 6.32301 12.8337 5.95834 12.8337C5.59366 12.8337 5.24393 12.9785 4.98606 13.2364C4.7282 13.4942 4.58334 13.844 4.58334 14.2087C4.58334 14.5733 4.7282 14.9231 4.98606 15.1809C5.24393 15.4388 5.59366 15.5837 5.95834 15.5837ZM16.0417 15.5837C16.4063 15.5837 16.7561 15.4388 17.0139 15.1809C17.2718 14.9231 17.4167 14.5733 17.4167 14.2087C17.4167 13.844 17.2718 13.4942 17.0139 13.2364C16.7561 12.9785 16.4063 12.8337 16.0417 12.8337C15.677 12.8337 15.3273 12.9785 15.0694 13.2364C14.8115 13.4942 14.6667 13.844 14.6667 14.2087C14.6667 14.5733 14.8115 14.9231 15.0694 15.1809C15.3273 15.4388 15.677 15.5837 16.0417 15.5837Z" fill="#3B82F6"/>
</g>
<defs>
<clipPath id="clip0_495_10992">
<rect width="22" height="22" fill="white"/>
</clipPath>
</defs>
</svg>
