<svg width="22" height="22" viewBox="0 0 22 22" fill="none" xmlns="http://www.w3.org/2000/svg">
<g clip-path="url(#clip0_495_11929)">
<path d="M2.75 13.7497V2.74967C2.75 2.50656 2.84657 2.2734 3.01848 2.10149C3.19039 1.92958 3.42355 1.83301 3.66666 1.83301H18.3333C18.5764 1.83301 18.8096 1.92958 18.9815 2.10149C19.1534 2.2734 19.25 2.50656 19.25 2.74967V17.4163C19.25 18.1457 18.9603 18.8452 18.4445 19.3609C17.9288 19.8766 17.2293 20.1663 16.5 20.1663H3.66666C2.93732 20.1663 2.23785 19.8766 1.72212 19.3609C1.2064 18.8452 0.916664 18.1457 0.916664 17.4163V15.583H15.5833V17.4163C15.5833 17.6595 15.6799 17.8926 15.8518 18.0645C16.0237 18.2364 16.2569 18.333 16.5 18.333C16.7431 18.333 16.9763 18.2364 17.1482 18.0645C17.3201 17.8926 17.4167 17.6595 17.4167 17.4163V13.7497H2.75Z" fill="#F59E0B"/>
</g>
<defs>
<clipPath id="clip0_495_11929">
<rect width="22" height="22" fill="white"/>
</clipPath>
</defs>
</svg>
