<svg width="23" height="22" viewBox="0 0 23 22" fill="none" xmlns="http://www.w3.org/2000/svg">
<g clip-path="url(#clip0_255_4365)">
<path d="M6.91667 5.49967V2.74967C6.91667 2.50656 7.01324 2.2734 7.18515 2.10149C7.35706 1.92958 7.59022 1.83301 7.83333 1.83301H18.8333C19.0764 1.83301 19.3096 1.92958 19.4815 2.10149C19.6534 2.2734 19.75 2.50656 19.75 2.74967V15.583C19.75 15.8261 19.6534 16.0593 19.4815 16.2312C19.3096 16.4031 19.0764 16.4997 18.8333 16.4997H16.0833V19.2497C16.0833 19.7557 15.6708 20.1663 15.1603 20.1663H4.17308C4.0522 20.1671 3.93236 20.1439 3.82046 20.0982C3.70856 20.0524 3.6068 19.985 3.52102 19.8999C3.43524 19.8147 3.36714 19.7134 3.32063 19.6018C3.27412 19.4902 3.25012 19.3706 3.25 19.2497L3.25275 6.41634C3.25275 5.91034 3.66525 5.49967 4.17583 5.49967H6.91667ZM5.08608 7.33301L5.08333 18.333H14.25V7.33301H5.08608ZM8.75 5.49967H16.0833V14.6663H17.9167V3.66634H8.75V5.49967Z" fill="#111827"/>
</g>
<defs>
<clipPath id="clip0_255_4365">
<rect width="22" height="22" fill="white" transform="translate(0.5)"/>
</clipPath>
</defs>
</svg>
