<svg width="22" height="22" viewBox="0 0 22 22" fill="none" xmlns="http://www.w3.org/2000/svg">
<g clip-path="url(#clip0_255_3357)">
<path d="M11.9167 19.2497H16.5V21.0831H5.50001V19.2497H10.0833V18.2872C8.62994 18.1413 7.23245 17.6502 6.00725 16.8549C4.78205 16.0596 3.76461 14.983 3.03967 13.7149L4.63192 12.8056C5.19181 13.7839 5.96968 14.6199 6.90512 15.2489C7.84056 15.8778 8.90839 16.2826 10.0257 16.4318C11.1429 16.5811 12.2796 16.4707 13.3473 16.1094C14.415 15.7481 15.3851 15.1455 16.1821 14.3485C16.9792 13.5514 17.5817 12.5814 17.943 11.5137C18.3044 10.4459 18.4147 9.30931 18.2654 8.19204C18.1162 7.07477 17.7114 6.00694 17.0825 5.0715C16.4536 4.13606 15.6175 3.35819 14.6392 2.7983L15.5485 1.20605C16.952 2.00772 18.1184 3.16635 18.9294 4.56439C19.7405 5.96242 20.1674 7.55012 20.1667 9.16639C20.1667 13.9193 16.5486 17.828 11.9167 18.2872V19.2497ZM11 15.5831C10.1574 15.5831 9.32296 15.4171 8.54445 15.0946C7.76595 14.7721 7.05858 14.2995 6.46274 13.7037C5.86689 13.1078 5.39425 12.4004 5.07178 11.6219C4.74931 10.8434 4.58334 10.009 4.58334 9.16639C4.58334 8.32374 4.74931 7.48934 5.07178 6.71084C5.39425 5.93233 5.86689 5.22496 6.46274 4.62912C7.05858 4.03328 7.76595 3.56063 8.54445 3.23816C9.32296 2.91569 10.1574 2.74972 11 2.74972C12.7018 2.74972 14.3339 3.42576 15.5373 4.62912C16.7406 5.83248 17.4167 7.46458 17.4167 9.16639C17.4167 10.8682 16.7406 12.5003 15.5373 13.7037C14.3339 14.907 12.7018 15.5831 11 15.5831Z" fill="#EAB308"/>
</g>
<defs>
<clipPath id="clip0_255_3357">
<rect width="22" height="22" fill="white"/>
</clipPath>
</defs>
</svg>
