<svg width="48" height="48" viewBox="0 0 48 48" fill="none" xmlns="http://www.w3.org/2000/svg">
<path d="M0 24C0 10.7452 10.7452 0 24 0C37.2548 0 48 10.7452 48 24C48 37.2548 37.2548 48 24 48C10.7452 48 0 37.2548 0 24Z" fill="#6366F1"/>
<g clip-path="url(#clip0_621_8636)">
<path d="M26 26.252V34H16C15.9997 32.7789 16.2789 31.5739 16.8163 30.4774C17.3537 29.3809 18.1349 28.4219 19.1002 27.674C20.0655 26.9261 21.1892 26.4091 22.3852 26.1626C23.5811 25.9162 24.8177 25.9467 26 26.252ZM24 25C20.685 25 18 22.315 18 19C18 15.685 20.685 13 24 13C27.315 13 30 15.685 30 19C30 22.315 27.315 25 24 25ZM30 29V26H32V29H35V31H32V34H30V31H27V29H30Z" fill="white"/>
</g>
<defs>
<clipPath id="clip0_621_8636">
<rect width="24" height="24" fill="white" transform="translate(12 12)"/>
</clipPath>
</defs>
</svg>
