<svg width="25" height="24" viewBox="0 0 25 24" fill="none" xmlns="http://www.w3.org/2000/svg">
<g id="Logo.svg">
<g id="Group">
<path id="Vector" d="M21.7068 8.18824C20.0683 9.17647 19.0562 10.8706 19.0562 12.7529C19.0562 14.8706 20.3574 16.8 22.3333 17.6C21.9478 18.8235 21.3695 19.9529 20.6466 20.9882C19.5863 22.4471 18.4779 23.9529 16.8393 23.9529C15.2008 23.9529 14.7189 23.0118 12.7911 23.0118C10.9116 23.0118 10.2369 24 8.69476 24C7.15259 24 6.09235 22.6353 4.88753 20.9412C3.29717 18.5882 2.38151 15.8588 2.33331 12.9882C2.33331 8.32941 5.41765 5.83529 8.50199 5.83529C10.1405 5.83529 11.4899 6.87059 12.502 6.87059C13.4658 6.87059 15.008 5.78824 16.8393 5.78824C18.767 5.74118 20.5984 6.63529 21.7068 8.18824ZM15.9719 3.81176C16.7911 2.87059 17.2249 1.69412 17.2731 0.470588C17.2731 0.329412 17.2731 0.141176 17.2249 0C15.8273 0.141176 14.5261 0.8 13.6104 1.83529C12.7911 2.72941 12.3092 3.85882 12.261 5.08235C12.261 5.22353 12.261 5.36471 12.3092 5.50588C12.4056 5.50588 12.5502 5.55294 12.6466 5.55294C13.9478 5.45882 15.1526 4.8 15.9719 3.81176Z" fill="black"/>
</g>
</g>
</svg>
