<svg width="48" height="48" viewBox="0 0 48 48" fill="none" xmlns="http://www.w3.org/2000/svg">
<path d="M0 24C0 10.7452 10.7452 0 24 0C37.2548 0 48 10.7452 48 24C48 37.2548 37.2548 48 24 48C10.7452 48 0 37.2548 0 24Z" fill="#10B981"/>
<g clip-path="url(#clip0_621_8640)">
<path d="M31 32H17V33C17 33.2652 16.8946 33.5196 16.7071 33.7071C16.5196 33.8946 16.2652 34 16 34H15C14.7348 34 14.4804 33.8946 14.2929 33.7071C14.1054 33.5196 14 33.2652 14 33V24L16.513 17.298C16.6559 16.9167 16.9119 16.5881 17.2466 16.3562C17.5813 16.1242 17.9788 15.9999 18.386 16H29.614C30.0212 15.9999 30.4187 16.1242 30.7534 16.3562C31.0881 16.5881 31.3441 16.9167 31.487 17.298L34 24V33C34 33.2652 33.8946 33.5196 33.7071 33.7071C33.5196 33.8946 33.2652 34 33 34H32C31.7348 34 31.4804 33.8946 31.2929 33.7071C31.1054 33.5196 31 33.2652 31 33V32ZM16.136 24H31.864L29.614 18H18.386L16.136 24ZM18.5 29C18.8978 29 19.2794 28.842 19.5607 28.5607C19.842 28.2794 20 27.8978 20 27.5C20 27.1022 19.842 26.7206 19.5607 26.4393C19.2794 26.158 18.8978 26 18.5 26C18.1022 26 17.7206 26.158 17.4393 26.4393C17.158 26.7206 17 27.1022 17 27.5C17 27.8978 17.158 28.2794 17.4393 28.5607C17.7206 28.842 18.1022 29 18.5 29ZM29.5 29C29.8978 29 30.2794 28.842 30.5607 28.5607C30.842 28.2794 31 27.8978 31 27.5C31 27.1022 30.842 26.7206 30.5607 26.4393C30.2794 26.158 29.8978 26 29.5 26C29.1022 26 28.7206 26.158 28.4393 26.4393C28.158 26.7206 28 27.1022 28 27.5C28 27.8978 28.158 28.2794 28.4393 28.5607C28.7206 28.842 29.1022 29 29.5 29Z" fill="white"/>
</g>
<defs>
<clipPath id="clip0_621_8640">
<rect width="24" height="24" fill="white" transform="translate(12 12)"/>
</clipPath>
</defs>
</svg>
