<svg width="46" height="46" viewBox="0 0 46 46" fill="none" xmlns="http://www.w3.org/2000/svg">
<path d="M0 23C0 10.2975 10.2975 0 23 0C35.7025 0 46 10.2975 46 23C46 35.7025 35.7025 46 23 46C10.2975 46 0 35.7025 0 23Z" fill="#3B82F6"/>
<g clip-path="url(#clip0_102_5625)">
<path d="M13 19.994C12.9995 19.2062 13.1544 18.426 13.4558 17.6982C13.7572 16.9703 14.1992 16.3091 14.7565 15.7523C15.3139 15.1955 15.9756 14.7542 16.7037 14.4535C17.4319 14.1528 18.2122 13.9987 19 14H27C30.313 14 33 16.695 33 19.994V32H19C15.687 32 13 29.305 13 26.006V19.994ZM25 22V24H27V22H25ZM19 22V24H21V22H19Z" fill="white"/>
</g>
<defs>
<clipPath id="clip0_102_5625">
<rect width="24" height="24" fill="white" transform="translate(11 11)"/>
</clipPath>
</defs>
</svg>
