<svg width="25" height="24" viewBox="0 0 25 24" fill="none" xmlns="http://www.w3.org/2000/svg">
<path d="M4.33333 6.14277V18.9668L9.39833 16.7968L15.3983 19.7968L20.3333 17.6798V4.85677L21.6363 4.29877C21.7124 4.26615 21.7954 4.25294 21.8779 4.26031C21.9603 4.26769 22.0396 4.29542 22.1087 4.34101C22.1778 4.38661 22.2345 4.44865 22.2737 4.52157C22.3129 4.59448 22.3334 4.67599 22.3333 4.75877V18.9998L15.3333 21.9998L9.33333 18.9998L3.03033 21.7008C2.95424 21.7334 2.87125 21.7466 2.78879 21.7392C2.70634 21.7319 2.62701 21.7041 2.55792 21.6585C2.48882 21.6129 2.43213 21.5509 2.39294 21.478C2.35374 21.4051 2.33325 21.3236 2.33333 21.2408V6.99977L4.33333 6.14277ZM16.5763 11.2428L12.3333 15.4848L8.09033 11.2428C7.25131 10.4036 6.67997 9.33451 6.44854 8.17066C6.21711 7.0068 6.33599 5.80045 6.79015 4.70415C7.2443 3.60786 8.01334 2.67084 9.00001 2.0116C9.98669 1.35236 11.1467 1.00049 12.3333 1.00049C13.52 1.00049 14.68 1.35236 15.6666 2.0116C16.6533 2.67084 17.4224 3.60786 17.8765 4.70415C18.3307 5.80045 18.4495 7.0068 18.2181 8.17066C17.9867 9.33451 17.4153 10.4036 16.5763 11.2428ZM12.3333 12.6568L15.1613 9.82777C15.7209 9.26841 16.1019 8.55568 16.2564 7.77972C16.4108 7.00376 16.3317 6.19944 16.029 5.46846C15.7262 4.73749 15.2136 4.1127 14.5557 3.67312C13.8979 3.23354 13.1245 2.99892 12.3333 2.99892C11.5422 2.99892 10.7687 3.23354 10.1109 3.67312C9.4531 4.1127 8.94041 4.73749 8.63769 5.46846C8.33498 6.19944 8.25584 7.00376 8.41028 7.77972C8.56471 8.55568 8.9458 9.26841 9.50533 9.82777L12.3333 12.6568Z" fill="#6B7280"/>
</svg>
