<svg width="56" height="56" viewBox="0 0 56 56" fill="none" xmlns="http://www.w3.org/2000/svg">
<path d="M46.2 16.8V49C46.2 50.8565 45.4625 52.637 44.1498 53.9497C42.837 55.2625 41.0565 56 39.2 56H8.40002C6.54351 56 4.76303 55.2625 3.45028 53.9497C2.13752 52.637 1.40002 50.8565 1.40002 49V7C1.40002 5.14348 2.13752 3.36301 3.45028 2.05025C4.76303 0.737498 6.54351 0 8.40002 0L29.4142 0L46.2 16.8Z" fill="#DDE5E8"/>
<path d="M46.2 16.8H36.4C34.5435 16.8 32.763 16.0625 31.4503 14.7497C30.1375 13.437 29.4 11.6565 29.4 9.8V0H29.4142L46.2 16.8Z" fill="#9BBDC6"/>
<path d="M23.8 28.0001C23.8 28.1839 23.7638 28.366 23.6934 28.5359C23.6231 28.7057 23.5199 28.86 23.3899 28.99C23.2599 29.12 23.1056 29.2232 22.9357 29.2935C22.7659 29.3639 22.5838 29.4001 22.4 29.4001H14C13.6287 29.4001 13.2726 29.2526 13.01 28.99C12.7475 28.7275 12.6 28.3714 12.6 28.0001C12.6 27.6288 12.7475 27.2727 13.01 27.0101C13.2726 26.7476 13.6287 26.6001 14 26.6001H22.4C22.7713 26.6001 23.1274 26.7476 23.3899 27.0101C23.6525 27.2727 23.8 27.6288 23.8 28.0001Z" fill="#AFC3C9"/>
<path d="M32.2 33.6C32.2 33.9713 32.0525 34.3274 31.7899 34.5899C31.5274 34.8525 31.1713 35 30.8 35H14C13.6287 35 13.2726 34.8525 13.01 34.5899C12.7475 34.3274 12.6 33.9713 12.6 33.6C12.6 33.2287 12.7475 32.8726 13.01 32.61C13.2726 32.3475 13.6287 32.2 14 32.2H30.8C31.1713 32.2 31.5274 32.3475 31.7899 32.61C32.0525 32.8726 32.2 33.2287 32.2 33.6Z" fill="#AFC3C9"/>
<path d="M32.1562 39.2C32.1562 39.5714 32.0087 39.9274 31.7462 40.19C31.4836 40.4525 31.1275 40.6 30.7562 40.6H14C13.6287 40.6 13.2726 40.4525 13.01 40.19C12.7475 39.9274 12.6 39.5714 12.6 39.2C12.6 38.8287 12.7475 38.4726 13.01 38.2101C13.2726 37.9475 13.6287 37.8 14 37.8H30.7584C31.1293 37.8006 31.4849 37.9484 31.7469 38.2109C32.009 38.4734 32.1562 38.8291 32.1562 39.2Z" fill="#AFC3C9"/>
<path d="M44.8 55.9999C50.2124 55.9999 54.6 51.6123 54.6 46.1999C54.6 40.7875 50.2124 36.3999 44.8 36.3999C39.3876 36.3999 35 40.7875 35 46.1999C35 51.6123 39.3876 55.9999 44.8 55.9999Z" fill="#48B753"/>
<path d="M48.5898 45.2102L45.7898 42.4102L45.7822 42.4036C45.7516 42.373 45.7198 42.3435 45.6859 42.3161L45.6717 42.3052C45.644 42.2833 45.6152 42.2621 45.5853 42.2417L45.5492 42.2188L45.477 42.1761L45.4387 42.1553C45.4048 42.1378 45.3709 42.1214 45.3348 42.1072L45.2966 42.093L45.2178 42.0656L45.1752 42.0536L45.0898 42.0328L45.0581 42.0263C44.9755 42.0107 44.8917 42.0026 44.8077 42.0022H44.7934C44.7548 42.0022 44.7183 42.004 44.6841 42.0077H44.6666C44.5817 42.0164 44.4979 42.0329 44.4161 42.0569L44.3964 42.0634C44.3629 42.0737 44.33 42.0853 44.298 42.0984L44.2706 42.1094C44.2345 42.1247 44.1984 42.1411 44.1612 42.1586H44.1547C44.1175 42.1783 44.0814 42.2002 44.0453 42.2231L44.0191 42.2406C43.9921 42.2589 43.9655 42.2782 43.9392 42.2986L43.9119 42.3205C43.8791 42.3478 43.8462 42.3763 43.8156 42.4069L41.0156 45.2069C40.7594 45.4707 40.6173 45.8247 40.62 46.1925C40.6227 46.5602 40.7699 46.9122 41.03 47.1722C41.29 47.4323 41.642 47.5795 42.0097 47.5822C42.3775 47.5849 42.7315 47.4428 42.9953 47.1866L43.4055 46.7764V49C43.4055 49.1839 43.4417 49.3659 43.512 49.5358C43.5824 49.7056 43.6855 49.86 43.8155 49.99C43.9455 50.12 44.0999 50.2231 44.2697 50.2934C44.4396 50.3638 44.6216 50.4 44.8055 50.4C44.9893 50.4 45.1714 50.3638 45.3412 50.2934C45.5111 50.2231 45.6654 50.12 45.7954 49.99C45.9254 49.86 46.0285 49.7056 46.0989 49.5358C46.1693 49.3659 46.2055 49.1839 46.2055 49V46.7797L46.6156 47.1899C46.7449 47.323 46.8994 47.4291 47.07 47.502C47.2407 47.5748 47.4241 47.6131 47.6097 47.6144C47.7953 47.6158 47.9793 47.5802 48.151 47.5099C48.3227 47.4395 48.4787 47.3356 48.6099 47.2044C48.7411 47.0732 48.8449 46.9172 48.9153 46.7455C48.9857 46.5738 49.0213 46.3898 49.0199 46.2042C49.0185 46.0187 48.9803 45.8352 48.9074 45.6646C48.8345 45.4939 48.7284 45.3395 48.5953 45.2102H48.5898Z" fill="#2E8234"/>
</svg>
