<svg width="42" height="42" viewBox="0 0 42 42" fill="none" xmlns="http://www.w3.org/2000/svg">
<g clip-path="url(#clip0_620_7607)">
<path d="M20.0976 0.902344C10.0385 0.902344 1.70555 8.29221 0.231445 17.9393L20.0976 24.3594L28.6442 39.194C35.4699 35.9819 40.1954 29.0434 40.1954 21.0002C40.1954 9.90043 31.1973 0.902344 20.0976 0.902344Z" fill="#7D62EE"/>
<path d="M22.2861 12.9799L21.2444 11.7652L21.2434 11.7654L16.6436 9.63721L11.2723 10.9557L3.12891 17.9389L25.0811 20.0343L22.2861 12.9799Z" fill="#95DB76"/>
<path d="M14.1261 8.50892C15.4972 7.33316 17.5809 7.49296 18.7567 8.86411L21.2443 11.7651L21.2435 11.7657C18.3667 14.232 13.9692 13.8505 11.2725 10.956L14.1261 8.50892Z" fill="#BAEE63"/>
<path d="M12.8584 17.939H0.231575C0.0770691 18.9519 -0.000344526 19.9752 1.15254e-06 20.9999C1.15254e-06 28.0332 3.61381 34.2217 9.08496 37.8128L15.4014 27.8758L12.8584 17.939Z" fill="#27A6FF"/>
<path d="M27.3998 18.0401C27.1429 17.9729 26.8784 17.9389 26.6127 17.939H12.8584C12.8584 17.939 9.08496 19.3782 9.08496 22.386V37.8128C12.248 39.8888 16.0313 41.0976 20.0974 41.0977H26.0096L25.1084 30.0969L27.3998 18.0401Z" fill="#02C0FC"/>
<path d="M27.3997 18.04C26.5729 18.4147 23.8633 19.8369 23.8633 22.386V37.5529C23.8633 39.1951 24.9881 40.3697 26.0095 41.0977H26.6126C28.3334 41.0977 29.7413 39.6898 29.7413 37.969V21.0676C29.7412 19.6185 28.7427 18.3914 27.3997 18.04Z" fill="#2FD0E2"/>
<path d="M35.0511 21.412C38.1005 18.3627 38.1005 13.4186 35.0511 10.3692C32.0017 7.3198 27.0576 7.3198 24.0082 10.3692C20.9588 13.4186 20.9588 18.3627 24.0082 21.412C27.0576 24.4614 32.0017 24.4614 35.0511 21.412Z" fill="#FFC242"/>
<path d="M33.5078 19.8683C35.7046 17.6715 35.7046 14.1098 33.5078 11.9129C31.3109 9.71613 27.7492 9.71613 25.5524 11.9129C23.3556 14.1098 23.3556 17.6715 25.5524 19.8683C27.7492 22.0651 31.3109 22.0651 33.5078 19.8683Z" fill="#FEF156"/>
<path d="M31.5123 4.45459C28.5196 5.5479 26.3833 8.41998 26.3833 11.7911C26.3833 16.1036 29.8793 19.5996 34.1918 19.5996C35.6748 19.5996 37.0613 19.1862 38.2423 18.4682L38.8306 9.92255L31.5123 4.45459Z" fill="#FFC242"/>
<path d="M34.1914 3.98242C33.25 3.98242 32.3476 4.14911 31.5119 4.45435C31.5119 4.45435 30.6621 6.07397 32.26 6.50595C32.26 6.50595 31.5053 8.07143 33.0261 8.31531C33.0261 8.31531 31.2963 11.0555 34.1914 11.7909C36.231 12.309 36.2381 13.6624 35.4715 14.4969L35.9413 15.1068C35.9413 15.1068 35.7028 16.5458 37.1981 16.5458C37.1981 16.5458 36.6156 18.2119 38.2418 18.468C40.4949 17.0982 41.9998 14.6203 41.9998 11.7909C41.9998 7.47843 38.5038 3.98242 34.1914 3.98242Z" fill="#FEF156"/>
<path d="M32.2604 6.50635C30.105 7.29426 28.5664 9.36309 28.5664 11.7912C28.5664 14.898 31.0849 17.4165 34.1917 17.4165C35.2555 17.4178 36.2977 17.1158 37.1961 16.546L38.014 10.0978L32.2604 6.50635Z" fill="#FEF156"/>
<path d="M33.0261 8.31573C33.0261 8.31573 31.2963 11.0559 34.1914 11.7913C36.231 12.3094 36.2381 13.6628 35.4715 14.4974L35.9413 15.1072C35.9413 15.1072 35.7032 16.5445 37.1958 16.5461C38.7704 15.549 39.8167 13.7929 39.8167 11.7913C39.8167 8.68454 37.2982 6.16602 34.1914 6.16602C33.5326 6.16526 32.8789 6.2805 32.26 6.50645C32.2594 6.50776 31.5059 8.07193 33.0261 8.31573Z" fill="#FFFBB3"/>
<path d="M32.4962 15.4027C32.1805 15.2367 32.0592 14.8464 32.2252 14.5308C32.3911 14.2151 32.7815 14.094 33.0971 14.2598C33.5973 14.5228 33.7914 14.5348 34.4043 14.4721C35.027 14.4084 35.3442 13.9092 35.3754 13.4724C35.3908 13.2573 35.3552 12.7393 34.6948 12.5746L33.3829 12.2627C32.3087 11.9948 31.6432 11.0936 31.7199 10.0183C31.7904 9.02985 32.5439 7.95935 33.8476 7.82596C34.6541 7.74344 35.1157 7.77445 35.887 8.17984C36.0386 8.25955 36.1523 8.39618 36.2031 8.55968C36.2539 8.72319 36.2377 8.90019 36.1581 9.05176C36.0784 9.2033 35.9417 9.31698 35.7782 9.3678C35.6147 9.41863 35.4377 9.40244 35.2862 9.32279C34.7859 9.05971 34.5918 9.04757 33.9791 9.11041C33.3563 9.17415 33.0391 9.67331 33.0079 10.1101C32.9926 10.3252 33.0281 10.8432 33.6884 11.008L35.0004 11.3198C36.0746 11.5878 36.7401 12.4889 36.6633 13.5642C36.5928 14.5527 35.8393 15.6232 34.5356 15.7566C33.7134 15.8408 33.257 15.8026 32.4962 15.4027Z" fill="#FD8D3E"/>
<path d="M34.1916 16.4225C34.1068 16.4225 34.0228 16.4058 33.9445 16.3733C33.8661 16.3409 33.7949 16.2933 33.735 16.2334C33.675 16.1734 33.6275 16.1022 33.595 16.0239C33.5626 15.9456 33.5459 15.8616 33.5459 15.7768V7.80534C33.5459 7.63409 33.6139 7.46987 33.735 7.34878C33.8561 7.22769 34.0203 7.15967 34.1916 7.15967C34.3628 7.15967 34.527 7.22769 34.6481 7.34878C34.7692 7.46987 34.8372 7.63409 34.8372 7.80534V15.7769C34.8372 15.8617 34.8205 15.9456 34.7881 16.024C34.7556 16.1023 34.7081 16.1735 34.6481 16.2334C34.5882 16.2934 34.517 16.3409 34.4386 16.3734C34.3603 16.4058 34.2764 16.4225 34.1916 16.4225Z" fill="#FEA53D"/>
<path d="M29.798 25.7744H19.8788C17.8196 25.7744 16.1348 27.4592 16.1348 29.5184C16.1348 31.5776 17.8195 33.2624 19.8788 33.2624H29.798C30.5415 33.2624 31.1498 32.654 31.1498 31.9105V27.1264C31.1499 26.3828 30.5415 25.7744 29.798 25.7744Z" fill="#3FEADD"/>
<path d="M20.098 31.0891C20.9654 31.0891 21.6686 30.3859 21.6686 29.5184C21.6686 28.651 20.9654 27.9478 20.098 27.9478C19.2305 27.9478 18.5273 28.651 18.5273 29.5184C18.5273 30.3859 19.2305 31.0891 20.098 31.0891Z" fill="#27A6FF"/>
</g>
<defs>
<clipPath id="clip0_620_7607">
<rect width="42" height="42" fill="white"/>
</clipPath>
</defs>
</svg>
