<svg width="25" height="24" viewBox="0 0 25 24" fill="none" xmlns="http://www.w3.org/2000/svg">
<g id="Group">
<path id="Vector" d="M21.2 19.9998C21.2 20.265 21.0946 20.5194 20.9071 20.7069C20.7196 20.8944 20.4652 20.9998 20.2 20.9998H4.2C3.93478 20.9998 3.68043 20.8944 3.49289 20.7069C3.30536 20.5194 3.2 20.265 3.2 19.9998V9.48978C3.1999 9.3374 3.23462 9.187 3.30152 9.05008C3.36842 8.91317 3.46572 8.79335 3.586 8.69978L11.586 2.47778C11.7615 2.34123 11.9776 2.26709 12.2 2.26709C12.4224 2.26709 12.6385 2.34123 12.814 2.47778L20.814 8.69978C20.9343 8.79335 21.0316 8.91317 21.0985 9.05008C21.1654 9.187 21.2001 9.3374 21.2 9.48978V19.9998ZM7.2 14.9998V16.9998H17.2V14.9998H7.2Z" fill="#111827"/>
</g>
</svg>
