<svg width="22" height="22" viewBox="0 0 22 22" fill="none" xmlns="http://www.w3.org/2000/svg">
<g clip-path="url(#clip0_255_3449)">
<path d="M4.58329 20.1663C4.34018 20.1663 4.10702 20.0698 3.93511 19.8979C3.7632 19.7259 3.66663 19.4928 3.66663 19.2497V2.74967C3.66663 2.50656 3.7632 2.2734 3.93511 2.10149C4.10702 1.92958 4.34018 1.83301 4.58329 1.83301H17.4166C17.6597 1.83301 17.8929 1.92958 18.0648 2.10149C18.2367 2.2734 18.3333 2.50656 18.3333 2.74967V19.2497C18.3333 19.4928 18.2367 19.7259 18.0648 19.8979C17.8929 20.0698 17.6597 20.1663 17.4166 20.1663H4.58329ZM13.75 14.6663L18.3333 10.9997L13.75 7.33301V10.083H8.24996V11.9163H13.75V14.6663Z" fill="#EF4444"/>
</g>
<defs>
<clipPath id="clip0_255_3449">
<rect width="22" height="22" fill="white"/>
</clipPath>
</defs>
</svg>
