<svg width="48" height="48" viewBox="0 0 48 48" fill="none" xmlns="http://www.w3.org/2000/svg">
<path d="M0 24C0 10.7452 10.7452 0 24 0V0C37.2548 0 48 10.7452 48 24V24C48 37.2548 37.2548 48 24 48V48C10.7452 48 0 37.2548 0 24V24Z" fill="#1D4ED8"/>
<g clip-path="url(#clip0_573_6324)">
<path d="M14 17L21 14L27 17L33.303 14.299C33.3791 14.2664 33.4621 14.2532 33.5445 14.2605C33.627 14.2679 33.7063 14.2956 33.7754 14.3412C33.8445 14.3868 33.9012 14.4489 33.9404 14.5218C33.9796 14.5947 34.0001 14.6762 34 14.759V31L27 34L21 31L14.697 33.701C14.6209 33.7336 14.5379 33.7468 14.4555 33.7395C14.373 33.7321 14.2937 33.7044 14.2246 33.6588C14.1555 33.6132 14.0988 33.5511 14.0596 33.4782C14.0204 33.4053 13.9999 33.3238 14 33.241V17ZM28 31.395L32 29.681V17.033L28 18.747V31.395ZM26 31.264V18.736L22 16.736V29.264L26 31.264ZM20 29.253V16.605L16 18.319V30.967L20 29.253Z" fill="white"/>
</g>
<defs>
<clipPath id="clip0_573_6324">
<rect width="24" height="24" fill="white" transform="translate(12 12)"/>
</clipPath>
</defs>
</svg>
