<svg width="25" height="24" viewBox="0 0 25 24" fill="none" xmlns="http://www.w3.org/2000/svg">
<g id="Group">
<path id="Vector" d="M10.0327 10.682C10.971 12.3305 12.3362 13.6957 13.9847 14.634L14.8687 13.396C15.0108 13.1969 15.221 13.0569 15.4595 13.0023C15.6979 12.9478 15.9481 12.9825 16.1627 13.1C17.577 13.8729 19.1389 14.3378 20.7457 14.464C20.9965 14.4839 21.2305 14.5975 21.4012 14.7823C21.5719 14.9671 21.6667 15.2094 21.6667 15.461V19.923C21.6667 20.1706 21.5749 20.4094 21.4091 20.5932C21.2432 20.777 21.015 20.8927 20.7687 20.918C20.2387 20.973 19.7047 21 19.1667 21C10.6067 21 3.66669 14.06 3.66669 5.5C3.66669 4.962 3.69369 4.428 3.74869 3.898C3.77394 3.6517 3.88967 3.42352 4.07348 3.25763C4.25728 3.09175 4.49609 2.99995 4.74369 3H9.20569C9.45725 2.99997 9.69958 3.09475 9.88437 3.26545C10.0692 3.43615 10.1828 3.67022 10.2027 3.921C10.3289 5.52779 10.7938 7.08968 11.5667 8.504C11.6842 8.71856 11.7189 8.96874 11.6644 9.2072C11.6098 9.44565 11.4698 9.65584 11.2707 9.798L10.0327 10.682ZM7.51069 10.025L9.41069 8.668C8.87147 7.50409 8.50204 6.26884 8.31369 5H5.67669C5.67069 5.166 5.66769 5.333 5.66769 5.5C5.66669 12.956 11.7107 19 19.1667 19C19.3337 19 19.5007 18.997 19.6667 18.99V16.353C18.3978 16.1646 17.1626 15.7952 15.9987 15.256L14.6417 17.156C14.0953 16.9437 13.5647 16.6931 13.0537 16.406L12.9957 16.373C11.0343 15.2567 9.40997 13.6324 8.29369 11.671L8.26069 11.613C7.97359 11.102 7.72297 10.5713 7.51069 10.025Z" fill="#6366F1"/>
</g>
</svg>
