<svg width="46" height="46" viewBox="0 0 46 46" fill="none" xmlns="http://www.w3.org/2000/svg">
<path d="M0 23C0 10.2975 10.2975 0 23 0C35.7025 0 46 10.2975 46 23C46 35.7025 35.7025 46 23 46C10.2975 46 0 35.7025 0 23Z" fill="#FACC15"/>
<g clip-path="url(#clip0_102_5623)">
<path d="M32 27.42V30.956C32.0001 31.2092 31.9042 31.453 31.7316 31.6382C31.559 31.8234 31.3226 31.9363 31.07 31.954C30.633 31.984 30.276 32 30 32C21.163 32 14 24.837 14 16C14 15.724 14.015 15.367 14.046 14.93C14.0637 14.6774 14.1766 14.441 14.3618 14.2684C14.547 14.0958 14.7908 13.9999 15.044 14H18.58C18.704 13.9999 18.8237 14.0459 18.9157 14.129C19.0078 14.2122 19.0656 14.3266 19.078 14.45C19.101 14.68 19.122 14.863 19.142 15.002C19.3407 16.3889 19.748 17.7378 20.35 19.003C20.445 19.203 20.383 19.442 20.203 19.57L18.045 21.112C19.3645 24.1865 21.8145 26.6365 24.889 27.956L26.429 25.802C26.4919 25.714 26.5838 25.6509 26.6885 25.6237C26.7932 25.5964 26.9042 25.6068 27.002 25.653C28.267 26.2539 29.6156 26.6601 31.002 26.858C31.141 26.878 31.324 26.9 31.552 26.922C31.6752 26.9346 31.7894 26.9926 31.8724 27.0846C31.9553 27.1766 32.0012 27.2961 32.001 27.42H32Z" fill="#111827"/>
</g>
<defs>
<clipPath id="clip0_102_5623">
<rect width="24" height="24" fill="white" transform="translate(11 11)"/>
</clipPath>
</defs>
</svg>
