<svg width="42" height="42" viewBox="0 0 42 42" fill="none" xmlns="http://www.w3.org/2000/svg">
<g clip-path="url(#clip0_620_7626)">
<mask id="mask0_620_7626" style="mask-type:luminance" maskUnits="userSpaceOnUse" x="0" y="0" width="42" height="42">
<path d="M0 0.00012207H41.9999V42H0V0.00012207Z" fill="white"/>
</mask>
<g mask="url(#mask0_620_7626)">
<path d="M39.0089 30.8306C40.3451 28.1407 41.0975 25.1098 41.0975 21.9026C41.0975 10.803 32.0996 1.80504 20.9999 1.80504C9.90033 1.80504 0.902344 10.803 0.902344 21.9026C0.902344 25.1098 1.65481 28.1407 2.99085 30.8305L39.0089 30.8306Z" fill="#00A8FD"/>
<path d="M38.9396 0.000305176H3.06044C3.0312 0.000326633 3.00315 0.0119605 2.98248 0.0326495C2.96181 0.0533385 2.9502 0.0813894 2.9502 0.110637V4.14697H39.0498V0.110637C39.0498 0.0496879 39.0005 0.000305176 38.9396 0.000305176Z" fill="#33BAFE"/>
<path d="M11.8192 0.000305176H3.06044C3.0312 0.000305176 3.00316 0.0119209 2.98249 0.0325966C2.96181 0.0532722 2.9502 0.081315 2.9502 0.110555V4.14697H8.52904C8.63051 2.17134 9.98862 0.528831 11.8192 0.000305176Z" fill="#00A8FD"/>
<path d="M39.0497 5.84845H2.9502V30.7482C6.22225 37.4123 13.0749 42 21 42C28.925 42 35.7776 37.4123 39.0497 30.7483V5.84845Z" fill="#EBF1F7"/>
<path d="M8.52289 5.84847H2.9502V30.7483C4.27573 33.4479 6.18894 35.8066 8.52289 37.6577V5.84847Z" fill="#CEE3F4"/>
<path d="M29.4489 9.3219H11.8013C12.7394 9.92548 13.3612 10.9779 13.3612 12.1763C13.3612 13.3746 12.7394 14.4271 11.8013 15.0308H29.4489C31.0255 15.0308 32.3034 13.7528 32.3034 12.1763C32.3034 10.5999 31.0255 9.3219 29.4489 9.3219Z" fill="#CEE3F4"/>
<path d="M18.8481 9.3219H11.8013C12.7393 9.92548 13.3611 10.9779 13.3611 12.1763C13.3611 13.3746 12.7393 14.4271 11.8013 15.0308H18.8481C17.6224 13.8048 18.8481 12.8875 18.8481 12.8875V11.4653C17.6647 10.2818 18.8481 9.3219 18.8481 9.3219Z" fill="#B0D4EA"/>
<path d="M5.93148 2.77295C5.47268 2.77295 5.11035 2.3979 5.11035 1.95354C5.11035 1.57407 5.37498 1.22913 5.7707 1.14874C6.27199 1.04693 6.75179 1.43355 6.75179 1.95354C6.75179 2.39618 6.39364 2.77295 5.93148 2.77295Z" fill="#65D2FC"/>
<path d="M8.4331 2.77295C7.97734 2.77295 7.61279 2.40299 7.61279 1.95354C7.61244 1.76375 7.67801 1.57972 7.79831 1.43293C7.91861 1.28613 8.08616 1.18567 8.27232 1.14874C8.76312 1.04899 9.25259 1.4205 9.25259 1.95354C9.25268 2.06118 9.23154 2.16778 9.19039 2.26724C9.14923 2.3667 9.08887 2.45706 9.01276 2.53317C8.93664 2.60928 8.84627 2.66963 8.74681 2.71077C8.64734 2.75192 8.54074 2.77305 8.4331 2.77295Z" fill="#65D2FC"/>
<path d="M10.7743 2.75734C10.5883 2.72036 10.4209 2.62002 10.3006 2.47343C10.1804 2.32683 10.1147 2.14306 10.1147 1.95344C10.1147 1.42541 10.5995 1.04888 11.095 1.14872C11.4935 1.2296 11.7545 1.57421 11.7545 1.95344C11.7545 2.46999 11.2812 2.85849 10.7743 2.75734Z" fill="#65D2FC"/>
<path d="M36.6795 2.60645H32.3589C32.2781 2.60646 32.1981 2.59055 32.1234 2.55964C32.0488 2.52872 31.981 2.4834 31.9238 2.42627C31.8667 2.36914 31.8214 2.30131 31.7905 2.22666C31.7595 2.15202 31.7436 2.07201 31.7437 1.99121C31.7437 1.65136 32.019 1.37598 32.3589 1.37598H36.6795C37.0193 1.37598 37.2947 1.65136 37.2947 1.99121C37.2947 2.33107 37.0193 2.60645 36.6795 2.60645Z" fill="#65D2FC"/>
<path d="M16.4533 12.8872H15.7785C15.5922 12.8837 15.4147 12.8073 15.2842 12.6743C15.1537 12.5413 15.0806 12.3625 15.0806 12.1761C15.0806 11.9898 15.1537 11.8109 15.2842 11.6779C15.4147 11.5449 15.5922 11.4685 15.7785 11.465H16.4533C16.6396 11.4685 16.8171 11.5449 16.9476 11.6779C17.0781 11.8109 17.1512 11.9898 17.1512 12.1761C17.1512 12.3625 17.0781 12.5413 16.9476 12.6743C16.8171 12.8073 16.6396 12.8837 16.4533 12.8872Z" fill="#96C8E2"/>
<path d="M20.6109 12.8872H18.8C18.6137 12.8837 18.4362 12.8073 18.3057 12.6743C18.1752 12.5413 18.1021 12.3625 18.1021 12.1761C18.1021 11.9898 18.1752 11.8109 18.3057 11.6779C18.4362 11.5449 18.6137 11.4685 18.8 11.465H20.6109C20.7972 11.4685 20.9747 11.5449 21.1053 11.6779C21.2358 11.8109 21.3089 11.9898 21.3089 12.1761C21.3089 12.3625 21.2358 12.5413 21.1053 12.6743C20.9747 12.8073 20.7972 12.8837 20.6109 12.8872Z" fill="#96C8E2"/>
<path d="M24.737 12.8872H22.926C22.7397 12.8837 22.5622 12.8073 22.4317 12.6743C22.3012 12.5413 22.228 12.3625 22.228 12.1761C22.228 11.9898 22.3012 11.8109 22.4317 11.6779C22.5622 11.5449 22.7397 11.4685 22.926 11.465H24.737C24.9256 11.465 25.1065 11.54 25.2398 11.6733C25.3732 11.8067 25.4481 11.9875 25.4481 12.1761C25.4481 12.3647 25.3732 12.5456 25.2398 12.6789C25.1065 12.8123 24.9256 12.8872 24.737 12.8872Z" fill="#B0D4EA"/>
<path d="M28.8626 12.8872H27.0515C26.8652 12.8837 26.6877 12.8073 26.5572 12.6743C26.4266 12.5413 26.3535 12.3625 26.3535 12.1761C26.3535 11.9898 26.4266 11.8109 26.5572 11.6779C26.6877 11.5449 26.8652 11.4685 27.0515 11.465H28.8626C29.0489 11.4685 29.2264 11.5449 29.3569 11.6779C29.4874 11.8109 29.5606 11.9898 29.5606 12.1761C29.5606 12.3625 29.4874 12.5413 29.3569 12.6743C29.2264 12.8073 29.0489 12.8837 28.8626 12.8872Z" fill="#B0D4EA"/>
<path d="M29.2682 2.60645H14.187C14.0238 2.60645 13.8674 2.54163 13.752 2.42625C13.6366 2.31087 13.5718 2.15438 13.5718 1.99121C13.5718 1.82804 13.6366 1.67156 13.752 1.55618C13.8674 1.4408 14.0238 1.37598 14.187 1.37598H29.2682C29.608 1.37598 29.8834 1.65136 29.8834 1.99121C29.8834 2.33107 29.608 2.60645 29.2682 2.60645Z" fill="#65D2FC"/>
<path d="M9.85096 8.26203C7.68928 8.26203 5.93701 10.0143 5.93701 12.176C5.93701 14.3375 7.68928 16.0898 9.85096 16.0898C12.0126 16.0898 13.7648 14.3375 13.7648 12.176C13.7648 10.0143 12.0126 8.26203 9.85096 8.26203Z" fill="#D3F4C9"/>
<path d="M29.4489 17.8756H11.8013C12.7394 18.4792 13.3612 19.5316 13.3612 20.73C13.3612 21.9283 12.7394 22.9808 11.8013 23.5845H29.4489C31.0255 23.5845 32.3034 22.3065 32.3034 20.73C32.3034 19.1536 31.0255 17.8756 29.4489 17.8756Z" fill="#CEE3F4"/>
<path d="M18.8481 17.8756H11.8013C12.7393 18.4792 13.3611 19.5316 13.3611 20.73C13.3611 21.9283 12.7393 22.9808 11.8013 23.5845H18.8481C17.6224 22.3585 18.8481 21.4412 18.8481 21.4412V20.019C17.6647 18.8355 18.8481 17.8756 18.8481 17.8756Z" fill="#B0D4EA"/>
<path d="M16.4533 21.4414H15.7785C15.5922 21.4379 15.4147 21.3615 15.2842 21.2285C15.1537 21.0955 15.0806 20.9167 15.0806 20.7303C15.0806 20.544 15.1537 20.3651 15.2842 20.2321C15.4147 20.0991 15.5922 20.0227 15.7785 20.0192H16.4533C16.6396 20.0227 16.8171 20.0991 16.9476 20.2321C17.0781 20.3651 17.1512 20.544 17.1512 20.7303C17.1512 20.9167 17.0781 21.0955 16.9476 21.2285C16.8171 21.3615 16.6396 21.4379 16.4533 21.4414Z" fill="#96C8E2"/>
<path d="M20.6109 21.4414H18.8C18.6137 21.4379 18.4362 21.3615 18.3057 21.2285C18.1752 21.0955 18.1021 20.9167 18.1021 20.7303C18.1021 20.544 18.1752 20.3651 18.3057 20.2321C18.4362 20.0991 18.6137 20.0227 18.8 20.0192H20.6109C20.7972 20.0227 20.9747 20.0991 21.1053 20.2321C21.2358 20.3651 21.3089 20.544 21.3089 20.7303C21.3089 20.9167 21.2358 21.0955 21.1053 21.2285C20.9747 21.3615 20.7972 21.4379 20.6109 21.4414Z" fill="#96C8E2"/>
<path d="M9.85096 16.8162C7.68928 16.8162 5.93701 18.5686 5.93701 20.7302C5.93701 22.8917 7.68928 24.644 9.85096 24.644C12.0126 24.644 13.7648 22.8917 13.7648 20.7302C13.7648 18.5686 12.0126 16.8162 9.85096 16.8162Z" fill="#94E6FF"/>
<path d="M29.4489 26.4298H11.8013C12.7394 27.0334 13.3612 28.0858 13.3612 29.2842C13.3612 30.4825 12.7394 31.535 11.8013 32.1387H29.4489C31.0255 32.1387 32.3034 30.8607 32.3034 29.2842C32.3034 27.7078 31.0255 26.4298 29.4489 26.4298Z" fill="#CEE3F4"/>
<path d="M18.8481 26.4298H11.8013C12.7393 27.0334 13.3611 28.0858 13.3611 29.2842C13.3611 30.4825 12.7393 31.535 11.8013 32.1387H18.8481C17.6224 30.9127 18.8481 29.9954 18.8481 29.9954V28.5732C17.6647 27.3897 18.8481 26.4298 18.8481 26.4298Z" fill="#B0D4EA"/>
<path d="M16.4533 29.9951H15.7785C15.5922 29.9917 15.4147 29.9152 15.2842 29.7822C15.1537 29.6493 15.0806 29.4704 15.0806 29.284C15.0806 29.0977 15.1537 28.9188 15.2842 28.7858C15.4147 28.6529 15.5922 28.5764 15.7785 28.5729H16.4533C16.6396 28.5764 16.8171 28.6529 16.9476 28.7858C17.0781 28.9188 17.1512 29.0977 17.1512 29.284C17.1512 29.4704 17.0781 29.6493 16.9476 29.7822C16.8171 29.9152 16.6396 29.9917 16.4533 29.9951Z" fill="#96C8E2"/>
<path d="M20.6109 29.9951H18.8C18.6137 29.9917 18.4362 29.9152 18.3057 29.7822C18.1752 29.6493 18.1021 29.4704 18.1021 29.284C18.1021 29.0977 18.1752 28.9188 18.3057 28.7858C18.4362 28.6529 18.6137 28.5764 18.8 28.5729H20.6109C20.7972 28.5764 20.9747 28.6529 21.1053 28.7858C21.2358 28.9188 21.3089 29.0977 21.3089 29.284C21.3089 29.4704 21.2358 29.6493 21.1053 29.7822C20.9747 29.9152 20.7972 29.9917 20.6109 29.9951Z" fill="#96C8E2"/>
<path d="M9.85096 25.3704C7.68928 25.3704 5.93701 27.1228 5.93701 29.2844C5.93701 31.4459 7.68928 33.1982 9.85096 33.1982C12.0126 33.1982 13.7648 31.4459 13.7648 29.2844C13.7648 27.1228 12.0126 25.3704 9.85096 25.3704Z" fill="#FFF0B3"/>
<path d="M29.4489 34.984H11.8013C12.7394 35.5876 13.3612 36.64 13.3612 37.8384C13.3612 38.7132 13.0288 39.5094 12.4848 40.1109C12.9354 40.3219 13.3937 40.516 13.8587 40.6929H28.1409C29.5706 40.1493 30.9334 39.4438 32.2026 38.5902C32.2695 38.3452 32.3033 38.0924 32.3034 37.8384C32.3034 36.262 31.0255 34.984 29.4489 34.984Z" fill="#CEE3F4"/>
<path d="M18.8481 34.984H11.8013C12.7393 35.5876 13.3611 36.64 13.3611 37.8384C13.3611 38.7135 13.0286 39.5097 12.4846 40.1111C12.9346 40.322 13.3924 40.5161 13.8569 40.6929H18.8481C17.6224 39.4669 18.8481 38.5496 18.8481 38.5496V37.1274C17.6647 35.9438 18.8481 34.984 18.8481 34.984Z" fill="#B0D4EA"/>
<path d="M16.4533 38.5493H15.7785C15.5922 38.5459 15.4147 38.4694 15.2842 38.3364C15.1537 38.2035 15.0806 38.0246 15.0806 37.8382C15.0806 37.6519 15.1537 37.473 15.2842 37.34C15.4147 37.2071 15.5922 37.1306 15.7785 37.1271H16.4533C16.6396 37.1306 16.8171 37.2071 16.9476 37.34C17.0781 37.473 17.1512 37.6519 17.1512 37.8382C17.1512 38.0246 17.0781 38.2035 16.9476 38.3364C16.8171 38.4694 16.6396 38.5459 16.4533 38.5493Z" fill="#96C8E2"/>
<path d="M20.6109 38.5493H18.8C18.6137 38.5459 18.4362 38.4694 18.3057 38.3364C18.1752 38.2035 18.1021 38.0246 18.1021 37.8382C18.1021 37.6519 18.1752 37.473 18.3057 37.34C18.4362 37.2071 18.6137 37.1306 18.8 37.1271H20.6109C20.7972 37.1306 20.9747 37.2071 21.1053 37.34C21.2358 37.473 21.3089 37.6519 21.3089 37.8382C21.3089 38.0246 21.2358 38.2035 21.1053 38.3364C20.9747 38.4694 20.7972 38.5459 20.6109 38.5493Z" fill="#96C8E2"/>
<path d="M9.85097 33.9244C8.42905 33.9244 7.18439 34.6828 6.49902 35.8169C8.30559 37.6992 10.4752 39.2296 12.8951 40.2974C13.4387 39.6253 13.7648 38.77 13.7648 37.8383C13.7648 35.6767 12.0126 33.9244 9.85097 33.9244Z" fill="#E779B5"/>
<path d="M24.737 21.4414H22.926C22.7397 21.4379 22.5622 21.3615 22.4317 21.2285C22.3012 21.0955 22.228 20.9167 22.228 20.7303C22.228 20.544 22.3012 20.3651 22.4317 20.2321C22.5622 20.0991 22.7397 20.0227 22.926 20.0192H24.737C24.9233 20.0227 25.1008 20.0991 25.2313 20.2321C25.3619 20.3651 25.435 20.544 25.435 20.7303C25.435 20.9167 25.3619 21.0955 25.2313 21.2285C25.1008 21.3615 24.9233 21.4379 24.737 21.4414Z" fill="#B0D4EA"/>
<path d="M28.8626 21.4414H27.0515C26.8652 21.4379 26.6877 21.3615 26.5572 21.2285C26.4266 21.0955 26.3535 20.9167 26.3535 20.7303C26.3535 20.544 26.4266 20.3651 26.5572 20.2321C26.6877 20.0991 26.8652 20.0227 27.0515 20.0192H28.8626C29.0489 20.0227 29.2264 20.0991 29.3569 20.2321C29.4874 20.3651 29.5606 20.544 29.5606 20.7303C29.5606 20.9167 29.4874 21.0955 29.3569 21.2285C29.2264 21.3615 29.0489 21.4379 28.8626 21.4414Z" fill="#B0D4EA"/>
<path d="M24.737 29.9951H22.926C22.7397 29.9917 22.5622 29.9152 22.4317 29.7822C22.3012 29.6493 22.228 29.4704 22.228 29.284C22.228 29.0977 22.3012 28.9188 22.4317 28.7858C22.5622 28.6529 22.7397 28.5764 22.926 28.5729H24.737C24.9233 28.5764 25.1008 28.6529 25.2313 28.7858C25.3619 28.9188 25.435 29.0977 25.435 29.284C25.435 29.4704 25.3619 29.6493 25.2313 29.7822C25.1008 29.9152 24.9233 29.9917 24.737 29.9951Z" fill="#B0D4EA"/>
<path d="M28.8626 29.9951H27.0515C26.8652 29.9917 26.6877 29.9152 26.5572 29.7822C26.4266 29.6493 26.3535 29.4704 26.3535 29.284C26.3535 29.0977 26.4266 28.9188 26.5572 28.7858C26.6877 28.6529 26.8652 28.5764 27.0515 28.5729H28.8626C29.0489 28.5764 29.2264 28.6529 29.3569 28.7858C29.4874 28.9188 29.5606 29.0977 29.5606 29.284C29.5606 29.4704 29.4874 29.6493 29.3569 29.7822C29.2264 29.9152 29.0489 29.9917 28.8626 29.9951Z" fill="#B0D4EA"/>
<path d="M35.5129 12.8872H34.6741C34.4878 12.8837 34.3103 12.8073 34.1797 12.6743C34.0492 12.5413 33.9761 12.3625 33.9761 12.1761C33.9761 11.9898 34.0492 11.8109 34.1797 11.6779C34.3103 11.5449 34.4878 11.4685 34.6741 11.465H35.5129C35.6992 11.4685 35.8767 11.5449 36.0072 11.6779C36.1378 11.8109 36.2109 11.9898 36.2109 12.1761C36.2109 12.3625 36.1378 12.5413 36.0072 12.6743C35.8767 12.8073 35.6992 12.8837 35.5129 12.8872Z" fill="#B0D4EA"/>
<path d="M35.5129 21.4414H34.6741C34.4878 21.4379 34.3103 21.3615 34.1797 21.2285C34.0492 21.0955 33.9761 20.9167 33.9761 20.7303C33.9761 20.544 34.0492 20.3651 34.1797 20.2321C34.3103 20.0991 34.4878 20.0227 34.6741 20.0192H35.5129C35.6992 20.0227 35.8767 20.0991 36.0072 20.2321C36.1378 20.3651 36.2109 20.544 36.2109 20.7303C36.2109 20.9167 36.1378 21.0955 36.0072 21.2285C35.8767 21.3615 35.6992 21.4379 35.5129 21.4414Z" fill="#B0D4EA"/>
<path d="M35.5129 29.9951H34.6741C34.4878 29.9917 34.3103 29.9152 34.1797 29.7822C34.0492 29.6493 33.9761 29.4704 33.9761 29.284C33.9761 29.0977 34.0492 28.9188 34.1797 28.7858C34.3103 28.6529 34.4878 28.5764 34.6741 28.5729H35.5129C35.6992 28.5764 35.8767 28.6529 36.0072 28.7858C36.1378 28.9188 36.2109 29.0977 36.2109 29.284C36.2109 29.4704 36.1378 29.6493 36.0072 29.7822C35.8767 29.9152 35.6992 29.9917 35.5129 29.9951Z" fill="#B0D4EA"/>
<path d="M24.737 38.5493H22.926C22.7397 38.5459 22.5622 38.4694 22.4317 38.3364C22.3012 38.2035 22.228 38.0246 22.228 37.8382C22.228 37.6519 22.3012 37.473 22.4317 37.34C22.5622 37.2071 22.7397 37.1306 22.926 37.1271H24.737C24.9233 37.1306 25.1008 37.2071 25.2313 37.34C25.3619 37.473 25.435 37.6519 25.435 37.8382C25.435 38.0246 25.3619 38.2035 25.2313 38.3364C25.1008 38.4694 24.9233 38.5459 24.737 38.5493Z" fill="#B0D4EA"/>
<path d="M28.8626 38.5493H27.0515C26.8652 38.5459 26.6877 38.4694 26.5572 38.3364C26.4266 38.2035 26.3535 38.0246 26.3535 37.8382C26.3535 37.6519 26.4266 37.473 26.5572 37.34C26.6877 37.2071 26.8652 37.1306 27.0515 37.1271H28.8626C29.0489 37.1306 29.2264 37.2071 29.3569 37.34C29.4874 37.473 29.5606 37.6519 29.5606 37.8382C29.5606 38.0246 29.4874 38.2035 29.3569 38.3364C29.2264 38.4694 29.0489 38.5459 28.8626 38.5493Z" fill="#B0D4EA"/>
<path d="M39.0497 6.01221H2.9502V3.98251H39.0497V6.01221Z" fill="#CEE3F4"/>
<path d="M12.5443 6.01221H2.9502V3.98251H10.5145C11.6356 3.98251 12.5443 4.89125 12.5443 6.01221Z" fill="#0065C6"/>
<path d="M8.52289 4.38455C8.52289 4.24895 8.52994 4.11508 8.54159 3.98251H2.9502V6.01221H8.52289V4.38455Z" fill="#0052A9"/>
<path d="M12.3106 40.0269C12.8286 39.445 13.1438 38.6787 13.1438 37.8384C13.1438 36.0198 11.6696 34.5456 9.85103 34.5456C8.59883 34.5456 7.51003 35.2445 6.95312 36.2735C8.52252 37.8082 10.3322 39.076 12.3106 40.0269Z" fill="#E25CA5"/>
<path d="M10.848 38.4097C10.8285 38.3413 10.7862 38.2815 10.7283 38.2402C10.6703 38.1989 10.6 38.1785 10.5289 38.1824C9.4289 38.2419 8.94836 37.3722 8.7861 36.9717C8.7409 36.8598 8.63992 36.7779 8.51983 36.7663C7.33924 36.6507 7.53841 35.4951 7.53849 35.4949C7.30611 35.7243 7.10901 35.9868 6.95361 36.274C8.52291 37.8084 10.3324 39.0761 12.3106 40.0269C12.517 39.7952 12.6897 39.5357 12.8237 39.2558C11.3989 39.6696 10.9727 38.8526 10.848 38.4097Z" fill="#DD3F95"/>
<path d="M10.4782 38.9142C10.4768 38.8965 10.4826 38.8789 10.4941 38.8653C10.6268 38.706 10.7635 38.4694 10.7979 38.1509C10.8015 38.1175 10.8275 38.0928 10.8608 38.0882C10.9401 38.0772 10.981 37.9947 10.9892 37.9341C10.9936 37.9016 11.0009 37.8697 11.0109 37.8386C11.0434 37.7369 11.1607 37.5624 11.037 37.4491C11.0185 37.4321 10.9929 37.4247 10.9659 37.4236C10.971 37.2557 10.9863 37.0761 10.9863 37.0761C11.1741 36.1564 10.3146 35.7577 9.63225 35.8506C8.99872 35.937 8.93851 36.2963 8.93827 36.428C8.93824 36.4418 8.93433 36.4553 8.92697 36.467C8.91962 36.4786 8.90912 36.488 8.89668 36.494C8.57856 36.6511 8.73622 37.3816 8.74574 37.4243C8.71006 37.4211 8.67388 37.4268 8.6496 37.4491C8.55715 37.5338 8.59948 37.6528 8.64033 37.75C9.2336 38.2128 9.85234 38.6421 10.4937 39.0356C10.4867 38.9954 10.4815 38.9549 10.4782 38.9142Z" fill="#E779B5"/>
<path d="M10.4782 38.9142C10.4769 38.8965 10.4826 38.8789 10.4941 38.8653C10.6344 38.6975 10.7313 38.4977 10.7763 38.2837C10.745 38.2497 10.7066 38.223 10.6639 38.2055C10.6211 38.188 10.575 38.1802 10.5288 38.1825C9.42881 38.2421 8.94827 37.3723 8.78602 36.9717C8.7679 36.9273 8.74062 36.8871 8.70595 36.8539C8.67749 37.1082 8.73983 37.3979 8.74574 37.4243C8.71006 37.4212 8.67388 37.4268 8.6496 37.4491C8.55715 37.5338 8.59948 37.6528 8.64033 37.75C9.2336 38.2128 9.85234 38.6421 10.4937 39.0356C10.4867 38.9954 10.4815 38.9549 10.4782 38.9142Z" fill="#E25CA5"/>
<path d="M13.1438 29.2843C13.1438 31.1029 11.6695 32.5771 9.85091 32.5771C8.03228 32.5771 6.55811 31.1029 6.55811 29.2843C6.55811 27.4656 8.03228 25.9914 9.85091 25.9914C11.6695 25.9914 13.1438 27.4656 13.1438 29.2843Z" fill="#FFC533"/>
<path d="M12.8236 30.7018C11.3988 31.1155 10.9727 30.2985 10.848 29.8556C10.8284 29.7872 10.7862 29.7274 10.7282 29.6861C10.6702 29.6448 10.6 29.6244 10.5289 29.6283C9.42886 29.6879 8.94832 28.8181 8.78607 28.4175C8.74087 28.3057 8.63989 28.2238 8.51979 28.212C7.3392 28.0965 7.53838 26.941 7.53846 26.9407C6.9334 27.5378 6.55811 28.3671 6.55811 29.2843C6.55811 31.103 8.03237 32.5771 9.85099 32.5771C11.162 32.5771 12.2939 31.8108 12.8236 30.7018Z" fill="#F9A52B"/>
<path d="M7.53857 31.6279C8.13313 32.2147 8.94967 32.5771 9.85103 32.5771C10.7525 32.5771 11.5689 32.2147 12.1635 31.6279C12.0852 31.4785 11.9714 31.3452 11.8056 31.2598L11.8057 31.2596C11.6668 31.1934 11.1477 30.9662 10.9001 30.9001C10.9007 30.8919 10.8991 30.8837 10.8956 30.8763C10.8921 30.8688 10.8868 30.8624 10.8802 30.8575L10.5845 30.6407C10.581 30.6381 10.5769 30.6363 10.5726 30.6353C10.5682 30.6344 10.5638 30.6343 10.5594 30.6352C10.5551 30.636 10.551 30.6378 10.5473 30.6403C10.5437 30.6428 10.5406 30.6461 10.5383 30.6498C10.5028 30.5579 10.4857 30.453 10.4783 30.3599C10.477 30.3422 10.4827 30.3247 10.4943 30.3112C10.6269 30.1517 10.7637 29.9152 10.7981 29.5966C10.8017 29.5632 10.8278 29.5386 10.861 29.534C10.9402 29.523 10.9812 29.4404 10.9894 29.3799C10.9938 29.3474 11.001 29.3155 11.011 29.2843C11.0436 29.1826 11.1609 29.0081 11.0372 28.8949C11.0187 28.8778 10.9931 28.8705 10.9661 28.8693C10.9712 28.7014 10.9865 28.5219 10.9865 28.5219C11.1743 27.6022 10.3147 27.2034 9.63242 27.2964C8.99889 27.3828 8.93868 27.742 8.93835 27.8737C8.93834 27.8875 8.93445 27.901 8.9271 27.9127C8.91976 27.9244 8.90927 27.9338 8.89684 27.9398C8.57873 28.0969 8.73639 28.8273 8.74591 28.8701C8.71022 28.8669 8.67405 28.8725 8.64977 28.8949C8.52606 29.0081 8.64345 29.1826 8.67593 29.2843C8.68594 29.3155 8.69316 29.3474 8.69759 29.3799C8.70579 29.4404 8.74681 29.523 8.82597 29.534C8.84201 29.5357 8.85696 29.5429 8.8684 29.5543C8.87983 29.5657 8.88705 29.5806 8.88889 29.5966C8.9235 29.9152 9.06017 30.1517 9.19265 30.3111C9.20423 30.3246 9.20998 30.3422 9.20864 30.3599C9.20134 30.453 9.18428 30.5579 9.14868 30.6498C9.14676 30.6465 9.14423 30.6436 9.14121 30.6412C9.13568 30.6369 9.1289 30.6345 9.1219 30.6345C9.11489 30.6344 9.10805 30.6366 9.10241 30.6407L8.96288 30.7431L8.80677 30.8575C8.80035 30.8623 8.79517 30.8685 8.79168 30.8757C8.7875 30.8844 8.78586 30.8943 8.7875 30.9041C8.55461 30.9688 8.04142 31.1907 7.89639 31.2596L7.89656 31.2598C7.73069 31.3452 7.61683 31.4785 7.53857 31.6279Z" fill="#FCE453"/>
<path d="M12.1635 31.6279C12.0853 31.4785 11.9714 31.3452 11.8056 31.2598L11.8057 31.2596C11.6668 31.1935 11.1477 30.9662 10.9001 30.9001C10.9007 30.8919 10.8991 30.8837 10.8956 30.8763C10.8921 30.8688 10.8868 30.8624 10.8802 30.8575L10.5845 30.6407C10.581 30.6381 10.5769 30.6363 10.5726 30.6353C10.5682 30.6344 10.5638 30.6343 10.5594 30.6352C10.5551 30.636 10.551 30.6378 10.5473 30.6403C10.5437 30.6428 10.5406 30.6461 10.5383 30.6498C10.5028 30.5579 10.4857 30.453 10.4783 30.3599C10.477 30.3422 10.4827 30.3247 10.4943 30.3112C10.6346 30.1433 10.7315 29.9435 10.7765 29.7294C10.7452 29.6954 10.7068 29.6688 10.664 29.6513C10.6213 29.6338 10.5752 29.626 10.529 29.6283C9.42898 29.6879 8.94844 28.8181 8.78618 28.4175C8.76813 28.373 8.74084 28.3329 8.70612 28.2997C8.67766 28.5539 8.74 28.8437 8.74591 28.8701C8.71022 28.8669 8.67405 28.8725 8.64977 28.8949C8.52606 29.0081 8.64345 29.1826 8.67593 29.2843C8.68594 29.3155 8.69316 29.3474 8.69759 29.3799C8.70588 29.4404 8.74681 29.523 8.82597 29.534C8.84201 29.5357 8.85696 29.5429 8.8684 29.5543C8.87983 29.5657 8.88705 29.5806 8.88889 29.5966C8.9235 29.9152 9.06017 30.1517 9.19265 30.3111C9.20423 30.3246 9.20998 30.3422 9.20864 30.3599C9.20134 30.453 9.18428 30.5579 9.14868 30.6498C9.14676 30.6465 9.14423 30.6436 9.14121 30.6412C9.1357 30.6369 9.12893 30.6346 9.12194 30.6345C9.11495 30.6344 9.10812 30.6366 9.1025 30.6407L8.96288 30.7431L8.80677 30.8575C8.79953 30.8627 8.79389 30.8698 8.79048 30.8781C8.78708 30.8863 8.78604 30.8953 8.7875 30.9041C8.55461 30.9688 8.04142 31.1907 7.89639 31.2596L7.89656 31.2598C7.73069 31.3452 7.61683 31.4785 7.53857 31.6279L7.53882 31.628C8.15439 32.2368 8.98539 32.5779 9.85111 32.5771C10.7444 32.5771 11.5679 32.2148 12.1635 31.6279Z" fill="#FFC533"/>
<path d="M13.1438 12.1764C13.1438 13.9949 11.6695 15.4692 9.85091 15.4692C8.03228 15.4692 6.55811 13.9949 6.55811 12.1764C6.55811 10.3577 8.03228 8.88346 9.85091 8.88346C11.6695 8.88346 13.1438 10.3577 13.1438 12.1764Z" fill="#71C994"/>
<path d="M12.8236 13.5934C11.3988 14.0071 10.9727 13.1901 10.848 12.7472C10.8284 12.6788 10.7862 12.619 10.7282 12.5777C10.6702 12.5364 10.6 12.516 10.5289 12.5199C9.42886 12.5795 8.94832 11.7097 8.78607 11.3091C8.74087 11.1973 8.63989 11.1154 8.51979 11.1036C7.3392 10.9881 7.53838 9.83256 7.53846 9.83232C6.9334 10.4294 6.55811 11.2587 6.55811 12.1759C6.55811 13.9945 8.03237 15.4688 9.85099 15.4688C11.162 15.4688 12.2939 14.7024 12.8236 13.5934Z" fill="#71C994"/>
<path d="M7.53857 14.5195C8.13313 15.1063 8.94959 15.4688 9.85103 15.4688C10.7525 15.4688 11.5689 15.1063 12.1635 14.5195C12.0852 14.3701 11.9714 14.2368 11.8056 14.1514L11.8057 14.1513C11.6668 14.0851 11.1477 13.8578 10.9001 13.7917C10.9007 13.7835 10.8991 13.7753 10.8956 13.7679C10.8921 13.7604 10.8868 13.754 10.8802 13.7491L10.5845 13.5323C10.581 13.5297 10.5769 13.5279 10.5726 13.5269C10.5682 13.5259 10.5638 13.5259 10.5594 13.5267C10.5551 13.5276 10.551 13.5293 10.5473 13.5319C10.5437 13.5344 10.5406 13.5377 10.5383 13.5414C10.5028 13.4495 10.4857 13.3446 10.4783 13.2515C10.477 13.2338 10.4827 13.2163 10.4943 13.2028C10.6269 13.0433 10.7637 12.8068 10.7981 12.4882C10.7999 12.4722 10.8072 12.4573 10.8186 12.4459C10.83 12.4345 10.845 12.4274 10.861 12.4256C10.9402 12.4146 10.9812 12.332 10.9894 12.2715C10.9938 12.239 11.001 12.2071 11.011 12.1759C11.0436 12.0742 11.1609 11.8997 11.0372 11.7865C11.0187 11.7694 10.9931 11.7621 10.9661 11.7609C10.9712 11.593 10.9865 11.4135 10.9865 11.4135C11.1743 10.4938 10.3147 10.095 9.63242 10.188C8.99889 10.2744 8.9386 10.6336 8.93835 10.7653C8.93834 10.7791 8.93443 10.7926 8.92709 10.8043C8.91975 10.816 8.90927 10.8254 8.89684 10.8314C8.57873 10.9885 8.73639 11.7189 8.74591 11.7617C8.71022 11.7585 8.67405 11.7641 8.64977 11.7865C8.52606 11.8997 8.64345 12.0742 8.67593 12.1759C8.68594 12.2071 8.69316 12.239 8.69759 12.2715C8.70579 12.332 8.74681 12.4146 8.82597 12.4256C8.84201 12.4273 8.85696 12.4345 8.8684 12.4459C8.87983 12.4573 8.88705 12.4722 8.88889 12.4882C8.9235 12.8068 9.06017 13.0433 9.19265 13.2027C9.20423 13.2162 9.20998 13.2338 9.20864 13.2515C9.20134 13.3445 9.18428 13.4495 9.14868 13.5414C9.14676 13.5381 9.14423 13.5352 9.14121 13.5328C9.13569 13.5285 9.12891 13.5261 9.1219 13.526C9.11489 13.5259 9.10804 13.5281 9.10241 13.5323L8.96288 13.6346L8.80677 13.7491C8.79956 13.7544 8.79394 13.7615 8.79054 13.7697C8.78713 13.7779 8.78608 13.7869 8.7875 13.7957C8.55461 13.8604 8.04142 14.0823 7.89639 14.1513L7.89656 14.1514C7.73069 14.2368 7.61683 14.3701 7.53857 14.5195Z" fill="#7AF4AB"/>
<path d="M12.1635 14.5195C12.0853 14.3701 11.9714 14.2368 11.8056 14.1514L11.8057 14.1512C11.6668 14.085 11.1477 13.8578 10.9001 13.7917C10.9007 13.7835 10.8991 13.7753 10.8956 13.7679C10.8921 13.7604 10.8868 13.754 10.8802 13.7491L10.5845 13.5323C10.581 13.5297 10.5769 13.5279 10.5726 13.5269C10.5682 13.5259 10.5638 13.5259 10.5594 13.5267C10.5551 13.5276 10.551 13.5293 10.5473 13.5319C10.5437 13.5344 10.5406 13.5377 10.5383 13.5414C10.5028 13.4495 10.4857 13.3446 10.4783 13.2515C10.477 13.2338 10.4827 13.2163 10.4943 13.2028C10.6345 13.0349 10.7314 12.8351 10.7765 12.621C10.7452 12.587 10.7068 12.5604 10.664 12.5429C10.6213 12.5254 10.5752 12.5176 10.529 12.5199C9.42898 12.5795 8.94844 11.7097 8.78618 11.3091C8.76815 11.2646 8.74086 11.2245 8.70612 11.1913C8.67766 11.4455 8.74 11.7353 8.74591 11.7617C8.71022 11.7585 8.67405 11.7641 8.64977 11.7865C8.52606 11.8997 8.64345 12.0742 8.67593 12.1759C8.68594 12.2071 8.69316 12.239 8.69759 12.2715C8.70588 12.332 8.74681 12.4146 8.82597 12.4256C8.84201 12.4273 8.85696 12.4345 8.8684 12.4459C8.87983 12.4573 8.88705 12.4722 8.88889 12.4882C8.9235 12.8068 9.06017 13.0433 9.19265 13.2027C9.20423 13.2162 9.20998 13.2338 9.20864 13.2515C9.20134 13.3445 9.18428 13.4495 9.14868 13.5414C9.14637 13.5377 9.1433 13.5344 9.13967 13.5319C9.13604 13.5294 9.13192 13.5276 9.12758 13.5267C9.12324 13.5259 9.11877 13.5259 9.11446 13.5269C9.11014 13.5279 9.10606 13.5297 9.1025 13.5323L8.96288 13.6346L8.80677 13.7491C8.80037 13.7539 8.7952 13.76 8.79168 13.7672C8.7875 13.776 8.78586 13.7859 8.7875 13.7957C8.55461 13.8604 8.04142 14.0823 7.89639 14.1512L7.89656 14.1514C7.73069 14.2368 7.61683 14.3701 7.53857 14.5195L7.53882 14.5197C8.15439 15.1284 8.98539 15.4695 9.85111 15.4687C10.7444 15.4687 11.5679 15.1064 12.1635 14.5195Z" fill="#6EDB9A"/>
<path d="M13.1438 20.7301C13.1438 22.5486 11.6695 24.0229 9.85091 24.0229C8.03228 24.0229 6.55811 22.5486 6.55811 20.7301C6.55811 18.9114 8.03228 17.4372 9.85091 17.4372C11.6695 17.4372 13.1438 18.9114 13.1438 20.7301Z" fill="#33BAFE"/>
<path d="M12.8236 22.1476C11.3988 22.5613 10.9727 21.7443 10.848 21.3014C10.8284 21.233 10.7862 21.1732 10.7282 21.1319C10.6702 21.0906 10.6 21.0702 10.5289 21.0741C9.42886 21.1337 8.94832 20.2639 8.78607 19.8633C8.74087 19.7515 8.63989 19.6696 8.51979 19.6578C7.3392 19.5423 7.53838 18.3868 7.53846 18.3865C6.9334 18.9836 6.55811 19.8129 6.55811 20.7301C6.55811 22.5487 8.03237 24.0229 9.85099 24.0229C11.162 24.0229 12.2939 23.2566 12.8236 22.1476Z" fill="#00A8FD"/>
<path d="M7.53857 23.0737C8.13313 23.6605 8.94959 24.0229 9.85103 24.0229C10.7525 24.0229 11.5689 23.6605 12.1635 23.0737C12.0852 22.9243 11.9714 22.791 11.8056 22.7056L11.8057 22.7054C11.6668 22.6393 11.1477 22.412 10.9001 22.3459C10.9007 22.3377 10.8991 22.3295 10.8956 22.3221C10.8921 22.3146 10.8868 22.3082 10.8802 22.3033L10.5845 22.0865C10.581 22.0839 10.5769 22.0821 10.5726 22.0811C10.5682 22.0801 10.5638 22.0801 10.5594 22.0809C10.5551 22.0818 10.551 22.0835 10.5473 22.0861C10.5437 22.0886 10.5406 22.0919 10.5383 22.0956C10.5028 22.0037 10.4857 21.8988 10.4783 21.8057C10.477 21.788 10.4827 21.7705 10.4943 21.757C10.6269 21.5975 10.7637 21.361 10.7981 21.0424C10.7999 21.0264 10.8072 21.0115 10.8186 21.0001C10.83 20.9887 10.845 20.9816 10.861 20.9798C10.9402 20.9688 10.9812 20.8862 10.9894 20.8257C10.9938 20.7932 11.001 20.7613 11.011 20.7301C11.0436 20.6284 11.1609 20.4539 11.0372 20.3407C11.0187 20.3236 10.9931 20.3163 10.9661 20.3151C10.9712 20.1472 10.9865 19.9677 10.9865 19.9677C11.1743 19.048 10.3147 18.6492 9.6325 18.7422C8.99889 18.8286 8.93868 19.1878 8.93835 19.3195C8.93834 19.3333 8.93443 19.3468 8.92709 19.3585C8.91975 19.3702 8.90927 19.3796 8.89684 19.3856C8.57873 19.5427 8.73639 20.2731 8.74591 20.3159C8.71022 20.3127 8.67405 20.3183 8.64977 20.3407C8.52606 20.4539 8.64345 20.6284 8.67593 20.7301C8.68594 20.7613 8.69316 20.7932 8.69759 20.8257C8.70579 20.8862 8.74681 20.9688 8.82597 20.9798C8.84201 20.9815 8.85696 20.9887 8.8684 21.0001C8.87983 21.0115 8.88705 21.0264 8.88889 21.0424C8.9235 21.361 9.06017 21.5975 9.19265 21.7569C9.20423 21.7704 9.20998 21.788 9.20864 21.8057C9.20134 21.8987 9.18428 22.0037 9.14868 22.0956C9.14676 22.0923 9.14423 22.0894 9.14121 22.087C9.13568 22.0827 9.1289 22.0803 9.1219 22.0803C9.11489 22.0802 9.10805 22.0824 9.10241 22.0865L8.96288 22.1888L8.80677 22.3033C8.80035 22.3081 8.79517 22.3143 8.79168 22.3215C8.7875 22.3302 8.78586 22.3401 8.7875 22.3499C8.55461 22.4146 8.04142 22.6365 7.89639 22.7054L7.89656 22.7056C7.73069 22.791 7.61683 22.9243 7.53857 23.0737Z" fill="#94E6FF"/>
<path d="M12.1635 23.0737C12.0853 22.9243 11.9714 22.791 11.8056 22.7056L11.8057 22.7054C11.6668 22.6392 11.1477 22.412 10.9001 22.3459C10.9007 22.3377 10.8991 22.3295 10.8956 22.3221C10.8921 22.3146 10.8868 22.3082 10.8802 22.3033L10.5845 22.0865C10.581 22.0839 10.5769 22.0821 10.5726 22.0811C10.5682 22.0801 10.5638 22.0801 10.5594 22.0809C10.5551 22.0818 10.551 22.0835 10.5473 22.0861C10.5437 22.0886 10.5406 22.0919 10.5383 22.0956C10.5028 22.0037 10.4857 21.8988 10.4783 21.8057C10.4771 21.788 10.4828 21.7705 10.4943 21.757C10.6346 21.5891 10.7315 21.3893 10.7765 21.1752C10.7452 21.1412 10.7068 21.1146 10.664 21.0971C10.6213 21.0796 10.5752 21.0718 10.529 21.0741C9.42898 21.1337 8.94844 20.2639 8.78618 19.8633C8.76813 19.8188 8.74084 19.7787 8.70612 19.7455C8.67766 19.9997 8.74 20.2895 8.74591 20.3159C8.71022 20.3127 8.67405 20.3183 8.64977 20.3407C8.52606 20.4539 8.64345 20.6284 8.67593 20.7301C8.68594 20.7613 8.69316 20.7932 8.69759 20.8257C8.70588 20.8862 8.74681 20.9688 8.82597 20.9798C8.84201 20.9815 8.85696 20.9887 8.8684 21.0001C8.87983 21.0115 8.88705 21.0264 8.88889 21.0424C8.9235 21.361 9.06017 21.5975 9.19265 21.7569C9.20423 21.7704 9.20998 21.788 9.20864 21.8057C9.20134 21.8987 9.18428 22.0037 9.14868 22.0956C9.14637 22.0919 9.1433 22.0886 9.13967 22.0861C9.13604 22.0836 9.13192 22.0818 9.12758 22.0809C9.12324 22.0801 9.11877 22.0801 9.11446 22.0811C9.11014 22.0821 9.10606 22.0839 9.1025 22.0865L8.96288 22.1888L8.80677 22.3033C8.79953 22.3085 8.79389 22.3156 8.79048 22.3239C8.78708 22.3321 8.78604 22.3411 8.7875 22.3499C8.55461 22.4146 8.04142 22.6365 7.89639 22.7054L7.89656 22.7056C7.73069 22.791 7.61683 22.9243 7.53857 23.0737L7.53882 23.0738C8.15439 23.6826 8.98539 24.0237 9.85111 24.0229C10.7444 24.0229 11.5679 23.6606 12.1635 23.0737Z" fill="#65D2FC"/>
</g>
</g>
<defs>
<clipPath id="clip0_620_7626">
<rect width="42" height="42" fill="white"/>
</clipPath>
</defs>
</svg>
