<svg width="25" height="24" viewBox="0 0 25 24" fill="none" xmlns="http://www.w3.org/2000/svg">
<path d="M12.4999 3C17.8919 3 22.3779 6.88 23.3189 12C22.3789 17.12 17.8919 21 12.4999 21C7.10791 21 2.62191 17.12 1.68091 12C2.62091 6.88 7.10791 3 12.4999 3ZM12.4999 19C14.5394 18.9996 16.5183 18.3068 18.1128 17.0352C19.7072 15.7635 20.8228 13.9883 21.2769 12C20.8211 10.0133 19.7048 8.24 18.1105 6.97003C16.5162 5.70005 14.5382 5.00853 12.4999 5.00853C10.4616 5.00853 8.4836 5.70005 6.88928 6.97003C5.29497 8.24 4.17868 10.0133 3.72291 12C4.177 13.9883 5.29258 15.7635 6.88705 17.0352C8.48152 18.3068 10.4604 18.9996 12.4999 19ZM12.4999 16.5C11.3064 16.5 10.1618 16.0259 9.31793 15.182C8.47401 14.3381 7.99991 13.1935 7.99991 12C7.99991 10.8065 8.47401 9.66193 9.31793 8.81802C10.1618 7.97411 11.3064 7.5 12.4999 7.5C13.6934 7.5 14.838 7.97411 15.6819 8.81802C16.5258 9.66193 16.9999 10.8065 16.9999 12C16.9999 13.1935 16.5258 14.3381 15.6819 15.182C14.838 16.0259 13.6934 16.5 12.4999 16.5ZM12.4999 14.5C13.1629 14.5 13.7988 14.2366 14.2677 13.7678C14.7365 13.2989 14.9999 12.663 14.9999 12C14.9999 11.337 14.7365 10.7011 14.2677 10.2322C13.7988 9.76339 13.1629 9.5 12.4999 9.5C11.8369 9.5 11.201 9.76339 10.7321 10.2322C10.2633 10.7011 9.99991 11.337 9.99991 12C9.99991 12.663 10.2633 13.2989 10.7321 13.7678C11.201 14.2366 11.8369 14.5 12.4999 14.5Z" fill="#10B981"/>
</svg>
