<svg width="25" height="24" viewBox="0 0 25 24" fill="none" xmlns="http://www.w3.org/2000/svg">
<path d="M12.6667 22C7.14369 22 2.66669 17.523 2.66669 12C2.66669 6.477 7.14369 2 12.6667 2C18.1897 2 22.6667 6.477 22.6667 12C22.6667 17.523 18.1897 22 12.6667 22ZM12.6667 20C14.7884 20 16.8233 19.1571 18.3235 17.6569C19.8238 16.1566 20.6667 14.1217 20.6667 12C20.6667 9.87827 19.8238 7.84344 18.3235 6.34315C16.8233 4.84285 14.7884 4 12.6667 4C10.545 4 8.51012 4.84285 7.00983 6.34315C5.50954 7.84344 4.66669 9.87827 4.66669 12C4.66669 14.1217 5.50954 16.1566 7.00983 17.6569C8.51012 19.1571 10.545 20 12.6667 20ZM13.6667 12H17.6667V14H11.6667V7H13.6667V12Z" fill="#6B7280"/>
</svg>
