<svg width="42" height="42" viewBox="0 0 42 42" fill="none" xmlns="http://www.w3.org/2000/svg">
<g clip-path="url(#clip0_619_7408)">
<path d="M42 21C42 25.1967 40.7692 29.107 38.647 32.3872C37.0195 34.9036 34.8748 37.0445 32.3556 38.6675C30.3891 39.9352 28.2234 40.8633 25.9491 41.413C25.8206 41.4437 25.6912 41.4739 25.5617 41.503C24.0935 41.8286 22.567 42 21 42C19.4478 42 17.9347 41.8321 16.4793 41.5113C15.015 41.1902 13.5897 40.712 12.2281 40.0851C11.3339 39.6736 10.47 39.1992 9.64286 38.6656C7.62 37.3632 5.83504 35.724 4.36529 33.8193C4.00811 33.3561 3.67018 32.8783 3.35237 32.3872C1.2308 29.107 0 25.1974 0 21C0 9.40185 9.40185 0 21 0C32.5982 0 42 9.40185 42 21Z" fill="#4C86CC"/>
<path d="M36.7397 3.16682C36.2666 3.16649 35.7974 3.25207 35.3548 3.41939C34.7694 1.4134 33.3656 0 31.7259 0C29.6395 0 27.9345 2.28761 27.8121 5.17338C25.5223 5.17855 23.6682 6.48268 23.6682 8.09123C23.6682 9.70274 25.5294 11.0092 27.8256 11.0092H36.7397C38.9055 11.0092 40.6608 9.25386 40.6608 7.08807C40.6608 4.92245 38.9055 3.16682 36.7397 3.16682ZM14.7839 10.9528C14.3108 10.9525 13.8416 11.0381 13.399 11.2053C12.8135 9.1994 11.4097 7.78591 9.77009 7.78591C7.6837 7.78591 5.9786 10.0735 5.85662 12.9593C3.56647 12.9645 1.7124 14.2686 1.7124 15.8771C1.7124 17.4887 3.57377 18.7951 5.86975 18.7951H14.7838C16.9497 18.7951 18.7053 17.0394 18.7053 14.874C18.7053 12.7084 16.9497 10.9528 14.7839 10.9528Z" fill="#E6E6E6"/>
<path d="M17.8104 39.5743C17.3945 40.2677 16.9497 40.9149 16.479 41.5113C11.5821 40.4382 7.32482 37.6542 4.36497 33.8192C4.00779 33.356 3.66986 32.8783 3.35205 32.3872H13.5941C14.2323 32.3872 14.8307 32.8842 15.2052 33.7235L17.8104 39.5743Z" fill="#D10F46"/>
<path d="M4.50244 27.9443H12.2971V32.846H4.50244V27.9443Z" fill="#D10F46"/>
<path d="M6.66309 28.7471H8.59271V32.8462H6.66309V28.7471Z" fill="#18282D"/>
<path d="M4.70818 24.5274C4.70818 25.5585 3.87212 26.3945 2.84099 26.3945C1.80986 26.3945 0.974121 25.5585 0.974121 24.5274C0.974121 23.4962 1.80986 22.6602 2.84099 22.6602C3.87212 22.6602 4.70818 23.4962 4.70818 24.5274ZM15.7943 24.5274C15.7943 25.5585 14.9582 26.3945 13.927 26.3945C12.8959 26.3945 12.0599 25.5585 12.0599 24.5274C12.0599 23.4962 12.8959 22.6602 13.927 22.6602C14.9582 22.6602 15.7943 23.4962 15.7943 24.5274Z" fill="#EFA492"/>
<path d="M8.39983 31.2983C5.32981 31.2983 2.84131 28.8098 2.84131 25.7397V19.5864H13.9584V25.7397C13.9584 28.8094 11.4696 31.2983 8.39983 31.2983Z" fill="#FFBDA9"/>
<path d="M9.19487 31.2416C8.93155 31.2794 8.66585 31.2982 8.39983 31.2979C5.32981 31.2979 2.84131 28.8098 2.84131 25.7397V19.5864H4.43157V25.7397C4.43157 28.5396 6.50162 30.8558 9.19487 31.2416Z" fill="#EFA492"/>
<path d="M4.01536 19.8105L2.29492 20.6764V24.6163C3.24501 24.6163 4.01528 23.8461 4.01528 22.896L4.01536 19.8105ZM12.784 19.857H14.5044V24.6164C13.5543 24.6164 12.784 23.8462 12.784 22.896V19.857Z" fill="#465C60"/>
<path d="M14.8731 21.4565H1.92041V19.3023C1.92041 16.3508 4.31343 13.958 7.26491 13.958H9.52848C12.48 13.958 14.8731 16.3507 14.8731 19.3023L14.8731 21.4565Z" fill="#FF2751"/>
<path d="M8.39669 13.9575C6.4802 13.9575 4.92702 15.5114 4.92702 17.4279V21.4564H1.92041V19.3024C1.92041 16.3509 4.31343 13.9575 7.26524 13.9575H8.39669Z" fill="#D10F46"/>
<path d="M10.6322 26.8843C10.6322 26.9048 10.6322 26.925 10.631 26.9452C10.6253 27.18 10.582 27.4124 10.5028 27.6335C10.3818 27.974 10.1795 28.2798 9.91352 28.5243C9.50208 28.9063 8.96114 29.1181 8.39972 29.1171C7.83823 29.1181 7.29721 28.9063 6.88567 28.5243C6.80483 28.4505 6.72985 28.3704 6.66139 28.285C6.50369 28.09 6.38026 27.8697 6.29636 27.6335C6.21711 27.4124 6.17385 27.18 6.16822 26.9452C6.16699 26.925 6.16699 26.9045 6.16699 26.8843H10.6322Z" fill="#2C2133"/>
<path d="M9.9136 28.5245C9.50194 28.9062 8.96097 29.1179 8.39955 29.1169C7.8382 29.1179 7.29732 28.9062 6.88574 28.5245C7.29726 28.1426 7.83815 27.9308 8.39955 27.9316C8.96102 27.9308 9.50197 28.1426 9.9136 28.5245Z" fill="#F71C55"/>
<path d="M10.6322 26.8843C10.6322 26.9048 10.6322 26.925 10.631 26.9452C9.99326 27.2832 9.2252 27.4803 8.39972 27.4803C7.57334 27.4803 6.80585 27.2833 6.16822 26.9452C6.16699 26.925 6.16699 26.9045 6.16699 26.8843H10.6322Z" fill="white"/>
<path d="M8.39989 21.0039L7.35276 25.9088H8.39989V21.0039ZM7.02463 23.5869C7.02463 23.013 6.55935 22.5477 5.98546 22.5477C5.41157 22.5477 4.94629 23.013 4.94629 23.5869H7.02463ZM11.8532 23.5869C11.8532 23.013 11.388 22.5477 10.8141 22.5477C10.2402 22.5477 9.77489 23.013 9.77489 23.5869H11.8532Z" fill="#EFA492"/>
<path d="M5.98536 22.9737C6.06489 22.9737 6.14364 22.9893 6.21712 23.0198C6.2906 23.0502 6.35737 23.0948 6.41361 23.151C6.46985 23.2072 6.51446 23.274 6.54489 23.3475C6.57533 23.421 6.591 23.4997 6.591 23.5792V24.5283C6.591 24.8629 6.31988 25.1341 5.98536 25.1341C5.65084 25.1341 5.37972 24.8629 5.37972 24.5284V23.5793C5.37971 23.4998 5.39537 23.421 5.4258 23.3475C5.45624 23.2741 5.50085 23.2073 5.55709 23.151C5.61333 23.0948 5.6801 23.0502 5.75358 23.0198C5.82706 22.9893 5.90582 22.9737 5.98536 22.9737ZM10.814 22.9737C10.8935 22.9737 10.9722 22.9893 11.0457 23.0198C11.1192 23.0502 11.186 23.0948 11.2422 23.151C11.2985 23.2072 11.3431 23.274 11.3735 23.3475C11.4039 23.421 11.4196 23.4997 11.4196 23.5792V24.5283C11.4196 24.8629 11.1485 25.1341 10.814 25.1341C10.4794 25.1341 10.2083 24.8629 10.2083 24.5284V23.5793C10.2083 23.4998 10.224 23.421 10.2544 23.3475C10.2848 23.2741 10.3295 23.2073 10.3857 23.151C10.4419 23.0948 10.5087 23.0502 10.5822 23.0198C10.6557 22.9893 10.7344 22.9737 10.814 22.9737ZM15.1226 22.7246C15.0524 22.7246 14.9809 22.7132 14.9104 22.6891C10.7102 21.251 6.08372 21.251 1.88347 22.6891C1.80213 22.717 1.71609 22.7285 1.63028 22.7231C1.54447 22.7178 1.46056 22.6955 1.38334 22.6577C1.30613 22.6199 1.23712 22.5672 1.18025 22.5027C1.12338 22.4382 1.07978 22.3632 1.05192 22.2818C1.02406 22.2005 1.0125 22.1145 1.01789 22.0286C1.02328 21.9428 1.04552 21.8589 1.08334 21.7817C1.12116 21.7045 1.17382 21.6355 1.23831 21.5786C1.3028 21.5217 1.37786 21.4781 1.4592 21.4503C5.93319 19.9183 10.8611 19.9183 15.3347 21.4503C15.6769 21.5673 15.8592 21.9396 15.7422 22.2818C15.6979 22.411 15.6144 22.5231 15.5033 22.6025C15.3922 22.6818 15.2591 22.7246 15.1226 22.7246Z" fill="#2C2133"/>
<path d="M38.6471 32.3872C35.7686 36.839 31.2515 40.1321 25.9492 41.4129C25.8208 41.4437 25.6913 41.4738 25.5618 41.5029C25.0931 40.9079 24.6499 40.2626 24.2358 39.5727L26.8398 33.7234C27.2137 32.8842 27.8135 32.3872 28.4522 32.3872H38.6471Z" fill="#D10F46"/>
<path d="M29.749 27.9443H37.5433V32.846H29.749V27.9443Z" fill="#D10F46"/>
<path d="M31.9092 28.7471H33.8386V32.8462H31.9092V28.7471Z" fill="#18282D"/>
<path d="M29.9545 24.5274C29.9545 25.5585 29.1185 26.3945 28.0873 26.3945C27.0562 26.3945 26.2202 25.5585 26.2202 24.5274C26.2202 23.4962 27.0562 22.6602 28.0873 22.6602C29.1185 22.6602 29.9545 23.4962 29.9545 24.5274ZM41.0402 24.5274C41.0402 25.5585 40.2043 26.3945 39.1732 26.3945C38.142 26.3945 37.3062 25.5585 37.3062 24.5274C37.3062 23.4962 38.142 22.6602 39.1731 22.6602C40.2042 22.6602 41.0403 23.4962 41.0403 24.5274H41.0402Z" fill="#995B39"/>
<path d="M33.646 31.2983C30.5759 31.2983 28.0874 28.8098 28.0874 25.7397V19.5864H39.2046V25.7397C39.2046 28.8094 36.7158 31.2983 33.646 31.2983Z" fill="#B47851"/>
<path d="M34.4413 31.2416C34.178 31.2794 33.9124 31.2982 33.6464 31.2979C30.5762 31.2979 28.0874 28.8098 28.0874 25.7397V19.5864H29.6781V25.7397C29.6777 28.5396 31.748 30.8558 34.4413 31.2416Z" fill="#995B39"/>
<path d="M29.2615 19.8105L27.541 20.6764V24.6163C28.4911 24.6163 29.2615 23.8461 29.2615 22.896V19.8105ZM38.0298 19.857H39.7502V24.6164C38.8001 24.6164 38.0298 23.8462 38.0298 22.896V19.857Z" fill="#465C60"/>
<path d="M40.1192 21.4565H27.167V19.3023C27.167 16.3508 29.5597 13.958 32.5112 13.958H34.7747C37.7265 13.958 40.1192 16.3507 40.1192 19.3023V21.4565Z" fill="#FF2751"/>
<path d="M33.643 13.9575C31.7265 13.9575 30.1736 15.5114 30.1736 17.4279V21.4564H27.167V19.3024C27.167 16.3509 29.56 13.9575 32.5115 13.9575H33.643Z" fill="#D10F46"/>
<path d="M35.8784 26.8843C35.8784 26.9048 35.8784 26.925 35.8771 26.9452C35.8714 27.18 35.8282 27.4124 35.7489 27.6335C35.6279 27.974 35.4256 28.2798 35.1596 28.5243C34.7482 28.9063 34.2073 29.1181 33.6459 29.1171C33.0844 29.1181 32.5434 28.9063 32.1318 28.5243C32.051 28.4505 31.976 28.3704 31.9076 28.285C31.7499 28.09 31.6264 27.8697 31.5425 27.6335C31.4633 27.4124 31.42 27.18 31.4144 26.9452C31.4131 26.925 31.4131 26.9045 31.4131 26.8843H35.8784Z" fill="#2C2133"/>
<path d="M35.1596 28.5245C34.7481 28.9062 34.2072 29.1179 33.6459 29.1169C33.0845 29.1179 32.5435 28.9062 32.1318 28.5245C32.5435 28.1426 33.0844 27.9308 33.6459 27.9316C34.2073 27.9308 34.7481 28.1426 35.1596 28.5245Z" fill="#F71C55"/>
<path d="M35.8784 26.8843C35.8784 26.9048 35.8784 26.925 35.8771 26.9452C35.2394 27.2832 34.4714 27.4803 33.6459 27.4803C32.8195 27.4803 32.052 27.2833 31.4144 26.9452C31.4131 26.925 31.4131 26.9045 31.4131 26.8843H35.8784Z" fill="white"/>
<path d="M33.6463 21.0039L32.5991 25.9088H33.6463V21.0039ZM32.2707 23.5869C32.2707 23.013 31.8054 22.5477 31.2316 22.5477C30.6576 22.5477 30.1924 23.013 30.1924 23.5869H32.2707ZM37.0993 23.5869C37.0993 23.013 36.6341 22.5477 36.0602 22.5477C35.4866 22.5477 35.0213 23.013 35.0213 23.5869H37.0993Z" fill="#995B39"/>
<path d="M31.2315 22.9737C31.3921 22.9737 31.5462 23.0375 31.6597 23.151C31.7733 23.2646 31.8371 23.4186 31.8371 23.5792V24.5283C31.8371 24.6079 31.8215 24.6866 31.791 24.7601C31.7606 24.8336 31.716 24.9004 31.6598 24.9566C31.6036 25.0129 31.5368 25.0575 31.4633 25.0879C31.3898 25.1184 31.3111 25.1341 31.2315 25.1341C31.152 25.1341 31.0732 25.1184 30.9998 25.088C30.9263 25.0575 30.8595 25.0129 30.8033 24.9567C30.747 24.9005 30.7024 24.8337 30.672 24.7602C30.6416 24.6867 30.6259 24.608 30.6259 24.5284V23.5793C30.6259 23.4998 30.6416 23.421 30.672 23.3475C30.7024 23.2741 30.747 23.2073 30.8033 23.151C30.8595 23.0948 30.9263 23.0502 30.9998 23.0198C31.0732 22.9893 31.152 22.9737 31.2315 22.9737ZM36.0601 22.9737C36.2208 22.9736 36.3749 23.0374 36.4885 23.151C36.6022 23.2645 36.666 23.4186 36.6661 23.5792V24.5283C36.6661 24.6079 36.6505 24.6867 36.62 24.7602C36.5896 24.8337 36.5449 24.9005 36.4886 24.9568C36.4324 25.013 36.3656 25.0576 36.292 25.088C36.2185 25.1185 36.1397 25.1341 36.0601 25.1341C35.8995 25.134 35.7455 25.0702 35.6319 24.9566C35.5183 24.8431 35.4545 24.689 35.4545 24.5284V23.5793C35.4545 23.4187 35.5183 23.2647 35.6319 23.1511C35.7455 23.0375 35.8995 22.9737 36.0601 22.9737ZM40.369 22.7246C40.2985 22.7246 40.2271 22.7132 40.1569 22.6891C35.9563 21.251 31.3299 21.251 27.1296 22.6891C26.9654 22.7453 26.7855 22.7339 26.6296 22.6575C26.4737 22.5812 26.3545 22.446 26.2981 22.2818C26.1811 21.9396 26.3635 21.5673 26.7057 21.4503C31.1796 19.9183 36.1073 19.9183 40.5811 21.4503C40.923 21.5673 41.1053 21.9396 40.9884 22.2818C40.9441 22.4109 40.8607 22.523 40.7496 22.6024C40.6386 22.6818 40.5056 22.7245 40.3691 22.7246H40.369Z" fill="#2C2133"/>
<path d="M32.3558 38.6673C30.3893 39.935 28.2236 40.8631 25.9493 41.4128C25.8209 41.4435 25.6914 41.4736 25.5619 41.5027C24.0937 41.8284 22.5672 41.9998 21.0002 41.9998C19.448 41.9998 17.9349 41.8319 16.4795 41.5111C15.0152 41.19 13.5899 40.7118 12.2283 40.0848C11.3341 39.6734 10.4702 39.199 9.64307 38.6654L12.5221 32.1984C12.9884 31.1528 13.735 30.5337 14.5307 30.5337H27.4682C28.2635 30.5337 29.0095 31.1528 29.4757 32.1984L32.3558 38.6673Z" fill="#D10F46"/>
<path d="M32.3555 38.6673C30.389 39.935 28.2233 40.8631 25.9491 41.4128C25.8206 41.4435 25.6912 41.4736 25.5616 41.5027C24.2316 41.7971 22.8761 41.9615 21.5142 41.9937C21.3438 41.9981 21.1724 41.9998 21 41.9998C20.8275 41.9998 20.6554 41.9981 20.484 41.9937C19.1367 41.9617 17.7956 41.8 16.4792 41.5111C15.015 41.19 13.5897 40.7118 12.228 40.0848L16.0329 32.1984C16.4982 31.1528 17.2457 30.5337 18.0401 30.5337H27.468C28.2633 30.5337 29.0092 31.1528 29.4754 32.1984L32.3555 38.6673Z" fill="#FF2751"/>
<path d="M16.1455 25.001H25.8528V31.1056H16.1455V25.001Z" fill="#FF2751"/>
<path d="M16.1455 25.001H20.9991V31.1056H16.1455V25.001Z" fill="#D10F46"/>
<path d="M18.8364 26.0005H21.2394V31.1056H18.8364V26.0005Z" fill="#18282D"/>
<path d="M16.4014 20.7453C16.4014 22.0293 15.3604 23.0704 14.0761 23.0704C12.792 23.0704 11.751 22.0293 11.751 20.7453C11.751 19.461 12.792 18.4199 14.0761 18.4199C15.3604 18.4199 16.4014 19.461 16.4014 20.7453ZM30.208 20.7453C30.208 22.0293 29.167 23.0704 27.8826 23.0704C26.5986 23.0704 25.5576 22.0293 25.5576 20.7453C25.5576 19.461 26.5986 18.4199 27.8826 18.4199C29.167 18.4199 30.208 19.461 30.208 20.7453Z" fill="#EFA492"/>
<path d="M20.9988 29.1779C17.1753 29.1779 14.0762 26.0788 14.0762 22.2553V14.5918H27.9214V22.2552C27.9214 26.0787 24.8219 29.1779 20.9988 29.1779V29.1779Z" fill="#FFBDA9"/>
<path d="M21.989 29.1073C21.6611 29.1545 21.3303 29.1781 20.9991 29.1779C17.1754 29.1779 14.0762 26.0792 14.0762 22.2555V14.5923H16.0567V22.2554C16.0567 25.7427 18.635 28.6273 21.989 29.1072V29.1073Z" fill="#EFA492"/>
<path d="M15.5387 14.8706L13.396 15.9492V20.856C14.5793 20.856 15.5387 19.8967 15.5387 18.7133L15.5387 14.8706ZM26.4591 14.9286H28.6016V20.856C27.4182 20.856 26.4591 19.8967 26.4591 18.7133L26.4591 14.9286Z" fill="#F4CA19"/>
<path d="M29.0611 16.9208H12.9297V14.238C12.9297 10.5621 15.9097 7.58203 19.5857 7.58203H22.405C26.0809 7.58203 29.061 10.5621 29.061 14.238L29.0611 16.9208Z" fill="#FF2751"/>
<path d="M20.9954 7.58105C18.6085 7.58105 16.6744 9.51617 16.6744 11.9028V16.9201H12.9297V14.2375C12.9297 10.5614 15.91 7.58105 19.5861 7.58105H20.9954Z" fill="#D10F46"/>
<path d="M23.7795 23.6807C23.7795 23.7056 23.7795 23.7309 23.7778 23.7563C23.7708 24.0487 23.7169 24.3381 23.618 24.6134C23.5136 24.9076 23.3601 25.1819 23.1639 25.4247C23.0786 25.5313 22.9851 25.6311 22.8842 25.7231C22.3718 26.1986 21.6982 26.4623 20.9991 26.461C20.2999 26.4624 19.6262 26.1987 19.1136 25.7231C19.0128 25.6311 18.9192 25.5314 18.8339 25.4248C18.6377 25.182 18.4842 24.9077 18.3799 24.6134C18.281 24.3381 18.227 24.0487 18.2199 23.7562C18.2183 23.7309 18.2183 23.7056 18.2183 23.6807H23.7795Z" fill="#2C2133"/>
<path d="M22.8843 25.7228C22.372 26.1984 21.6983 26.4621 20.9993 26.4608C20.3 26.4621 19.6263 26.1984 19.1138 25.7228C19.6265 25.2475 20.3001 24.9839 20.9992 24.9849C21.7265 24.9849 22.3896 25.2646 22.8843 25.7228H22.8843Z" fill="#F71C55"/>
<path d="M23.7795 23.6807C23.7795 23.7056 23.7795 23.7309 23.7778 23.7563C22.9838 24.177 22.0273 24.4224 20.999 24.4224C19.9698 24.4224 19.0143 24.177 18.2199 23.7563C18.2183 23.7309 18.2183 23.7056 18.2183 23.6807H23.7795Z" fill="white"/>
<path d="M20.9992 16.3569L19.6951 22.4658H20.9992V16.3569ZM19.2858 19.5738C19.2858 18.8593 18.7065 18.2799 17.992 18.2799C17.2771 18.2799 16.6978 18.8592 16.6978 19.5738H19.2858ZM25.2998 19.5738C25.2998 18.8593 24.7204 18.2799 24.0056 18.2799C23.291 18.2799 22.7116 18.8592 22.7116 19.5738H25.2998Z" fill="#EFA492"/>
<path d="M17.9917 18.8097C18.1917 18.8098 18.3836 18.8892 18.5251 19.0307C18.6665 19.1722 18.746 19.364 18.746 19.5641V20.7462C18.746 21.1631 18.4082 21.5005 17.9917 21.5005C17.5751 21.5005 17.2374 21.1631 17.2374 20.7462V19.5641C17.2374 19.3641 17.3169 19.1722 17.4584 19.0308C17.5998 18.8893 17.7917 18.8098 17.9917 18.8097ZM24.0052 18.8097C24.1043 18.8097 24.2024 18.8292 24.2939 18.8672C24.3854 18.9051 24.4686 18.9606 24.5387 19.0307C24.6087 19.1007 24.6643 19.1839 24.7022 19.2754C24.7401 19.3669 24.7596 19.465 24.7596 19.5641V20.7462C24.7596 21.1631 24.4219 21.5005 24.0053 21.5005C23.5888 21.5005 23.2513 21.1631 23.2513 20.7462V19.5641C23.2513 19.1475 23.5887 18.8098 24.0053 18.8098L24.0052 18.8097ZM29.3713 18.4997C29.2814 18.4996 29.1922 18.4848 29.1072 18.4557C23.8761 16.6645 18.1142 16.6645 12.883 18.4557C12.4571 18.6015 11.9935 18.3743 11.8474 17.9482C11.7015 17.5223 11.9288 17.0586 12.3549 16.9128C17.9266 15.005 24.0636 15.005 29.6353 16.9128C30.0615 17.0586 30.2887 17.5223 30.1429 17.9481C30.0269 18.2869 29.7103 18.4997 29.3713 18.4997Z" fill="#2C2133"/>
<path d="M21.5147 31.106V41.994C21.3441 41.9985 21.1728 42.0001 21.0004 42.0001C20.8279 42.0001 20.6558 41.9985 20.4844 41.994V31.106L21.5147 31.106Z" fill="#D10F46"/>
</g>
<defs>
<clipPath id="clip0_619_7408">
<rect width="42" height="42" fill="white"/>
</clipPath>
</defs>
</svg>
