<svg width="42" height="42" viewBox="0 0 42 42" fill="none" xmlns="http://www.w3.org/2000/svg">
<g clip-path="url(#clip0_620_7534)">
<path d="M19.7788 0.0351562C12.4201 0.456803 7.93977 4.55905 7.92684 4.56638C7.92684 4.56638 7.71988 4.82472 7.68118 4.99643C7.45339 6.00772 7.23697 7.26756 7.13477 8.40452H28.2507L19.7788 0.0351562Z" fill="#AFE6FF"/>
<path d="M7.4595 8.40406C7.49716 7.11305 7.65358 5.82825 7.92677 4.56592C6.52648 5.68217 5.27376 6.97189 4.19873 8.40406H7.4595Z" fill="#73C8F0"/>
<path d="M41.7475 17.7336L28.7435 16.8994L3.34424 28.6827L3.36466 32.4034C7.10629 38.1785 13.6065 42 21.0001 42C25.2486 42 29.2251 40.7314 32.5504 38.5386C37.0355 35.581 40.3362 30.9422 41.5223 25.4668C41.537 25.3772 42 23.5334 42 21C42.0004 19.9063 41.916 18.8142 41.7475 17.7336Z" fill="#A5A0AA"/>
<path d="M17.066 6.07698H20.0228V3.05322H17.066C16.2311 3.05322 15.5542 3.73008 15.5542 4.56506C15.5541 5.40012 16.2311 6.07698 17.066 6.07698Z" fill="#FA690F"/>
<path d="M20.1689 6.78315H36.4544C32.6337 2.63199 27.1627 0.0242001 21.0816 0.000976562L20.1689 6.78315Z" fill="white"/>
<path d="M31.5308 2.82831H28.1255C26.818 2.82831 25.7807 1.79132 25.7269 0.534366C24.3894 0.226695 23.003 0.0473302 21.5813 0.00878906L20.1689 6.78314H36.4544C35.021 5.22525 33.3611 3.89203 31.5308 2.82831Z" fill="#A0EBFF"/>
<path d="M33.7842 4.34033H20.4977L20.1689 6.78325H35.932L33.7842 4.34033Z" fill="#6CDCFE"/>
<path d="M35.8415 6.14312H20.7964L21.5814 0.00831765C21.3877 0.0029428 21.1939 0.000169997 21.0001 0C20.5846 0 20.1778 0.0126824 19.7789 0.0354941L18.769 7.92754H37.4347C36.9377 7.30311 36.4058 6.70734 35.8415 6.14312Z" fill="#FFA50A"/>
<path d="M24.9447 6.14312H20.7964L21.5814 0.00831765C21.3877 0.0029428 21.1939 0.000169997 21.0001 0C20.5846 0 20.1778 0.0126824 19.7789 0.0354941L18.769 7.92754H24.9446L24.9447 6.14312Z" fill="#FA870A"/>
<path d="M40.0633 12.1823L38.8056 10.9396L38.7007 9.69731C37.8064 8.29987 36.7504 7.01281 35.5545 5.86279H19.8383C17.7767 5.86279 16.1055 7.53398 16.1055 9.5956V14.4307H40.9505C40.6985 13.6647 40.4022 12.914 40.0633 12.1823Z" fill="#FFA50A"/>
<path d="M40.0633 12.1822L38.0534 11.3062H25.0358C23.8799 11.3062 22.9429 10.3692 22.9429 9.21332V5.86279H19.8383C17.7767 5.86279 16.1055 7.53398 16.1055 9.5956V14.4306H40.9505C40.6985 13.6646 40.4022 12.9139 40.0633 12.1822Z" fill="#FA870A"/>
<path d="M37.0413 21.2135H39.4876C40.2876 21.2135 40.9361 20.565 40.9361 19.7651V15.0723H35.5928V19.7651C35.5928 20.565 36.2414 21.2135 37.0413 21.2135ZM21.2458 21.2135H18.7995C17.9995 21.2135 17.3511 20.565 17.3511 19.7651V15.0723H22.6943V19.7651C22.6943 20.565 22.0458 21.2135 21.2458 21.2135Z" fill="#1E2D64"/>
<path d="M19.2789 19.7651V15.0723H17.3516V19.7651C17.3516 20.565 18.0001 21.2135 18.8 21.2135H20.7273C19.9273 21.2135 19.2789 20.565 19.2789 19.7651ZM37.5881 19.7651V15.0723H35.6607V19.7651C35.6607 20.565 36.3092 21.2135 37.1091 21.2135H39.0364C38.2365 21.2135 37.5881 20.565 37.5881 19.7651Z" fill="#0F1446"/>
<path d="M40.53 13.2671H16.286C15.6318 13.2671 15.1016 13.7974 15.1016 14.4515V16.5491C15.1016 17.2032 15.6318 17.7335 16.286 17.7335H41.7467C41.5082 16.2042 41.1001 14.7061 40.53 13.2671Z" fill="#FA690F"/>
<path d="M25.5103 13.2671H16.286C15.6318 13.2671 15.1016 13.7974 15.1016 14.4515V16.5491C15.1016 17.2032 15.6318 17.7335 16.286 17.7335H25.5104L25.5103 13.2671Z" fill="#FF4619"/>
<path d="M34.7777 17.7526H23.5L24.3174 15.0541C24.3907 14.8122 24.5398 14.6003 24.7428 14.4497C24.9458 14.2991 25.1918 14.2178 25.4445 14.2178H32.8331C33.0858 14.2178 33.3318 14.2991 33.5348 14.4497C33.7378 14.6003 33.8869 14.8122 33.9601 15.0541L34.7777 17.7526Z" fill="#E6DCDC"/>
<path d="M26.6333 14.2183H25.4445C25.1918 14.2183 24.9458 14.2996 24.7428 14.4502C24.5398 14.6008 24.3907 14.8127 24.3174 15.0546L23.5 17.7531H34.7777L34.4897 16.8023H28.5506C27.2064 16.8023 26.2436 15.5047 26.6333 14.2183Z" fill="#C8BEC3"/>
<path d="M20.435 12.1823C21.0102 12.1823 21.3532 11.5458 21.0421 11.062C20.3163 9.93331 19.0498 9.18555 17.6081 9.18555H16.1284C16.1133 9.32168 16.1056 9.45853 16.1055 9.5955V12.1823H20.435Z" fill="#FFA50A"/>
<path d="M37.3755 15.9853H40.2359C40.4421 15.9853 40.6398 15.9034 40.7856 15.7577C40.9314 15.6119 41.0133 15.4142 41.0133 15.208C41.0133 15.0018 40.9314 14.8041 40.7856 14.6583C40.6398 14.5126 40.4421 14.4307 40.2359 14.4307H37.3755C37.1693 14.4307 36.9716 14.5126 36.8258 14.6583C36.68 14.8041 36.5981 15.0018 36.5981 15.208C36.5981 15.4142 36.68 15.6119 36.8258 15.7577C36.9716 15.9034 37.1693 15.9853 37.3755 15.9853ZM38.7016 9.69678C38.1113 10.025 37.6111 10.494 37.2457 11.062C36.9346 11.5458 37.2776 12.1824 37.8528 12.1824H40.0633C39.666 11.3241 39.211 10.4937 38.7016 9.69678Z" fill="#FFE65A"/>
<path d="M33.276 11.6632H29.5496C29.711 11.9127 29.7188 12.261 29.5725 12.5197H33.276C33.3878 12.517 33.4942 12.4707 33.5723 12.3907C33.6504 12.3107 33.6941 12.2033 33.6941 12.0915C33.6941 11.9796 33.6504 11.8722 33.5723 11.7922C33.4942 11.7122 33.3878 11.6659 33.276 11.6632ZM32.0416 9.92627H28.4062C28.4351 10.0523 28.4529 10.1823 28.4589 10.3148C28.4657 10.4722 28.4502 10.6297 28.4127 10.7827H32.0415C32.155 10.7828 32.264 10.7376 32.3443 10.6573C32.4246 10.577 32.4697 10.4681 32.4697 10.3545C32.4698 10.241 32.4247 10.132 32.3444 10.0517C32.2641 9.97141 32.1551 9.92628 32.0416 9.92627Z" fill="#E6DCDC"/>
<path d="M29.7666 12.5199H25.171C25.0588 12.5177 24.952 12.4716 24.8735 12.3915C24.795 12.3114 24.751 12.2037 24.751 12.0916C24.751 11.9794 24.795 11.8717 24.8735 11.7916C24.952 11.7116 25.0588 11.6655 25.171 11.6633H29.7666C29.8802 11.6633 29.9891 11.7084 30.0695 11.7887C30.1498 11.869 30.1949 11.978 30.1949 12.0916C30.1949 12.2052 30.1498 12.3141 30.0695 12.3944C29.9891 12.4748 29.8802 12.5199 29.7666 12.5199ZM28.5279 10.7829H26.4055C26.2919 10.7829 26.183 10.7378 26.1027 10.6575C26.0223 10.5771 25.9772 10.4682 25.9772 10.3546C25.9772 10.241 26.0223 10.132 26.1027 10.0517C26.183 9.9714 26.2919 9.92627 26.4055 9.92627H28.5279C28.6415 9.92627 28.7505 9.9714 28.8308 10.0517C28.9111 10.132 28.9562 10.241 28.9562 10.3546C28.9562 10.4682 28.9111 10.5771 28.8308 10.6575C28.7505 10.7378 28.6415 10.7829 28.5279 10.7829Z" fill="#C8BEC3"/>
<path d="M27.9659 4.72142H22.376L22.9574 2.86099C23.0372 2.60575 23.1964 2.38266 23.4118 2.22427C23.6273 2.06588 23.8877 1.98046 24.1551 1.98047H26.1868C26.4542 1.98046 26.7146 2.06588 26.9301 2.22427C27.1455 2.38266 27.3048 2.60575 27.3845 2.86099L27.9659 4.72142ZM31.067 2.56682C31.009 2.65856 30.9631 2.75744 30.9306 2.86099L30.3491 4.72142H34.2657C33.2677 3.9068 32.197 3.18557 31.067 2.56682Z" fill="#6CDCFE"/>
<path d="M27.966 6.29126C27.8687 6.29135 27.7744 6.25819 27.6986 6.1973L26.3898 5.1496H21.857C21.7449 5.1474 21.6381 5.10131 21.5595 5.02123C21.481 4.94114 21.437 4.83345 21.437 4.72129C21.437 4.60912 21.481 4.50143 21.5595 4.42135C21.6381 4.34126 21.7449 4.29517 21.857 4.29297H26.5401C26.6374 4.29297 26.7318 4.32607 26.8077 4.38693L28.2338 5.52859C28.3031 5.58409 28.3534 5.65972 28.3778 5.74503C28.4022 5.83034 28.3995 5.92112 28.3701 6.00484C28.3407 6.08856 28.286 6.16108 28.2136 6.21239C28.1412 6.26369 28.0547 6.29125 27.966 6.29126ZM29.3565 5.1496H33.8893L35.1981 6.1973C35.2739 6.2582 35.3683 6.29136 35.4655 6.29126C35.5298 6.29137 35.5932 6.27698 35.6512 6.24916C35.7091 6.22134 35.76 6.18081 35.8001 6.13059C35.8045 6.12516 35.8071 6.11906 35.8111 6.11355C35.1559 5.46165 34.4586 4.85349 33.7237 4.29297H29.3565C29.2443 4.29517 29.1375 4.34126 29.059 4.42135C28.9805 4.50143 28.9365 4.60912 28.9365 4.72129C28.9365 4.83345 28.9805 4.94114 29.059 5.02123C29.1375 5.10131 29.2443 5.1474 29.3565 5.1496Z" fill="#1E2D64"/>
<path d="M23.8223 5.1496H21.857C21.7434 5.1496 21.6345 5.10448 21.5542 5.02415C21.4738 4.94383 21.4287 4.83488 21.4287 4.72129C21.4287 4.60769 21.4738 4.49875 21.5542 4.41842C21.6345 4.3381 21.7434 4.29297 21.857 4.29297H23.8223C23.9359 4.29297 24.0448 4.3381 24.1252 4.41842C24.2055 4.49875 24.2506 4.60769 24.2506 4.72129C24.2506 4.83488 24.2055 4.94383 24.1252 5.02415C24.0448 5.10448 23.9359 5.1496 23.8223 5.1496ZM31.5687 5.1496H29.3564C29.2428 5.1496 29.1339 5.10448 29.0536 5.02415C28.9732 4.94383 28.9281 4.83488 28.9281 4.72129C28.9281 4.60769 28.9732 4.49875 29.0536 4.41842C29.1339 4.3381 29.2428 4.29297 29.3564 4.29297H31.5687C31.6823 4.29297 31.7913 4.3381 31.8716 4.41842C31.9519 4.49875 31.9971 4.60769 31.9971 4.72129C31.9971 4.83488 31.9519 4.94383 31.8716 5.02415C31.7913 5.10448 31.6823 5.1496 31.5687 5.1496Z" fill="#1E1632"/>
<path d="M22.5769 17.5228H19.6201V14.499H22.5769C23.4119 14.499 24.0888 15.1759 24.0888 16.0109C24.0888 16.8459 23.4119 17.5228 22.5769 17.5228Z" fill="#18A300"/>
<path d="M6.854 18.2292H19.4059L18.4407 11.0558C18.2862 9.90823 17.3068 9.05176 16.1489 9.05176H6.854V18.2292Z" fill="white"/>
<path d="M7.04325 11.5527L7.51431 9.05127H4.72337C3.5654 9.05127 2.50906 10.9623 2.35465 12.1099L1.46631 18.2288H19.4058L19.0081 14.2739H9.42276C7.96956 14.2738 6.84947 12.993 7.04325 11.5527Z" fill="#A0EBFF"/>
<path d="M19.0589 15.7861H1.79506L1.46631 18.229H19.4058L19.077 15.7852C19.0708 15.7852 19.0651 15.7861 19.0589 15.7861Z" fill="#6CDCFE"/>
<path d="M17.9208 10.8863L18.7726 17.5433H20.5716L19.6899 10.6524C19.5114 9.32566 18.3791 8.33545 17.0404 8.33545H5.2583V10.12H17.0404C17.4821 10.12 17.8599 10.4491 17.9208 10.8863Z" fill="#64BC0F"/>
<path d="M6.24205 17.589H2.09377L2.95139 10.8862C3.01225 10.449 3.39009 10.1199 3.83183 10.1199H5.34976C5.84256 10.1199 6.24197 9.72038 6.24197 9.22766C6.24197 8.73486 5.84248 8.33545 5.34976 8.33545H4.24994C2.30995 10.897 0.944453 13.9172 0.343936 17.2046L0.0664062 19.3735H6.24205V17.589Z" fill="#18A300"/>
<path d="M19.7362 17.3086H4.00684V25.8764H23.4691V21.0414C23.4691 18.9798 21.7979 17.3086 19.7362 17.3086Z" fill="#64BC0F"/>
<path d="M6.33301 22.7521C5.17711 22.7521 4.24009 21.8151 4.24009 20.6592V17.3086H1.13547C0.850941 17.3086 0.574235 17.3415 0.307906 17.4018C0.115103 18.5186 0.0124616 19.6491 0.000976562 20.7823L0.763318 22.4457L0.163459 23.6282C0.25814 24.3845 0.393977 25.135 0.570365 25.8765H23.4691V22.7522L6.33301 22.7521Z" fill="#18A300"/>
<path d="M18.3388 32.6593H20.7851C21.5851 32.6593 22.2336 32.0108 22.2336 31.2109V26.5181H16.8903V31.2109C16.8903 32.0108 17.5389 32.6593 18.3388 32.6593ZM1.65381 29.179C2.12893 30.3016 2.70126 31.3807 3.36428 32.4037C3.74319 32.1424 3.99181 31.7059 3.99181 31.2109V26.5181L1.65381 29.179Z" fill="#1E2D64"/>
<path d="M18.8853 31.2109V26.5181H16.958V31.2109C16.958 32.0108 17.6065 32.6593 18.4064 32.6593H20.3337C19.5338 32.6594 18.8853 32.0108 18.8853 31.2109Z" fill="#0F1446"/>
<path d="M23.4585 24.7129H6.61816V29.1793H23.4585C24.1126 29.1793 24.6429 28.649 24.6429 27.9949V25.8973C24.6429 25.2432 24.1126 24.7129 23.4585 24.7129Z" fill="#1A9600"/>
<path d="M0.327148 24.7129C0.397066 25.1046 0.477854 25.4927 0.569101 25.8766L1.22825 26.6481L1.00318 27.4314C1.19432 28.026 1.41116 28.6091 1.65254 29.1793H6.80767V24.7129H0.327148Z" fill="#1A8400"/>
<path d="M15.2572 26.4999C15.1839 26.258 15.0348 26.0461 14.8319 25.8955C14.6289 25.7449 14.3829 25.6636 14.1301 25.6636H7.93036L6.61798 26.0772L5.75146 28.1216L16.0747 29.1984L15.7867 28.2476L15.2572 26.4999Z" fill="#E6DCDC"/>
<path d="M7.93065 25.6641H6.74188C6.48915 25.6641 6.24312 25.7454 6.04015 25.896C5.83719 26.0466 5.68806 26.2585 5.6148 26.5004L4.79736 29.1989H16.075L15.787 28.2481H9.8479C8.50374 28.2481 7.54095 26.9505 7.93065 25.6641Z" fill="#C8BEC3"/>
<path d="M2.20938 25.8765H0.570312C0.694915 26.4001 0.839772 26.9187 1.00456 27.4311H2.20938C2.41554 27.4311 2.61326 27.3492 2.75904 27.2034C2.90482 27.0577 2.98671 26.86 2.98671 26.6538C2.98671 26.4476 2.90482 26.2499 2.75904 26.1041C2.61326 25.9584 2.41554 25.8765 2.20938 25.8765Z" fill="#FFE65A"/>
<path d="M0.163388 23.6281H1.73229C2.30753 23.6281 2.65053 22.9916 2.3394 22.5078C1.80518 21.6771 0.977447 21.054 0.00321177 20.7822C0.00238824 20.8549 0 20.927 0 20.9998C0 21.89 0.0559177 22.7671 0.163388 23.6281Z" fill="#FFA50A"/>
<path d="M18.6728 27.4311H21.5333C21.7394 27.4311 21.9372 27.3492 22.0829 27.2034C22.2287 27.0577 22.3106 26.86 22.3106 26.6538C22.3106 26.4476 22.2287 26.2499 22.0829 26.1041C21.9372 25.9584 21.7394 25.8765 21.5333 25.8765H18.6728C18.4667 25.8765 18.269 25.9584 18.1232 26.1041C17.9774 26.2499 17.8955 26.4476 17.8955 26.6538C17.8955 26.86 17.9774 27.0577 18.1232 27.2034C18.269 27.3492 18.4667 27.4311 18.6728 27.4311Z" fill="#FFE65A"/>
<path d="M19.1498 23.6281C18.5746 23.6281 18.2316 22.9916 18.5427 22.5078C19.2686 21.3791 20.5351 20.6313 21.9768 20.6313H23.4565C23.4712 20.7661 23.4794 20.9027 23.4794 21.0413V23.6281H19.1498Z" fill="#FFA50A"/>
<path d="M14.5734 23.9655H6.46834C6.3562 23.9633 6.24939 23.9172 6.17086 23.8372C6.09233 23.7571 6.04834 23.6494 6.04834 23.5372C6.04834 23.425 6.09233 23.3174 6.17086 23.2373C6.24939 23.1572 6.3562 23.1111 6.46834 23.1089H14.5734C14.6855 23.1111 14.7923 23.1572 14.8708 23.2373C14.9494 23.3174 14.9934 23.425 14.9934 23.5372C14.9934 23.6494 14.9494 23.7571 14.8708 23.8372C14.7923 23.9172 14.6855 23.9633 14.5734 23.9655ZM13.3389 22.2285H7.70281C7.64657 22.2285 7.59089 22.2175 7.53893 22.1959C7.48698 22.1744 7.43977 22.1429 7.4 22.1031C7.36024 22.0633 7.32869 22.0161 7.30717 21.9642C7.28565 21.9122 7.27458 21.8565 7.27458 21.8003C7.27458 21.7441 7.28565 21.6884 7.30717 21.6364C7.32869 21.5845 7.36024 21.5373 7.4 21.4975C7.43977 21.4577 7.48698 21.4262 7.53893 21.4047C7.59089 21.3831 7.64657 21.3721 7.70281 21.3721H13.3389C13.3951 21.3721 13.4508 21.3831 13.5028 21.4047C13.5547 21.4262 13.6019 21.4577 13.6417 21.4975C13.6815 21.5373 13.713 21.5845 13.7345 21.6364C13.756 21.6884 13.7671 21.7441 13.7671 21.8003C13.7671 21.8565 13.756 21.9122 13.7345 21.9642C13.713 22.0161 13.6815 22.0633 13.6417 22.1031C13.6019 22.1429 13.5547 22.1744 13.5028 22.1959C13.4508 22.2175 13.3951 22.2285 13.3389 22.2285Z" fill="#1A8400"/>
<path d="M9.68465 23.9657H6.46827C6.41204 23.9657 6.35635 23.9546 6.3044 23.9331C6.25244 23.9116 6.20523 23.88 6.16547 23.8403C6.1257 23.8005 6.09416 23.7533 6.07264 23.7013C6.05112 23.6494 6.04004 23.5937 6.04004 23.5375C6.04004 23.4812 6.05112 23.4255 6.07264 23.3736C6.09416 23.3216 6.1257 23.2744 6.16547 23.2346C6.20523 23.1949 6.25244 23.1633 6.3044 23.1418C6.35635 23.1203 6.41204 23.1092 6.46827 23.1092H9.68465C9.74089 23.1092 9.79657 23.1203 9.84853 23.1418C9.90049 23.1633 9.94769 23.1949 9.98746 23.2346C10.0272 23.2744 10.0588 23.3216 10.0803 23.3736C10.1018 23.4255 10.1129 23.4812 10.1129 23.5375C10.1129 23.5937 10.1018 23.6494 10.0803 23.7013C10.0588 23.7533 10.0272 23.8005 9.98746 23.8403C9.94769 23.88 9.90049 23.9116 9.84853 23.9331C9.79657 23.9546 9.74089 23.9657 9.68465 23.9657ZM9.11345 22.2287H7.70275C7.5906 22.2265 7.4838 22.1804 7.40526 22.1003C7.32673 22.0202 7.28274 21.9126 7.28274 21.8004C7.28274 21.6882 7.32673 21.5805 7.40526 21.5004C7.4838 21.4204 7.5906 21.3743 7.70275 21.3721H9.11345C9.22559 21.3743 9.3324 21.4204 9.41093 21.5004C9.48946 21.5805 9.53345 21.6882 9.53345 21.8004C9.53345 21.9126 9.48946 22.0202 9.41093 22.1003C9.3324 22.1804 9.22559 22.2265 9.11345 22.2287Z" fill="#186D00"/>
<path d="M9.26329 16.1668H3.67334L4.25475 14.3064C4.33452 14.0511 4.49374 13.828 4.7092 13.6697C4.92465 13.5113 5.18508 13.4258 5.45249 13.4259H7.48414C7.75155 13.4258 8.01198 13.5113 8.22744 13.6697C8.44289 13.828 8.60212 14.0511 8.68188 14.3064L9.26329 16.1668ZM17.2365 16.1668H11.6466L12.228 14.3064C12.3078 14.0511 12.467 13.828 12.6824 13.6697C12.8979 13.5113 13.1583 13.4258 13.4257 13.4259H15.4574C15.7248 13.4258 15.9852 13.5113 16.2007 13.6697C16.4161 13.828 16.5754 14.0511 16.6551 14.3064L17.2365 16.1668ZM11.6799 11.9584H9.18094C8.67315 11.9584 8.26155 11.5468 8.26155 11.039C8.26155 10.5312 8.67315 10.1196 9.18094 10.1196H11.6799C12.1876 10.1196 12.5992 10.5312 12.5992 11.039C12.5992 11.5467 12.1876 11.9584 11.6799 11.9584Z" fill="#6CDCFE"/>
<path d="M9.26325 17.737C9.16601 17.7371 9.07166 17.7039 8.99585 17.643L7.6871 16.5952H3.15431C3.04073 16.5952 2.93181 16.5501 2.8515 16.4698C2.77119 16.3895 2.72607 16.2806 2.72607 16.167C2.72607 16.0534 2.77119 15.9445 2.8515 15.8642C2.93181 15.7839 3.04073 15.7388 3.15431 15.7388H7.83747C7.93482 15.7388 8.02919 15.7719 8.10512 15.8327L9.53123 16.9745C9.61988 17.0455 9.6767 17.1488 9.68921 17.2617C9.70172 17.3746 9.66889 17.4878 9.59793 17.5765C9.55779 17.6267 9.50685 17.6671 9.44891 17.6949C9.39097 17.7227 9.32751 17.7371 9.26325 17.737ZM16.7627 17.737C16.6655 17.7371 16.5711 17.7039 16.4953 17.643L15.1865 16.5952H10.6537C10.5401 16.5952 10.4312 16.5501 10.3509 16.4698C10.2706 16.3895 10.2255 16.2806 10.2255 16.167C10.2255 16.0534 10.2706 15.9445 10.3509 15.8642C10.4312 15.7839 10.5401 15.7388 10.6537 15.7388H15.3368C15.4341 15.7388 15.5285 15.7719 15.6044 15.8327L17.0305 16.9745C17.1192 17.0455 17.176 17.1488 17.1885 17.2617C17.201 17.3746 17.1682 17.4878 17.0972 17.5765C17.0571 17.6267 17.0062 17.6671 16.9483 17.6949C16.8904 17.7227 16.827 17.7371 16.7627 17.737Z" fill="#1E2D64"/>
<path d="M5.11504 16.5954H3.15389C3.04174 16.5932 2.93494 16.5471 2.85641 16.467C2.77788 16.3869 2.73389 16.2793 2.73389 16.1671C2.73389 16.0549 2.77788 15.9472 2.85641 15.8671C2.93494 15.7871 3.04174 15.741 3.15389 15.7388H5.11504C5.22718 15.741 5.33399 15.7871 5.41252 15.8671C5.49105 15.9472 5.53504 16.0549 5.53504 16.1671C5.53504 16.2793 5.49105 16.3869 5.41252 16.467C5.33399 16.5471 5.22718 16.5932 5.11504 16.5954ZM12.9949 16.5954H10.6534C10.5412 16.5932 10.4344 16.5471 10.3559 16.467C10.2773 16.3869 10.2334 16.2793 10.2334 16.1671C10.2334 16.0549 10.2773 15.9472 10.3559 15.8671C10.4344 15.7871 10.5412 15.741 10.6534 15.7388H12.9949C13.1085 15.7388 13.2174 15.7839 13.2978 15.8642C13.3781 15.9445 13.4232 16.0535 13.4232 16.1671C13.4232 16.2807 13.3781 16.3896 13.2978 16.47C13.2174 16.5503 13.1085 16.5954 12.9949 16.5954Z" fill="#1E1632"/>
<path d="M15.6383 26.8626H18.5951V23.8389H15.6383C14.8033 23.8389 14.1265 24.5157 14.1265 25.3507C14.1265 26.1857 14.8033 26.8626 15.6383 26.8626Z" fill="#DC1428"/>
<path d="M39.8513 26.8626H36.8945V23.8389H39.8513C40.6863 23.8389 41.3632 24.5157 41.3632 25.3507C41.3632 26.1857 40.6863 26.8626 39.8513 26.8626Z" fill="#F22C2C"/>
<path d="M33.4236 18.3911H21.9983C20.8403 18.3911 19.8609 19.2476 19.7065 20.3952L18.7412 27.5685H36.6807L35.7155 20.3952C35.561 19.2476 34.5816 18.3911 33.4236 18.3911Z" fill="white"/>
<path d="M24.3182 20.8926L24.7892 18.3911H21.9983C20.8403 18.3911 19.8609 19.2476 19.7065 20.3952L18.7412 27.5685H36.6807L36.283 23.6137H26.6977C25.2445 23.6138 24.1244 22.3329 24.3182 20.8926Z" fill="#A0EBFF"/>
<path d="M36.3338 25.1254H19.07L18.7412 27.5683H36.6807L36.3519 25.1245C36.3457 25.1247 36.34 25.1254 36.3338 25.1254Z" fill="#6CDCFE"/>
<path d="M34.3152 19.4593C34.7569 19.4593 35.1347 19.7885 35.1956 20.2256L36.0532 26.9285H19.3686L20.2262 20.2256C20.2871 19.7885 20.6649 19.4593 21.1066 19.4593H34.3152ZM34.3152 17.6748H21.1067C19.7681 17.6748 18.6357 18.6649 18.4572 19.9917L17.3413 28.713H38.0806L36.9647 19.9917C36.7862 18.6649 35.6538 17.6748 34.3152 17.6748Z" fill="#FF3C3C"/>
<path d="M23.517 26.9284H19.3687L20.2263 20.2255C20.2872 19.7884 20.665 19.4592 21.1067 19.4592H22.6247C23.1175 19.4592 23.5169 19.0597 23.5169 18.567C23.5169 18.0742 23.1174 17.6748 22.6247 17.6748H21.1067C19.7681 17.6748 18.6357 18.6649 18.4572 19.9917L17.3413 28.713H23.5169V26.9284H23.517Z" fill="#F22C2C"/>
<path d="M40.722 29.9723C40.5184 28.1031 38.9347 26.6484 37.0114 26.6484H18.4105C16.349 26.6484 14.6777 28.3197 14.6777 30.3812V35.2164H40.7442V32.968L39.9817 31.4697L40.722 29.9723Z" fill="#FF3C3C"/>
<path d="M21.5152 29.9991V26.6484H18.4105C16.4875 26.6484 14.9042 28.1025 14.7 29.9712C14.6852 30.1059 15.9236 31.4298 15.9236 31.5684L14.6777 32.968V35.2164H40.7442V32.092H23.6081C22.4522 32.092 21.5152 31.155 21.5152 29.9991Z" fill="#F22C2C"/>
<path d="M35.6135 41.9987H38.0598C38.8598 41.9987 39.5082 41.3502 39.5082 40.5502V35.8574H34.165V40.5502C34.165 41.3502 34.8135 41.9987 35.6135 41.9987ZM19.8181 41.9987H17.3718C16.5718 41.9987 15.9233 41.3502 15.9233 40.5502V35.8574H21.2666V40.5502C21.2665 41.3502 20.618 41.9987 19.8181 41.9987Z" fill="#1E2D64"/>
<path d="M17.8506 40.5507V35.8579H15.9233V40.5507C15.9233 41.3507 16.5719 41.9991 17.3718 41.9991H19.2991C18.4991 41.9991 17.8506 41.3506 17.8506 40.5507ZM36.1598 40.5507V35.8579H34.2325V40.5507C34.2325 41.3507 34.8811 41.9991 35.681 41.9991H37.6083C36.8084 41.9991 36.1598 41.3506 36.1598 40.5507Z" fill="#0F1446"/>
<path d="M40.7334 38.5191H33.3497L28.2259 37.3237L22.072 38.5191H14.8582C14.2041 38.5191 13.6738 37.9889 13.6738 37.3347V35.2371C13.6738 34.583 14.2041 34.0527 14.8582 34.0527H40.7334C41.3875 34.0527 41.9178 34.583 41.9178 35.2371V37.3347C41.9178 37.9889 41.3875 38.5191 40.7334 38.5191Z" fill="#DC1428"/>
<path d="M24.0826 34.0527H14.8582C14.2041 34.0527 13.6738 34.583 13.6738 35.2371V37.3347C13.6738 37.9889 14.2041 38.5191 14.8582 38.5191H22.0721L24.0827 36.7709V34.0527H24.0826Z" fill="#BE1423"/>
<path d="M33.3494 38.5383H22.0718L22.8892 35.8397C22.9625 35.5978 23.1116 35.3859 23.3146 35.2353C23.5175 35.0847 23.7636 35.0034 24.0163 35.0034H31.4048C31.6576 35.0034 31.9036 35.0847 32.1066 35.2353C32.3095 35.3859 32.4587 35.5978 32.5319 35.8397L33.3494 38.5383Z" fill="#1E2D64"/>
<path d="M25.2051 35.0034H24.0163C23.7636 35.0034 23.5175 35.0847 23.3146 35.2353C23.1116 35.3859 22.9625 35.5978 22.8892 35.8397L22.0718 38.5383H33.3494L33.0614 37.5876H27.1224C25.7782 37.5875 24.8154 36.2899 25.2051 35.0034Z" fill="#0F1446"/>
<path d="M19.4845 36.771H16.624C16.4178 36.771 16.2201 36.6891 16.0744 36.5433C15.9286 36.3975 15.8467 36.1998 15.8467 35.9936C15.8467 35.7875 15.9286 35.5898 16.0744 35.444C16.2201 35.2982 16.4178 35.2163 16.624 35.2163H19.4845C19.6906 35.2163 19.8883 35.2982 20.0341 35.444C20.1799 35.5898 20.2618 35.7875 20.2618 35.9936C20.2618 36.1998 20.1799 36.3975 20.0341 36.5433C19.8883 36.6891 19.6906 36.771 19.4845 36.771Z" fill="#FFE65A"/>
<path d="M19.0073 32.9679C19.5825 32.9679 19.9255 32.3314 19.6144 31.8476C18.8885 30.719 17.622 29.9712 16.1803 29.9712H14.7006C14.6855 30.1073 14.6779 30.2442 14.6777 30.3811V32.9679H19.0073Z" fill="#FFA50A"/>
<path d="M35.9473 36.771H38.8077C39.0139 36.771 39.2116 36.6891 39.3574 36.5433C39.5031 36.3975 39.585 36.1998 39.585 35.9936C39.585 35.7875 39.5031 35.5898 39.3574 35.444C39.2116 35.2982 39.0139 35.2163 38.8077 35.2163H35.9473C35.7411 35.2163 35.5434 35.2982 35.3976 35.444C35.2518 35.5898 35.1699 35.7875 35.1699 35.9936C35.1699 36.1998 35.2518 36.3975 35.3976 36.5433C35.5434 36.6891 35.7411 36.771 35.9473 36.771Z" fill="#FFE65A"/>
<path d="M36.4247 32.9679C35.8495 32.9679 35.5065 32.3314 35.8176 31.8476C36.5435 30.719 37.81 29.9712 39.2517 29.9712H40.7314C40.7465 30.1073 40.7541 30.2442 40.7543 30.3811V32.9679H36.4247Z" fill="#FFA50A"/>
<path d="M31.8483 33.3055H23.7432C23.6311 33.3033 23.5243 33.2572 23.4458 33.1771C23.3672 33.097 23.3232 32.9893 23.3232 32.8771C23.3232 32.765 23.3672 32.6573 23.4458 32.5772C23.5243 32.4971 23.6311 32.451 23.7432 32.4488H31.8483C31.9604 32.451 32.0672 32.4971 32.1457 32.5772C32.2243 32.6573 32.2683 32.765 32.2683 32.8771C32.2683 32.9893 32.2243 33.097 32.1457 33.1771C32.0672 33.2572 31.9604 33.3033 31.8483 33.3055ZM30.6138 31.5684H24.9777C24.8641 31.5684 24.7552 31.5233 24.6749 31.443C24.5946 31.3626 24.5495 31.2537 24.5495 31.1402C24.5495 31.0266 24.5946 30.9177 24.6749 30.8373C24.7552 30.757 24.8641 30.7119 24.9777 30.7119H30.6138C30.7274 30.7119 30.8363 30.757 30.9166 30.8373C30.9969 30.9177 31.042 31.0266 31.042 31.1402C31.042 31.2537 30.9969 31.3626 30.9166 31.443C30.8363 31.5233 30.7274 31.5684 30.6138 31.5684Z" fill="#1E2D64"/>
<path d="M27.3184 33.3055H23.7432C23.6869 33.3055 23.6313 33.2944 23.5793 33.2729C23.5273 33.2513 23.4801 33.2198 23.4404 33.18C23.4006 33.1403 23.3691 33.0931 23.3475 33.0411C23.326 32.9891 23.3149 32.9335 23.3149 32.8772C23.3149 32.821 23.326 32.7653 23.3475 32.7133C23.3691 32.6614 23.4006 32.6142 23.4404 32.5744C23.4801 32.5346 23.5273 32.5031 23.5793 32.4816C23.6313 32.4601 23.6869 32.449 23.7432 32.449H27.3185C27.3748 32.449 27.4305 32.4601 27.4824 32.4816C27.5344 32.5031 27.5816 32.5347 27.6213 32.5744C27.6611 32.6142 27.6926 32.6614 27.7141 32.7134C27.7357 32.7653 27.7467 32.821 27.7467 32.8773C27.7467 32.9335 27.7356 32.9892 27.7141 33.0411C27.6926 33.0931 27.661 33.1403 27.6213 33.1801C27.5815 33.2198 27.5343 33.2514 27.4823 33.2729C27.4304 33.2944 27.3747 33.3055 27.3184 33.3055ZM26.5782 31.5686H24.9776C24.8641 31.5686 24.7551 31.5234 24.6748 31.4431C24.5945 31.3628 24.5493 31.2538 24.5493 31.1402C24.5493 31.0266 24.5945 30.9177 24.6748 30.8374C24.7551 30.757 24.8641 30.7119 24.9776 30.7119H26.5782C26.6918 30.7119 26.8007 30.757 26.881 30.8374C26.9614 30.9177 27.0065 31.0266 27.0065 31.1402C27.0065 31.2538 26.9614 31.3628 26.881 31.4431C26.8007 31.5234 26.6918 31.5686 26.5782 31.5686Z" fill="#1E1632"/>
<path d="M26.5382 25.5067H20.9482L21.5297 23.6463C21.6094 23.3911 21.7686 23.168 21.9841 23.0096C22.1996 22.8512 22.46 22.7658 22.7274 22.7658H24.759C25.0265 22.7658 25.2869 22.8512 25.5023 23.0096C25.7178 23.168 25.877 23.3911 25.9568 23.6463L26.5382 25.5067ZM34.5114 25.5067H28.9215L29.5029 23.6463C29.5827 23.3911 29.7419 23.168 29.9573 23.0096C30.1728 22.8512 30.4332 22.7658 30.7006 22.7658H32.7323C32.9997 22.7658 33.2601 22.8512 33.4756 23.0096C33.691 23.168 33.8503 23.3911 33.93 23.6463L34.5114 25.5067ZM28.9548 21.2982H26.4558C25.9481 21.2982 25.5365 20.8866 25.5365 20.3789C25.5365 19.8711 25.9481 19.4595 26.4558 19.4595H28.9548C29.4625 19.4595 29.8741 19.8711 29.8741 20.3789C29.8741 20.8866 29.4625 21.2982 28.9548 21.2982Z" fill="#6CDCFE"/>
<path d="M26.5378 27.0765C26.4406 27.0766 26.3462 27.0434 26.2704 26.9825L24.9617 25.9348H20.4288C20.3166 25.9326 20.2098 25.8865 20.1313 25.8064C20.0528 25.7263 20.0088 25.6186 20.0088 25.5064C20.0088 25.3943 20.0528 25.2866 20.1313 25.2065C20.2098 25.1264 20.3166 25.0803 20.4288 25.0781H25.112C25.2093 25.0781 25.3037 25.1112 25.3796 25.1721L26.8057 26.3138C26.8749 26.3693 26.9252 26.445 26.9496 26.5303C26.9741 26.6156 26.9714 26.7064 26.942 26.7901C26.9126 26.8738 26.8579 26.9463 26.7855 26.9976C26.7131 27.0489 26.6265 27.0765 26.5378 27.0765ZM34.0373 27.0765C33.94 27.0766 33.8457 27.0434 33.7699 26.9825L32.4611 25.9348H27.9283C27.8162 25.9326 27.7094 25.8865 27.6309 25.8064C27.5523 25.7263 27.5083 25.6186 27.5083 25.5064C27.5083 25.3943 27.5523 25.2866 27.6309 25.2065C27.7094 25.1264 27.8162 25.0803 27.9283 25.0781H32.6115C32.7088 25.0781 32.8032 25.1112 32.8792 25.1721L34.3053 26.3138C34.3745 26.3693 34.4248 26.445 34.4492 26.5303C34.4736 26.6156 34.4709 26.7064 34.4415 26.7901C34.4121 26.8738 34.3574 26.9464 34.285 26.9977C34.2126 27.049 34.126 27.0765 34.0373 27.0765Z" fill="#1E2D64"/>
<path d="M22.6412 25.9348H20.4288C20.3166 25.9326 20.2098 25.8865 20.1313 25.8064C20.0528 25.7263 20.0088 25.6186 20.0088 25.5064C20.0088 25.3943 20.0528 25.2866 20.1313 25.2065C20.2098 25.1264 20.3166 25.0803 20.4288 25.0781H22.6412C22.7548 25.0781 22.8637 25.1233 22.9441 25.2036C23.0244 25.2839 23.0695 25.3928 23.0695 25.5064C23.0695 25.62 23.0244 25.729 22.9441 25.8093C22.8637 25.8896 22.7548 25.9348 22.6412 25.9348ZM29.6465 25.9348H27.9283C27.8161 25.9326 27.7093 25.8865 27.6308 25.8064C27.5522 25.7263 27.5083 25.6186 27.5083 25.5064C27.5083 25.3943 27.5522 25.2866 27.6308 25.2065C27.7093 25.1264 27.8161 25.0803 27.9283 25.0781H29.6465C29.7586 25.0803 29.8654 25.1264 29.944 25.2065C30.0225 25.2866 30.0665 25.3943 30.0665 25.5064C30.0665 25.6186 30.0225 25.7263 29.944 25.8064C29.8654 25.8865 29.7586 25.9326 29.6465 25.9348Z" fill="#1E1632"/>
</g>
<defs>
<clipPath id="clip0_620_7534">
<rect width="42" height="42" fill="white"/>
</clipPath>
</defs>
</svg>
