<svg width="22" height="22" viewBox="0 0 22 22" fill="none" xmlns="http://www.w3.org/2000/svg">
<g clip-path="url(#clip0_255_3309)">
<path d="M11 15.583C14.3569 15.583 17.293 17.0268 18.8898 19.1809L17.2013 19.9793C15.9015 18.4393 13.6098 17.4163 11 17.4163C8.39029 17.4163 6.09862 18.4393 4.79879 19.9793L3.11121 19.18C4.70804 17.0258 7.64321 15.583 11 15.583ZM11 1.83301C12.2156 1.83301 13.3814 2.31589 14.2409 3.17544C15.1005 4.03498 15.5834 5.20077 15.5834 6.41634V9.16634C15.5834 10.3819 15.1005 11.5477 14.2409 12.4072C13.3814 13.2668 12.2156 13.7497 11 13.7497C9.78446 13.7497 8.61868 13.2668 7.75913 12.4072C6.89959 11.5477 6.41671 10.3819 6.41671 9.16634V6.41634C6.41671 5.20077 6.89959 4.03498 7.75913 3.17544C8.61868 2.31589 9.78446 1.83301 11 1.83301Z" fill="#EAB308"/>
</g>
<defs>
<clipPath id="clip0_255_3309">
<rect width="22" height="22" fill="white"/>
</clipPath>
</defs>
</svg>
