<svg width="32" height="32" viewBox="0 0 32 32" fill="none" xmlns="http://www.w3.org/2000/svg">
<path d="M9.33331 27.9745C7.51204 27.8347 5.78152 27.123 4.38885 25.941C2.99618 24.759 2.01256 23.1673 1.57845 21.393C1.14434 19.6187 1.28193 17.7526 1.97158 16.0612C2.66123 14.3697 3.86767 12.9394 5.41864 11.9745C5.74866 9.4013 7.00504 7.03652 8.95266 5.32273C10.9003 3.60893 13.4057 2.66357 16 2.66357C18.5943 2.66357 21.0997 3.60893 23.0473 5.32273C24.9949 7.03652 26.2513 9.4013 26.5813 11.9745C28.1323 12.9394 29.3387 14.3697 30.0284 16.0612C30.718 17.7526 30.8556 19.6187 30.4215 21.393C29.9874 23.1673 29.0038 24.759 27.6111 25.941C26.2184 27.123 24.4879 27.8347 22.6666 27.9745V27.9998H9.33331V27.9745ZM17.3333 17.3332H21.3333L16 10.6665L10.6666 17.3332H14.6666V22.6665H17.3333V17.3332Z" fill="#6366F1"/>
</svg>
