<svg width="25" height="24" viewBox="0 0 25 24" fill="none" xmlns="http://www.w3.org/2000/svg">
<g id="Group">
<path id="Vector" d="M18.4 7H21.4C21.6652 7 21.9196 7.10536 22.1071 7.29289C22.2947 7.48043 22.4 7.73478 22.4 8V20C22.4 20.2652 22.2947 20.5196 22.1071 20.7071C21.9196 20.8946 21.6652 21 21.4 21H3.40002C3.13481 21 2.88045 20.8946 2.69292 20.7071C2.50538 20.5196 2.40002 20.2652 2.40002 20V4C2.40002 3.73478 2.50538 3.48043 2.69292 3.29289C2.88045 3.10536 3.13481 3 3.40002 3H18.4V7ZM4.40002 9V19H20.4V9H4.40002ZM4.40002 5V7H16.4V5H4.40002ZM15.4 13H18.4V15H15.4V13Z" fill="#6B7280"/>
</g>
</svg>
