<svg width="22" height="22" viewBox="0 0 22 22" fill="none" xmlns="http://www.w3.org/2000/svg">
<g clip-path="url(#clip0_255_3387)">
<path d="M9.00354 2.0515C8.29788 3.58331 8.07865 5.29458 8.37537 6.95481C8.67208 8.61503 9.4705 10.1444 10.6631 11.337C11.8556 12.5295 13.385 13.328 15.0452 13.6247C16.7055 13.9214 18.4167 13.7022 19.9485 12.9965C19.0374 17.0995 15.3771 20.1667 11 20.1667C5.93729 20.1667 1.83337 16.0627 1.83337 11C1.83337 6.62292 4.90054 2.96267 9.00354 2.0515ZM16.6504 2.10008L17.4167 2.29167V3.20833L16.6504 3.39992C16.3281 3.48052 16.0337 3.64719 15.7988 3.88211C15.5639 4.11703 15.3972 4.41137 15.3166 4.73367L15.125 5.5H14.2084L14.0168 4.73367C13.9362 4.41137 13.7695 4.11703 13.5346 3.88211C13.2997 3.64719 13.0053 3.48052 12.683 3.39992L11.9167 3.20833V2.29167L12.683 2.10008C13.0052 2.01933 13.2993 1.8526 13.5341 1.61769C13.7688 1.38278 13.9353 1.08852 14.0159 0.766333L14.2084 0H15.125L15.3166 0.766333C15.3972 1.08863 15.5639 1.38297 15.7988 1.61789C16.0337 1.85281 16.3281 2.01948 16.6504 2.10008ZM21.2337 6.68342L22 6.875V7.79167L21.2337 7.98325C20.9114 8.06385 20.6171 8.23052 20.3822 8.46544C20.1472 8.70036 19.9806 8.9947 19.9 9.317L19.7084 10.0833H18.7917L18.6001 9.317C18.5195 8.9947 18.3528 8.70036 18.1179 8.46544C17.883 8.23052 17.5887 8.06385 17.2664 7.98325L16.5 7.79167V6.875L17.2664 6.68342C17.5887 6.60281 17.883 6.43614 18.1179 6.20122C18.3528 5.9663 18.5195 5.67197 18.6001 5.34967L18.7917 4.58333H19.7084L19.9 5.34967C19.9806 5.67197 20.1472 5.9663 20.3822 6.20122C20.6171 6.43614 20.9114 6.60281 21.2337 6.68342Z" fill="#3B82F6"/>
</g>
<defs>
<clipPath id="clip0_255_3387">
<rect width="22" height="22" fill="white"/>
</clipPath>
</defs>
</svg>
