<svg width="22" height="22" viewBox="0 0 22 22" fill="none" xmlns="http://www.w3.org/2000/svg">
<g clip-path="url(#clip0_255_3365)">
<path d="M3.46775 2.59083L11 0.916992L18.5322 2.59083C18.7358 2.63608 18.9179 2.74938 19.0483 2.91203C19.1788 3.07468 19.25 3.27697 19.25 3.48549V12.6402C19.2499 13.5457 19.0263 14.4371 18.5991 15.2353C18.1718 16.0336 17.554 16.714 16.8007 17.2162L11 21.0837L5.19933 17.2162C4.44608 16.7141 3.82842 16.0338 3.40115 15.2357C2.97388 14.4376 2.75022 13.5464 2.75 12.6412V3.48549C2.75004 3.27697 2.82117 3.07468 2.95166 2.91203C3.08215 2.74938 3.26419 2.63608 3.46775 2.59083ZM11.9167 9.16699V4.58366L7.33333 11.0003H10.0833V15.5837L14.6667 9.16699H11.9167Z" fill="#10B981"/>
</g>
<defs>
<clipPath id="clip0_255_3365">
<rect width="22" height="22" fill="white"/>
</clipPath>
</defs>
</svg>
