<svg width="22" height="22" viewBox="0 0 22 22" fill="none" xmlns="http://www.w3.org/2000/svg">
<g clip-path="url(#clip0_255_3410)">
<path d="M11 0.458008L14.8738 6.12576L21.4619 8.05901L17.2682 13.4948L17.4653 20.357L11 18.0488L4.53475 20.357L4.73184 13.4948L0.538086 8.05901L7.12617 6.12576L11 0.458008ZM9.16667 10.9997H7.33334C7.33332 11.9563 7.70714 12.875 8.37504 13.5598C9.04293 14.2446 9.95201 14.6413 10.9083 14.6653C11.8646 14.6892 12.7924 14.3384 13.4937 13.6879C14.195 13.0373 14.6143 12.1384 14.6621 11.183L14.6667 10.9997H12.8333C12.8355 11.4754 12.6526 11.9333 12.3233 12.2767C11.9941 12.6201 11.5442 12.8221 11.0688 12.8399C10.5934 12.8578 10.1297 12.6901 9.77559 12.3724C9.42151 12.0547 9.2048 11.6117 9.17125 11.1372L9.16667 10.9997Z" fill="#EAB308"/>
</g>
<defs>
<clipPath id="clip0_255_3410">
<rect width="22" height="22" fill="white"/>
</clipPath>
</defs>
</svg>
