<svg width="22" height="22" viewBox="0 0 22 22" fill="none" xmlns="http://www.w3.org/2000/svg">
<g clip-path="url(#clip0_255_3346)">
<path d="M12.8333 13.0647V20.167H3.66663C3.66634 19.0476 3.9223 17.9431 4.4149 16.9379C4.9075 15.9328 5.62365 15.0538 6.50849 14.3682C7.39333 13.6826 8.42337 13.2087 9.51968 12.9827C10.616 12.7568 11.7495 12.7848 12.8333 13.0647ZM11 11.917C7.96121 11.917 5.49996 9.45574 5.49996 6.41699C5.49996 3.37824 7.96121 0.916992 11 0.916992C14.0387 0.916992 16.5 3.37824 16.5 6.41699C16.5 9.45574 14.0387 11.917 11 11.917ZM16.5 15.5837V12.8337H18.3333V15.5837H21.0833V17.417H18.3333V20.167H16.5V17.417H13.75V15.5837H16.5Z" fill="#10B981"/>
</g>
<defs>
<clipPath id="clip0_255_3346">
<rect width="22" height="22" fill="white"/>
</clipPath>
</defs>
</svg>
