<svg width="22" height="22" viewBox="0 0 22 22" fill="none" xmlns="http://www.w3.org/2000/svg">
<g clip-path="url(#clip0_495_12209)">
<path d="M2.56667 4.76636L6.41667 7.33302L10.2538 1.96136C10.3386 1.84253 10.4506 1.74567 10.5804 1.67884C10.7101 1.61201 10.854 1.57715 11 1.57715C11.146 1.57715 11.2899 1.61201 11.4196 1.67884C11.5494 1.74567 11.6614 1.84253 11.7462 1.96136L15.5833 7.33302L19.4333 4.76636C19.579 4.66941 19.7495 4.61621 19.9244 4.61303C20.0994 4.60985 20.2716 4.65683 20.4208 4.74841C20.5699 4.83999 20.6897 4.97235 20.766 5.12985C20.8423 5.28734 20.872 5.46339 20.8514 5.63719L19.3453 18.4403C19.3191 18.6633 19.2119 18.8688 19.0441 19.018C18.8763 19.1672 18.6596 19.2497 18.4351 19.2497H3.56492C3.34039 19.2497 3.12369 19.1672 2.95591 19.018C2.78813 18.8688 2.68094 18.6633 2.65467 18.4403L1.14858 5.63627C1.12823 5.46255 1.15801 5.28663 1.2344 5.12928C1.31079 4.97193 1.43061 4.83972 1.5797 4.74826C1.7288 4.6568 1.90094 4.6099 2.07583 4.61311C2.25071 4.61632 2.42102 4.66949 2.56667 4.76636ZM11 13.7497C11.4862 13.7497 11.9525 13.5565 12.2964 13.2127C12.6402 12.8689 12.8333 12.4026 12.8333 11.9164C12.8333 11.4301 12.6402 10.9638 12.2964 10.62C11.9525 10.2762 11.4862 10.083 11 10.083C10.5138 10.083 10.0475 10.2762 9.70364 10.62C9.35982 10.9638 9.16667 11.4301 9.16667 11.9164C9.16667 12.4026 9.35982 12.8689 9.70364 13.2127C10.0475 13.5565 10.5138 13.7497 11 13.7497Z" fill="#10B981"/>
</g>
<defs>
<clipPath id="clip0_495_12209">
<rect width="22" height="22" fill="white"/>
</clipPath>
</defs>
</svg>
